G04 #@! TF.FileFunction,Copper,L2,Bot,Signal*
%FSLAX46Y46*%
G04 Gerber Fmt 4.6, Leading zero omitted, Abs format (unit mm)*
G04 Created by KiCad (PCBNEW 4.0.5-e0-6337~49~ubuntu16.04.1) date Wed Dec 28 20:02:50 2016*
%MOMM*%
%LPD*%
G01*
G04 APERTURE LIST*
%ADD10C,0.200000*%
%ADD11R,2.000000X1.900000*%
%ADD12C,1.900000*%
%ADD13C,1.998980*%
%ADD14O,2.999740X1.998980*%
%ADD15O,1.998980X2.999740*%
%ADD16R,2.000000X2.000000*%
%ADD17C,2.000000*%
%ADD18O,1.506220X3.014980*%
%ADD19C,2.000000*%
%ADD20C,0.254000*%
G04 APERTURE END LIST*
D10*
D11*
X25400000Y64770000D03*
D12*
X25400000Y67310000D03*
D11*
X45720000Y64770000D03*
D12*
X45720000Y67310000D03*
D13*
X25400000Y85090000D03*
X25400000Y95250000D03*
X30480000Y85090000D03*
X30480000Y95250000D03*
X40640000Y85090000D03*
X40640000Y95250000D03*
X45720000Y85090000D03*
X45720000Y95250000D03*
D14*
X6350000Y10160000D03*
D15*
X8890000Y7620000D03*
X8890000Y12700000D03*
D14*
X60960000Y10160000D03*
D15*
X63500000Y7620000D03*
X63500000Y12700000D03*
D16*
X57150000Y31115000D03*
D17*
X54650000Y31115000D03*
D16*
X11430000Y32385000D03*
D17*
X13930000Y32385000D03*
D18*
X34290000Y15240000D03*
X36830000Y15240000D03*
D17*
X38100000Y38100000D03*
X22860000Y38100000D03*
X7620000Y38100000D03*
X35560000Y82550000D03*
X49530000Y38100000D03*
X30480000Y15240000D03*
D19*
X8890000Y12700000D02*
X8890000Y29845000D01*
X8890000Y29845000D02*
X11430000Y32385000D01*
X11430000Y32385000D02*
X11430000Y90170000D01*
X11430000Y90170000D02*
X16510000Y95250000D01*
X16510000Y95250000D02*
X25400000Y95250000D01*
X13930000Y32385000D02*
X45720000Y32385000D01*
X45720000Y32385000D02*
X45720000Y33020000D01*
X40640000Y95250000D02*
X40640000Y93980000D01*
X45720000Y25400000D02*
X60960000Y10160000D01*
X45720000Y39370000D02*
X45720000Y33020000D01*
X45720000Y33020000D02*
X45720000Y25400000D01*
X58420000Y52070000D02*
X45720000Y39370000D01*
X58420000Y87630000D02*
X58420000Y52070000D01*
X55880000Y90170000D02*
X58420000Y87630000D01*
X44450000Y90170000D02*
X55880000Y90170000D01*
X40640000Y93980000D02*
X44450000Y90170000D01*
X60960000Y10160000D02*
X59690000Y10160000D01*
X59690000Y10160000D02*
X58420000Y11430000D01*
X57150000Y31115000D02*
X63500000Y31115000D01*
X63500000Y31115000D02*
X63500000Y30480000D01*
X63500000Y12700000D02*
X63500000Y30480000D01*
X63500000Y30480000D02*
X63500000Y91440000D01*
X59690000Y95250000D02*
X45720000Y95250000D01*
X63500000Y91440000D02*
X59690000Y95250000D01*
X6350000Y10160000D02*
X6350000Y36830000D01*
X22860000Y38100000D02*
X38100000Y38100000D01*
X6350000Y36830000D02*
X7620000Y38100000D01*
X54650000Y31115000D02*
X54650000Y32980000D01*
X33020000Y95250000D02*
X30480000Y95250000D01*
X35560000Y92710000D02*
X33020000Y95250000D01*
X35560000Y82550000D02*
X35560000Y92710000D01*
X54650000Y32980000D02*
X49530000Y38100000D01*
X25400000Y64770000D02*
X22860000Y64770000D01*
X22860000Y85090000D02*
X25400000Y85090000D01*
X20320000Y82550000D02*
X22860000Y85090000D01*
X20320000Y67310000D02*
X20320000Y82550000D01*
X22860000Y64770000D02*
X20320000Y67310000D01*
X45720000Y64770000D02*
X49530000Y64770000D01*
X49530000Y85090000D02*
X45720000Y85090000D01*
X50800000Y83820000D02*
X49530000Y85090000D01*
X50800000Y66040000D02*
X50800000Y83820000D01*
X49530000Y64770000D02*
X50800000Y66040000D01*
X34290000Y15240000D02*
X30480000Y15240000D01*
X30480000Y85090000D02*
X30480000Y72390000D01*
X30480000Y72390000D02*
X25400000Y67310000D01*
X25400000Y67310000D02*
X45720000Y67310000D01*
X45720000Y67310000D02*
X40640000Y72390000D01*
X40640000Y72390000D02*
X40640000Y85090000D01*
D20*
G36*
X67870000Y1980000D02*
X1980000Y1980000D01*
X1980000Y7493000D01*
X7255510Y7493000D01*
X7255510Y6992620D01*
X7428529Y6376795D01*
X7824044Y5874058D01*
X8381841Y5560947D01*
X8509646Y5530001D01*
X8763000Y5649355D01*
X8763000Y7493000D01*
X9017000Y7493000D01*
X9017000Y5649355D01*
X9270354Y5530001D01*
X9398159Y5560947D01*
X9955956Y5874058D01*
X10351471Y6376795D01*
X10524490Y6992620D01*
X10524490Y7493000D01*
X61865510Y7493000D01*
X61865510Y6992620D01*
X62038529Y6376795D01*
X62434044Y5874058D01*
X62991841Y5560947D01*
X63119646Y5530001D01*
X63373000Y5649355D01*
X63373000Y7493000D01*
X63627000Y7493000D01*
X63627000Y5649355D01*
X63880354Y5530001D01*
X64008159Y5560947D01*
X64565956Y5874058D01*
X64961471Y6376795D01*
X65134490Y6992620D01*
X65134490Y7493000D01*
X63627000Y7493000D01*
X63373000Y7493000D01*
X61865510Y7493000D01*
X10524490Y7493000D01*
X9017000Y7493000D01*
X8763000Y7493000D01*
X7255510Y7493000D01*
X1980000Y7493000D01*
X1980000Y10160000D01*
X4173305Y10160000D01*
X4297723Y9534508D01*
X4652036Y9004241D01*
X5182303Y8649928D01*
X5807795Y8525510D01*
X6347436Y8525510D01*
X6350000Y8525000D01*
X6352564Y8525510D01*
X6892205Y8525510D01*
X7359783Y8618517D01*
X7255510Y8247380D01*
X7255510Y7747000D01*
X8763000Y7747000D01*
X8763000Y9590645D01*
X9017000Y9590645D01*
X9017000Y7747000D01*
X10524490Y7747000D01*
X10524490Y8247380D01*
X10351471Y8863205D01*
X9955956Y9365942D01*
X9398159Y9679053D01*
X9270354Y9709999D01*
X9017000Y9590645D01*
X8763000Y9590645D01*
X8509646Y9709999D01*
X8433518Y9691566D01*
X8526695Y10160000D01*
X8436485Y10613515D01*
X8890000Y10523305D01*
X9515492Y10647723D01*
X10045759Y11002036D01*
X10400072Y11532303D01*
X10524490Y12157795D01*
X10524490Y12697436D01*
X10525000Y12700000D01*
X10525000Y14916205D01*
X28844716Y14916205D01*
X29093106Y14315057D01*
X29552637Y13854722D01*
X30153352Y13605284D01*
X30803795Y13604716D01*
X30804482Y13605000D01*
X33212978Y13605000D01*
X33308458Y13462104D01*
X33758793Y13161200D01*
X34290000Y13055536D01*
X34821207Y13161200D01*
X35271542Y13462104D01*
X35572446Y13912439D01*
X35573016Y13915306D01*
X35596154Y13837081D01*
X35938260Y13414276D01*
X36416125Y13154573D01*
X36488326Y13140217D01*
X36703000Y13262838D01*
X36703000Y15113000D01*
X36957000Y15113000D01*
X36957000Y13262838D01*
X37171674Y13140217D01*
X37243875Y13154573D01*
X37721740Y13414276D01*
X38063846Y13837081D01*
X38218110Y14358620D01*
X38218110Y15113000D01*
X36957000Y15113000D01*
X36703000Y15113000D01*
X36683000Y15113000D01*
X36683000Y15367000D01*
X36703000Y15367000D01*
X36703000Y17217162D01*
X36957000Y17217162D01*
X36957000Y15367000D01*
X38218110Y15367000D01*
X38218110Y16121380D01*
X38063846Y16642919D01*
X37721740Y17065724D01*
X37243875Y17325427D01*
X37171674Y17339783D01*
X36957000Y17217162D01*
X36703000Y17217162D01*
X36488326Y17339783D01*
X36416125Y17325427D01*
X35938260Y17065724D01*
X35596154Y16642919D01*
X35573016Y16564694D01*
X35572446Y16567561D01*
X35271542Y17017896D01*
X34821207Y17318800D01*
X34290000Y17424464D01*
X33758793Y17318800D01*
X33308458Y17017896D01*
X33212978Y16875000D01*
X30481426Y16875000D01*
X30156205Y16875284D01*
X29555057Y16626894D01*
X29094722Y16167363D01*
X28845284Y15566648D01*
X28844716Y14916205D01*
X10525000Y14916205D01*
X10525000Y29167760D01*
X12094799Y30737560D01*
X12430000Y30737560D01*
X12665317Y30781838D01*
X12881441Y30920910D01*
X12962656Y31039773D01*
X13002637Y30999722D01*
X13603352Y30750284D01*
X14253795Y30749716D01*
X14254482Y30750000D01*
X44085000Y30750000D01*
X44085000Y25400005D01*
X44084999Y25400000D01*
X44209457Y24774312D01*
X44563880Y24243880D01*
X56883345Y11924416D01*
X56784999Y11430000D01*
X56909457Y10804312D01*
X57263880Y10273880D01*
X58533878Y9003883D01*
X58533880Y9003880D01*
X58744416Y8863205D01*
X59064312Y8649457D01*
X59690000Y8525000D01*
X60959995Y8525000D01*
X60960000Y8524999D01*
X60962569Y8525510D01*
X61502205Y8525510D01*
X61969783Y8618517D01*
X61865510Y8247380D01*
X61865510Y7747000D01*
X63373000Y7747000D01*
X63373000Y9590645D01*
X63627000Y9590645D01*
X63627000Y7747000D01*
X65134490Y7747000D01*
X65134490Y8247380D01*
X64961471Y8863205D01*
X64565956Y9365942D01*
X64008159Y9679053D01*
X63880354Y9709999D01*
X63627000Y9590645D01*
X63373000Y9590645D01*
X63119646Y9709999D01*
X63043518Y9691566D01*
X63136695Y10160000D01*
X63046485Y10613515D01*
X63500000Y10523305D01*
X64125492Y10647723D01*
X64655759Y11002036D01*
X65010072Y11532303D01*
X65134490Y12157795D01*
X65134490Y12697436D01*
X65135000Y12700000D01*
X65135000Y91439995D01*
X65135001Y91440000D01*
X65010543Y92065687D01*
X64998098Y92084313D01*
X64656120Y92596120D01*
X64656117Y92596122D01*
X60846120Y96406120D01*
X60315688Y96760543D01*
X59690000Y96885001D01*
X59689995Y96885000D01*
X45720000Y96885000D01*
X45717454Y96884493D01*
X45396306Y96884774D01*
X45096880Y96761054D01*
X45094313Y96760543D01*
X45092156Y96759102D01*
X44795345Y96636462D01*
X44566060Y96407577D01*
X44563880Y96406120D01*
X44562436Y96403959D01*
X44335154Y96177073D01*
X44210912Y95877864D01*
X44209457Y95875687D01*
X44208951Y95873141D01*
X44085794Y95576547D01*
X44085511Y95252569D01*
X44085000Y95250000D01*
X44085507Y95247454D01*
X44085226Y94926306D01*
X44208946Y94626880D01*
X44209457Y94624313D01*
X44210898Y94622156D01*
X44333538Y94325345D01*
X44562423Y94096060D01*
X44563880Y94093880D01*
X44566041Y94092436D01*
X44792927Y93865154D01*
X45092136Y93740912D01*
X45094313Y93739457D01*
X45096859Y93738951D01*
X45393453Y93615794D01*
X45717431Y93615511D01*
X45720000Y93615000D01*
X59012760Y93615000D01*
X61865000Y90762761D01*
X61865000Y32750000D01*
X58211431Y32750000D01*
X58150000Y32762440D01*
X56285000Y32762440D01*
X56285000Y32980000D01*
X56160543Y33605687D01*
X55806120Y34136120D01*
X55806117Y34136122D01*
X50686557Y39255683D01*
X50457363Y39485278D01*
X49856648Y39734716D01*
X49206205Y39735284D01*
X48605057Y39486894D01*
X48144722Y39027363D01*
X47895284Y38426648D01*
X47894716Y37776205D01*
X48143106Y37175057D01*
X48602637Y36714722D01*
X48603323Y36714437D01*
X53015000Y32302761D01*
X53015000Y31116426D01*
X53014716Y30791205D01*
X53263106Y30190057D01*
X53722637Y29729722D01*
X54323352Y29480284D01*
X54973795Y29479716D01*
X55574943Y29728106D01*
X55617219Y29770308D01*
X55685910Y29663559D01*
X55898110Y29518569D01*
X56150000Y29467560D01*
X58150000Y29467560D01*
X58216113Y29480000D01*
X61865000Y29480000D01*
X61865000Y12700000D01*
X61865510Y12697436D01*
X61865510Y12157795D01*
X61955720Y11704280D01*
X61671405Y11760834D01*
X47355000Y26077240D01*
X47355000Y38692760D01*
X59576117Y50913878D01*
X59576120Y50913880D01*
X59788581Y51231851D01*
X59930543Y51444312D01*
X60055000Y52070000D01*
X60055000Y87630000D01*
X59930543Y88255687D01*
X59576120Y88786120D01*
X59576117Y88786122D01*
X57036120Y91326120D01*
X56505688Y91680543D01*
X55880000Y91805001D01*
X55879995Y91805000D01*
X45127239Y91805000D01*
X42275000Y94657240D01*
X42275000Y95250000D01*
X42274493Y95252546D01*
X42274774Y95573694D01*
X42151054Y95873120D01*
X42150543Y95875687D01*
X42149102Y95877844D01*
X42026462Y96174655D01*
X41797577Y96403940D01*
X41796120Y96406120D01*
X41793959Y96407564D01*
X41567073Y96634846D01*
X41267864Y96759088D01*
X41265687Y96760543D01*
X41263141Y96761049D01*
X40966547Y96884206D01*
X40642569Y96884489D01*
X40640000Y96885000D01*
X40637454Y96884493D01*
X40316306Y96884774D01*
X40016880Y96761054D01*
X40014313Y96760543D01*
X40012156Y96759102D01*
X39715345Y96636462D01*
X39486060Y96407577D01*
X39483880Y96406120D01*
X39482436Y96403959D01*
X39255154Y96177073D01*
X39130912Y95877864D01*
X39129457Y95875687D01*
X39128951Y95873141D01*
X39005794Y95576547D01*
X39005511Y95252569D01*
X39005000Y95250000D01*
X39005000Y93980005D01*
X39004999Y93980000D01*
X39129457Y93354312D01*
X39483880Y92823880D01*
X43293878Y89013883D01*
X43293880Y89013880D01*
X43634748Y88786120D01*
X43824313Y88659457D01*
X44450000Y88534999D01*
X44450005Y88535000D01*
X55202760Y88535000D01*
X56785000Y86952761D01*
X56785000Y52747239D01*
X44563880Y40526120D01*
X44209457Y39995688D01*
X44084999Y39370000D01*
X44085000Y39369995D01*
X44085000Y34020000D01*
X13931426Y34020000D01*
X13606205Y34020284D01*
X13065000Y33796662D01*
X13065000Y37776205D01*
X21224716Y37776205D01*
X21473106Y37175057D01*
X21932637Y36714722D01*
X22533352Y36465284D01*
X23183795Y36464716D01*
X23184482Y36465000D01*
X38098573Y36465000D01*
X38423795Y36464716D01*
X39024943Y36713106D01*
X39485278Y37172637D01*
X39734716Y37773352D01*
X39735284Y38423795D01*
X39486894Y39024943D01*
X39027363Y39485278D01*
X38426648Y39734716D01*
X37776205Y39735284D01*
X37775518Y39735000D01*
X22861426Y39735000D01*
X22536205Y39735284D01*
X21935057Y39486894D01*
X21474722Y39027363D01*
X21225284Y38426648D01*
X21224716Y37776205D01*
X13065000Y37776205D01*
X13065000Y82550000D01*
X18684999Y82550000D01*
X18685000Y82549995D01*
X18685000Y67310005D01*
X18684999Y67310000D01*
X18809457Y66684312D01*
X19163880Y66153880D01*
X21703878Y63613883D01*
X21703880Y63613880D01*
X22234313Y63259457D01*
X22860000Y63135000D01*
X25400000Y63135000D01*
X25588827Y63172560D01*
X26400000Y63172560D01*
X26635317Y63216838D01*
X26851441Y63355910D01*
X26996431Y63568110D01*
X27047440Y63820000D01*
X27047440Y65675000D01*
X44072560Y65675000D01*
X44072560Y63820000D01*
X44116838Y63584683D01*
X44255910Y63368559D01*
X44468110Y63223569D01*
X44720000Y63172560D01*
X45531173Y63172560D01*
X45720000Y63135000D01*
X49529995Y63135000D01*
X49530000Y63134999D01*
X50155688Y63259457D01*
X50686120Y63613880D01*
X51956117Y64883878D01*
X51956120Y64883880D01*
X52298098Y65395687D01*
X52310543Y65414312D01*
X52435000Y66040000D01*
X52435000Y83820000D01*
X52366307Y84165345D01*
X52310543Y84445688D01*
X52098219Y84763453D01*
X51956120Y84976120D01*
X51956117Y84976122D01*
X50686120Y86246120D01*
X50155688Y86600543D01*
X49530000Y86725001D01*
X49529995Y86725000D01*
X45720000Y86725000D01*
X45717454Y86724493D01*
X45396306Y86724774D01*
X45096880Y86601054D01*
X45094313Y86600543D01*
X45092156Y86599102D01*
X44795345Y86476462D01*
X44566060Y86247577D01*
X44563880Y86246120D01*
X44562436Y86243959D01*
X44335154Y86017073D01*
X44210912Y85717864D01*
X44209457Y85715687D01*
X44208951Y85713141D01*
X44085794Y85416547D01*
X44085511Y85092569D01*
X44085000Y85090000D01*
X44085507Y85087454D01*
X44085226Y84766306D01*
X44208946Y84466880D01*
X44209457Y84464313D01*
X44210898Y84462156D01*
X44333538Y84165345D01*
X44562423Y83936060D01*
X44563880Y83933880D01*
X44566041Y83932436D01*
X44792927Y83705154D01*
X45092136Y83580912D01*
X45094313Y83579457D01*
X45096859Y83578951D01*
X45393453Y83455794D01*
X45717431Y83455511D01*
X45720000Y83455000D01*
X48852760Y83455000D01*
X49165000Y83142761D01*
X49165000Y66717239D01*
X48852760Y66405000D01*
X47056907Y66405000D01*
X47062914Y66410997D01*
X47087529Y66470276D01*
X47230543Y66684312D01*
X47280325Y66934582D01*
X47304724Y66993341D01*
X47304780Y67057524D01*
X47355001Y67310000D01*
X47305219Y67560267D01*
X47305275Y67623893D01*
X47280763Y67683216D01*
X47230543Y67935688D01*
X47088777Y68147855D01*
X47064481Y68206657D01*
X47019136Y68252081D01*
X46876120Y68466120D01*
X42275000Y73067240D01*
X42275000Y85090000D01*
X42274493Y85092546D01*
X42274774Y85413694D01*
X42151054Y85713120D01*
X42150543Y85715687D01*
X42149102Y85717844D01*
X42026462Y86014655D01*
X41797577Y86243940D01*
X41796120Y86246120D01*
X41793959Y86247564D01*
X41567073Y86474846D01*
X41267864Y86599088D01*
X41265687Y86600543D01*
X41263141Y86601049D01*
X40966547Y86724206D01*
X40642569Y86724489D01*
X40640000Y86725000D01*
X40637454Y86724493D01*
X40316306Y86724774D01*
X40016880Y86601054D01*
X40014313Y86600543D01*
X40012156Y86599102D01*
X39715345Y86476462D01*
X39486060Y86247577D01*
X39483880Y86246120D01*
X39482436Y86243959D01*
X39255154Y86017073D01*
X39130912Y85717864D01*
X39129457Y85715687D01*
X39128951Y85713141D01*
X39005794Y85416547D01*
X39005511Y85092569D01*
X39005000Y85090000D01*
X39005000Y72390005D01*
X39004999Y72390000D01*
X39129457Y71764312D01*
X39483880Y71233880D01*
X41772760Y68945000D01*
X29347240Y68945000D01*
X31636120Y71233880D01*
X31990543Y71764312D01*
X32115001Y72390000D01*
X32115000Y72390005D01*
X32115000Y85090000D01*
X32114493Y85092546D01*
X32114774Y85413694D01*
X31991054Y85713120D01*
X31990543Y85715687D01*
X31989102Y85717844D01*
X31866462Y86014655D01*
X31637577Y86243940D01*
X31636120Y86246120D01*
X31633959Y86247564D01*
X31407073Y86474846D01*
X31107864Y86599088D01*
X31105687Y86600543D01*
X31103141Y86601049D01*
X30806547Y86724206D01*
X30482569Y86724489D01*
X30480000Y86725000D01*
X30477454Y86724493D01*
X30156306Y86724774D01*
X29856880Y86601054D01*
X29854313Y86600543D01*
X29852156Y86599102D01*
X29555345Y86476462D01*
X29326060Y86247577D01*
X29323880Y86246120D01*
X29322436Y86243959D01*
X29095154Y86017073D01*
X28970912Y85717864D01*
X28969457Y85715687D01*
X28968951Y85713141D01*
X28845794Y85416547D01*
X28845511Y85092569D01*
X28845000Y85090000D01*
X28845000Y73067240D01*
X24243880Y68466120D01*
X24102115Y68253953D01*
X24057086Y68209003D01*
X24032471Y68149724D01*
X23889457Y67935688D01*
X23839675Y67685418D01*
X23815276Y67626659D01*
X23815220Y67562476D01*
X23764999Y67310000D01*
X23814781Y67059733D01*
X23814725Y66996107D01*
X23839237Y66936784D01*
X23889457Y66684312D01*
X24031223Y66472145D01*
X24055519Y66413343D01*
X24063847Y66405000D01*
X23537239Y66405000D01*
X21955000Y67987240D01*
X21955000Y81872760D01*
X23537239Y83455000D01*
X25400000Y83455000D01*
X25402546Y83455507D01*
X25723694Y83455226D01*
X26023120Y83578946D01*
X26025687Y83579457D01*
X26027844Y83580898D01*
X26324655Y83703538D01*
X26553940Y83932423D01*
X26556120Y83933880D01*
X26557564Y83936041D01*
X26784846Y84162927D01*
X26909088Y84462136D01*
X26910543Y84464313D01*
X26911049Y84466859D01*
X27034206Y84763453D01*
X27034489Y85087431D01*
X27035000Y85090000D01*
X27034493Y85092546D01*
X27034774Y85413694D01*
X26911054Y85713120D01*
X26910543Y85715687D01*
X26909102Y85717844D01*
X26786462Y86014655D01*
X26557577Y86243940D01*
X26556120Y86246120D01*
X26553959Y86247564D01*
X26327073Y86474846D01*
X26027864Y86599088D01*
X26025687Y86600543D01*
X26023141Y86601049D01*
X25726547Y86724206D01*
X25402569Y86724489D01*
X25400000Y86725000D01*
X22860000Y86725000D01*
X22234313Y86600543D01*
X21703880Y86246120D01*
X21703878Y86246117D01*
X19163880Y83706120D01*
X18809457Y83175688D01*
X18684999Y82550000D01*
X13065000Y82550000D01*
X13065000Y89492760D01*
X17187240Y93615000D01*
X25400000Y93615000D01*
X25402546Y93615507D01*
X25723694Y93615226D01*
X26023120Y93738946D01*
X26025687Y93739457D01*
X26027844Y93740898D01*
X26324655Y93863538D01*
X26553940Y94092423D01*
X26556120Y94093880D01*
X26557564Y94096041D01*
X26784846Y94322927D01*
X26909088Y94622136D01*
X26910543Y94624313D01*
X26911049Y94626859D01*
X27034206Y94923453D01*
X27034489Y95247431D01*
X27035000Y95250000D01*
X28845000Y95250000D01*
X28845507Y95247454D01*
X28845226Y94926306D01*
X28968946Y94626880D01*
X28969457Y94624313D01*
X28970898Y94622156D01*
X29093538Y94325345D01*
X29322423Y94096060D01*
X29323880Y94093880D01*
X29326041Y94092436D01*
X29552927Y93865154D01*
X29852136Y93740912D01*
X29854313Y93739457D01*
X29856859Y93738951D01*
X30153453Y93615794D01*
X30477431Y93615511D01*
X30480000Y93615000D01*
X32342760Y93615000D01*
X33925000Y92032761D01*
X33925000Y82551426D01*
X33924716Y82226205D01*
X34173106Y81625057D01*
X34632637Y81164722D01*
X35233352Y80915284D01*
X35883795Y80914716D01*
X36484943Y81163106D01*
X36945278Y81622637D01*
X37194716Y82223352D01*
X37195284Y82873795D01*
X37195000Y82874482D01*
X37195000Y92710000D01*
X37070543Y93335687D01*
X36716120Y93866120D01*
X36716117Y93866122D01*
X34176120Y96406120D01*
X33645688Y96760543D01*
X33020000Y96885001D01*
X33019995Y96885000D01*
X30480000Y96885000D01*
X30477454Y96884493D01*
X30156306Y96884774D01*
X29856880Y96761054D01*
X29854313Y96760543D01*
X29852156Y96759102D01*
X29555345Y96636462D01*
X29326060Y96407577D01*
X29323880Y96406120D01*
X29322436Y96403959D01*
X29095154Y96177073D01*
X28970912Y95877864D01*
X28969457Y95875687D01*
X28968951Y95873141D01*
X28845794Y95576547D01*
X28845511Y95252569D01*
X28845000Y95250000D01*
X27035000Y95250000D01*
X27034493Y95252546D01*
X27034774Y95573694D01*
X26911054Y95873120D01*
X26910543Y95875687D01*
X26909102Y95877844D01*
X26786462Y96174655D01*
X26557577Y96403940D01*
X26556120Y96406120D01*
X26553959Y96407564D01*
X26327073Y96634846D01*
X26027864Y96759088D01*
X26025687Y96760543D01*
X26023141Y96761049D01*
X25726547Y96884206D01*
X25402569Y96884489D01*
X25400000Y96885000D01*
X16510005Y96885000D01*
X16510000Y96885001D01*
X15884312Y96760543D01*
X15353880Y96406120D01*
X10273880Y91326120D01*
X9919457Y90795688D01*
X9794999Y90170000D01*
X9795000Y90169995D01*
X9795000Y33446431D01*
X9782560Y33385000D01*
X9782560Y33049799D01*
X7985000Y31252240D01*
X7985000Y36152760D01*
X8775111Y36942872D01*
X9005278Y37172637D01*
X9254716Y37773352D01*
X9255284Y38423795D01*
X9006894Y39024943D01*
X8547363Y39485278D01*
X7946648Y39734716D01*
X7296205Y39735284D01*
X6695057Y39486894D01*
X6234722Y39027363D01*
X6234437Y39026676D01*
X5193880Y37986120D01*
X4839457Y37455688D01*
X4714999Y36830000D01*
X4715000Y36829995D01*
X4715000Y11357830D01*
X4652036Y11315759D01*
X4297723Y10785492D01*
X4173305Y10160000D01*
X1980000Y10160000D01*
X1980000Y99620000D01*
X67870000Y99620000D01*
X67870000Y1980000D01*
X67870000Y1980000D01*
G37*
X67870000Y1980000D02*
X1980000Y1980000D01*
X1980000Y7493000D01*
X7255510Y7493000D01*
X7255510Y6992620D01*
X7428529Y6376795D01*
X7824044Y5874058D01*
X8381841Y5560947D01*
X8509646Y5530001D01*
X8763000Y5649355D01*
X8763000Y7493000D01*
X9017000Y7493000D01*
X9017000Y5649355D01*
X9270354Y5530001D01*
X9398159Y5560947D01*
X9955956Y5874058D01*
X10351471Y6376795D01*
X10524490Y6992620D01*
X10524490Y7493000D01*
X61865510Y7493000D01*
X61865510Y6992620D01*
X62038529Y6376795D01*
X62434044Y5874058D01*
X62991841Y5560947D01*
X63119646Y5530001D01*
X63373000Y5649355D01*
X63373000Y7493000D01*
X63627000Y7493000D01*
X63627000Y5649355D01*
X63880354Y5530001D01*
X64008159Y5560947D01*
X64565956Y5874058D01*
X64961471Y6376795D01*
X65134490Y6992620D01*
X65134490Y7493000D01*
X63627000Y7493000D01*
X63373000Y7493000D01*
X61865510Y7493000D01*
X10524490Y7493000D01*
X9017000Y7493000D01*
X8763000Y7493000D01*
X7255510Y7493000D01*
X1980000Y7493000D01*
X1980000Y10160000D01*
X4173305Y10160000D01*
X4297723Y9534508D01*
X4652036Y9004241D01*
X5182303Y8649928D01*
X5807795Y8525510D01*
X6347436Y8525510D01*
X6350000Y8525000D01*
X6352564Y8525510D01*
X6892205Y8525510D01*
X7359783Y8618517D01*
X7255510Y8247380D01*
X7255510Y7747000D01*
X8763000Y7747000D01*
X8763000Y9590645D01*
X9017000Y9590645D01*
X9017000Y7747000D01*
X10524490Y7747000D01*
X10524490Y8247380D01*
X10351471Y8863205D01*
X9955956Y9365942D01*
X9398159Y9679053D01*
X9270354Y9709999D01*
X9017000Y9590645D01*
X8763000Y9590645D01*
X8509646Y9709999D01*
X8433518Y9691566D01*
X8526695Y10160000D01*
X8436485Y10613515D01*
X8890000Y10523305D01*
X9515492Y10647723D01*
X10045759Y11002036D01*
X10400072Y11532303D01*
X10524490Y12157795D01*
X10524490Y12697436D01*
X10525000Y12700000D01*
X10525000Y14916205D01*
X28844716Y14916205D01*
X29093106Y14315057D01*
X29552637Y13854722D01*
X30153352Y13605284D01*
X30803795Y13604716D01*
X30804482Y13605000D01*
X33212978Y13605000D01*
X33308458Y13462104D01*
X33758793Y13161200D01*
X34290000Y13055536D01*
X34821207Y13161200D01*
X35271542Y13462104D01*
X35572446Y13912439D01*
X35573016Y13915306D01*
X35596154Y13837081D01*
X35938260Y13414276D01*
X36416125Y13154573D01*
X36488326Y13140217D01*
X36703000Y13262838D01*
X36703000Y15113000D01*
X36957000Y15113000D01*
X36957000Y13262838D01*
X37171674Y13140217D01*
X37243875Y13154573D01*
X37721740Y13414276D01*
X38063846Y13837081D01*
X38218110Y14358620D01*
X38218110Y15113000D01*
X36957000Y15113000D01*
X36703000Y15113000D01*
X36683000Y15113000D01*
X36683000Y15367000D01*
X36703000Y15367000D01*
X36703000Y17217162D01*
X36957000Y17217162D01*
X36957000Y15367000D01*
X38218110Y15367000D01*
X38218110Y16121380D01*
X38063846Y16642919D01*
X37721740Y17065724D01*
X37243875Y17325427D01*
X37171674Y17339783D01*
X36957000Y17217162D01*
X36703000Y17217162D01*
X36488326Y17339783D01*
X36416125Y17325427D01*
X35938260Y17065724D01*
X35596154Y16642919D01*
X35573016Y16564694D01*
X35572446Y16567561D01*
X35271542Y17017896D01*
X34821207Y17318800D01*
X34290000Y17424464D01*
X33758793Y17318800D01*
X33308458Y17017896D01*
X33212978Y16875000D01*
X30481426Y16875000D01*
X30156205Y16875284D01*
X29555057Y16626894D01*
X29094722Y16167363D01*
X28845284Y15566648D01*
X28844716Y14916205D01*
X10525000Y14916205D01*
X10525000Y29167760D01*
X12094799Y30737560D01*
X12430000Y30737560D01*
X12665317Y30781838D01*
X12881441Y30920910D01*
X12962656Y31039773D01*
X13002637Y30999722D01*
X13603352Y30750284D01*
X14253795Y30749716D01*
X14254482Y30750000D01*
X44085000Y30750000D01*
X44085000Y25400005D01*
X44084999Y25400000D01*
X44209457Y24774312D01*
X44563880Y24243880D01*
X56883345Y11924416D01*
X56784999Y11430000D01*
X56909457Y10804312D01*
X57263880Y10273880D01*
X58533878Y9003883D01*
X58533880Y9003880D01*
X58744416Y8863205D01*
X59064312Y8649457D01*
X59690000Y8525000D01*
X60959995Y8525000D01*
X60960000Y8524999D01*
X60962569Y8525510D01*
X61502205Y8525510D01*
X61969783Y8618517D01*
X61865510Y8247380D01*
X61865510Y7747000D01*
X63373000Y7747000D01*
X63373000Y9590645D01*
X63627000Y9590645D01*
X63627000Y7747000D01*
X65134490Y7747000D01*
X65134490Y8247380D01*
X64961471Y8863205D01*
X64565956Y9365942D01*
X64008159Y9679053D01*
X63880354Y9709999D01*
X63627000Y9590645D01*
X63373000Y9590645D01*
X63119646Y9709999D01*
X63043518Y9691566D01*
X63136695Y10160000D01*
X63046485Y10613515D01*
X63500000Y10523305D01*
X64125492Y10647723D01*
X64655759Y11002036D01*
X65010072Y11532303D01*
X65134490Y12157795D01*
X65134490Y12697436D01*
X65135000Y12700000D01*
X65135000Y91439995D01*
X65135001Y91440000D01*
X65010543Y92065687D01*
X64998098Y92084313D01*
X64656120Y92596120D01*
X64656117Y92596122D01*
X60846120Y96406120D01*
X60315688Y96760543D01*
X59690000Y96885001D01*
X59689995Y96885000D01*
X45720000Y96885000D01*
X45717454Y96884493D01*
X45396306Y96884774D01*
X45096880Y96761054D01*
X45094313Y96760543D01*
X45092156Y96759102D01*
X44795345Y96636462D01*
X44566060Y96407577D01*
X44563880Y96406120D01*
X44562436Y96403959D01*
X44335154Y96177073D01*
X44210912Y95877864D01*
X44209457Y95875687D01*
X44208951Y95873141D01*
X44085794Y95576547D01*
X44085511Y95252569D01*
X44085000Y95250000D01*
X44085507Y95247454D01*
X44085226Y94926306D01*
X44208946Y94626880D01*
X44209457Y94624313D01*
X44210898Y94622156D01*
X44333538Y94325345D01*
X44562423Y94096060D01*
X44563880Y94093880D01*
X44566041Y94092436D01*
X44792927Y93865154D01*
X45092136Y93740912D01*
X45094313Y93739457D01*
X45096859Y93738951D01*
X45393453Y93615794D01*
X45717431Y93615511D01*
X45720000Y93615000D01*
X59012760Y93615000D01*
X61865000Y90762761D01*
X61865000Y32750000D01*
X58211431Y32750000D01*
X58150000Y32762440D01*
X56285000Y32762440D01*
X56285000Y32980000D01*
X56160543Y33605687D01*
X55806120Y34136120D01*
X55806117Y34136122D01*
X50686557Y39255683D01*
X50457363Y39485278D01*
X49856648Y39734716D01*
X49206205Y39735284D01*
X48605057Y39486894D01*
X48144722Y39027363D01*
X47895284Y38426648D01*
X47894716Y37776205D01*
X48143106Y37175057D01*
X48602637Y36714722D01*
X48603323Y36714437D01*
X53015000Y32302761D01*
X53015000Y31116426D01*
X53014716Y30791205D01*
X53263106Y30190057D01*
X53722637Y29729722D01*
X54323352Y29480284D01*
X54973795Y29479716D01*
X55574943Y29728106D01*
X55617219Y29770308D01*
X55685910Y29663559D01*
X55898110Y29518569D01*
X56150000Y29467560D01*
X58150000Y29467560D01*
X58216113Y29480000D01*
X61865000Y29480000D01*
X61865000Y12700000D01*
X61865510Y12697436D01*
X61865510Y12157795D01*
X61955720Y11704280D01*
X61671405Y11760834D01*
X47355000Y26077240D01*
X47355000Y38692760D01*
X59576117Y50913878D01*
X59576120Y50913880D01*
X59788581Y51231851D01*
X59930543Y51444312D01*
X60055000Y52070000D01*
X60055000Y87630000D01*
X59930543Y88255687D01*
X59576120Y88786120D01*
X59576117Y88786122D01*
X57036120Y91326120D01*
X56505688Y91680543D01*
X55880000Y91805001D01*
X55879995Y91805000D01*
X45127239Y91805000D01*
X42275000Y94657240D01*
X42275000Y95250000D01*
X42274493Y95252546D01*
X42274774Y95573694D01*
X42151054Y95873120D01*
X42150543Y95875687D01*
X42149102Y95877844D01*
X42026462Y96174655D01*
X41797577Y96403940D01*
X41796120Y96406120D01*
X41793959Y96407564D01*
X41567073Y96634846D01*
X41267864Y96759088D01*
X41265687Y96760543D01*
X41263141Y96761049D01*
X40966547Y96884206D01*
X40642569Y96884489D01*
X40640000Y96885000D01*
X40637454Y96884493D01*
X40316306Y96884774D01*
X40016880Y96761054D01*
X40014313Y96760543D01*
X40012156Y96759102D01*
X39715345Y96636462D01*
X39486060Y96407577D01*
X39483880Y96406120D01*
X39482436Y96403959D01*
X39255154Y96177073D01*
X39130912Y95877864D01*
X39129457Y95875687D01*
X39128951Y95873141D01*
X39005794Y95576547D01*
X39005511Y95252569D01*
X39005000Y95250000D01*
X39005000Y93980005D01*
X39004999Y93980000D01*
X39129457Y93354312D01*
X39483880Y92823880D01*
X43293878Y89013883D01*
X43293880Y89013880D01*
X43634748Y88786120D01*
X43824313Y88659457D01*
X44450000Y88534999D01*
X44450005Y88535000D01*
X55202760Y88535000D01*
X56785000Y86952761D01*
X56785000Y52747239D01*
X44563880Y40526120D01*
X44209457Y39995688D01*
X44084999Y39370000D01*
X44085000Y39369995D01*
X44085000Y34020000D01*
X13931426Y34020000D01*
X13606205Y34020284D01*
X13065000Y33796662D01*
X13065000Y37776205D01*
X21224716Y37776205D01*
X21473106Y37175057D01*
X21932637Y36714722D01*
X22533352Y36465284D01*
X23183795Y36464716D01*
X23184482Y36465000D01*
X38098573Y36465000D01*
X38423795Y36464716D01*
X39024943Y36713106D01*
X39485278Y37172637D01*
X39734716Y37773352D01*
X39735284Y38423795D01*
X39486894Y39024943D01*
X39027363Y39485278D01*
X38426648Y39734716D01*
X37776205Y39735284D01*
X37775518Y39735000D01*
X22861426Y39735000D01*
X22536205Y39735284D01*
X21935057Y39486894D01*
X21474722Y39027363D01*
X21225284Y38426648D01*
X21224716Y37776205D01*
X13065000Y37776205D01*
X13065000Y82550000D01*
X18684999Y82550000D01*
X18685000Y82549995D01*
X18685000Y67310005D01*
X18684999Y67310000D01*
X18809457Y66684312D01*
X19163880Y66153880D01*
X21703878Y63613883D01*
X21703880Y63613880D01*
X22234313Y63259457D01*
X22860000Y63135000D01*
X25400000Y63135000D01*
X25588827Y63172560D01*
X26400000Y63172560D01*
X26635317Y63216838D01*
X26851441Y63355910D01*
X26996431Y63568110D01*
X27047440Y63820000D01*
X27047440Y65675000D01*
X44072560Y65675000D01*
X44072560Y63820000D01*
X44116838Y63584683D01*
X44255910Y63368559D01*
X44468110Y63223569D01*
X44720000Y63172560D01*
X45531173Y63172560D01*
X45720000Y63135000D01*
X49529995Y63135000D01*
X49530000Y63134999D01*
X50155688Y63259457D01*
X50686120Y63613880D01*
X51956117Y64883878D01*
X51956120Y64883880D01*
X52298098Y65395687D01*
X52310543Y65414312D01*
X52435000Y66040000D01*
X52435000Y83820000D01*
X52366307Y84165345D01*
X52310543Y84445688D01*
X52098219Y84763453D01*
X51956120Y84976120D01*
X51956117Y84976122D01*
X50686120Y86246120D01*
X50155688Y86600543D01*
X49530000Y86725001D01*
X49529995Y86725000D01*
X45720000Y86725000D01*
X45717454Y86724493D01*
X45396306Y86724774D01*
X45096880Y86601054D01*
X45094313Y86600543D01*
X45092156Y86599102D01*
X44795345Y86476462D01*
X44566060Y86247577D01*
X44563880Y86246120D01*
X44562436Y86243959D01*
X44335154Y86017073D01*
X44210912Y85717864D01*
X44209457Y85715687D01*
X44208951Y85713141D01*
X44085794Y85416547D01*
X44085511Y85092569D01*
X44085000Y85090000D01*
X44085507Y85087454D01*
X44085226Y84766306D01*
X44208946Y84466880D01*
X44209457Y84464313D01*
X44210898Y84462156D01*
X44333538Y84165345D01*
X44562423Y83936060D01*
X44563880Y83933880D01*
X44566041Y83932436D01*
X44792927Y83705154D01*
X45092136Y83580912D01*
X45094313Y83579457D01*
X45096859Y83578951D01*
X45393453Y83455794D01*
X45717431Y83455511D01*
X45720000Y83455000D01*
X48852760Y83455000D01*
X49165000Y83142761D01*
X49165000Y66717239D01*
X48852760Y66405000D01*
X47056907Y66405000D01*
X47062914Y66410997D01*
X47087529Y66470276D01*
X47230543Y66684312D01*
X47280325Y66934582D01*
X47304724Y66993341D01*
X47304780Y67057524D01*
X47355001Y67310000D01*
X47305219Y67560267D01*
X47305275Y67623893D01*
X47280763Y67683216D01*
X47230543Y67935688D01*
X47088777Y68147855D01*
X47064481Y68206657D01*
X47019136Y68252081D01*
X46876120Y68466120D01*
X42275000Y73067240D01*
X42275000Y85090000D01*
X42274493Y85092546D01*
X42274774Y85413694D01*
X42151054Y85713120D01*
X42150543Y85715687D01*
X42149102Y85717844D01*
X42026462Y86014655D01*
X41797577Y86243940D01*
X41796120Y86246120D01*
X41793959Y86247564D01*
X41567073Y86474846D01*
X41267864Y86599088D01*
X41265687Y86600543D01*
X41263141Y86601049D01*
X40966547Y86724206D01*
X40642569Y86724489D01*
X40640000Y86725000D01*
X40637454Y86724493D01*
X40316306Y86724774D01*
X40016880Y86601054D01*
X40014313Y86600543D01*
X40012156Y86599102D01*
X39715345Y86476462D01*
X39486060Y86247577D01*
X39483880Y86246120D01*
X39482436Y86243959D01*
X39255154Y86017073D01*
X39130912Y85717864D01*
X39129457Y85715687D01*
X39128951Y85713141D01*
X39005794Y85416547D01*
X39005511Y85092569D01*
X39005000Y85090000D01*
X39005000Y72390005D01*
X39004999Y72390000D01*
X39129457Y71764312D01*
X39483880Y71233880D01*
X41772760Y68945000D01*
X29347240Y68945000D01*
X31636120Y71233880D01*
X31990543Y71764312D01*
X32115001Y72390000D01*
X32115000Y72390005D01*
X32115000Y85090000D01*
X32114493Y85092546D01*
X32114774Y85413694D01*
X31991054Y85713120D01*
X31990543Y85715687D01*
X31989102Y85717844D01*
X31866462Y86014655D01*
X31637577Y86243940D01*
X31636120Y86246120D01*
X31633959Y86247564D01*
X31407073Y86474846D01*
X31107864Y86599088D01*
X31105687Y86600543D01*
X31103141Y86601049D01*
X30806547Y86724206D01*
X30482569Y86724489D01*
X30480000Y86725000D01*
X30477454Y86724493D01*
X30156306Y86724774D01*
X29856880Y86601054D01*
X29854313Y86600543D01*
X29852156Y86599102D01*
X29555345Y86476462D01*
X29326060Y86247577D01*
X29323880Y86246120D01*
X29322436Y86243959D01*
X29095154Y86017073D01*
X28970912Y85717864D01*
X28969457Y85715687D01*
X28968951Y85713141D01*
X28845794Y85416547D01*
X28845511Y85092569D01*
X28845000Y85090000D01*
X28845000Y73067240D01*
X24243880Y68466120D01*
X24102115Y68253953D01*
X24057086Y68209003D01*
X24032471Y68149724D01*
X23889457Y67935688D01*
X23839675Y67685418D01*
X23815276Y67626659D01*
X23815220Y67562476D01*
X23764999Y67310000D01*
X23814781Y67059733D01*
X23814725Y66996107D01*
X23839237Y66936784D01*
X23889457Y66684312D01*
X24031223Y66472145D01*
X24055519Y66413343D01*
X24063847Y66405000D01*
X23537239Y66405000D01*
X21955000Y67987240D01*
X21955000Y81872760D01*
X23537239Y83455000D01*
X25400000Y83455000D01*
X25402546Y83455507D01*
X25723694Y83455226D01*
X26023120Y83578946D01*
X26025687Y83579457D01*
X26027844Y83580898D01*
X26324655Y83703538D01*
X26553940Y83932423D01*
X26556120Y83933880D01*
X26557564Y83936041D01*
X26784846Y84162927D01*
X26909088Y84462136D01*
X26910543Y84464313D01*
X26911049Y84466859D01*
X27034206Y84763453D01*
X27034489Y85087431D01*
X27035000Y85090000D01*
X27034493Y85092546D01*
X27034774Y85413694D01*
X26911054Y85713120D01*
X26910543Y85715687D01*
X26909102Y85717844D01*
X26786462Y86014655D01*
X26557577Y86243940D01*
X26556120Y86246120D01*
X26553959Y86247564D01*
X26327073Y86474846D01*
X26027864Y86599088D01*
X26025687Y86600543D01*
X26023141Y86601049D01*
X25726547Y86724206D01*
X25402569Y86724489D01*
X25400000Y86725000D01*
X22860000Y86725000D01*
X22234313Y86600543D01*
X21703880Y86246120D01*
X21703878Y86246117D01*
X19163880Y83706120D01*
X18809457Y83175688D01*
X18684999Y82550000D01*
X13065000Y82550000D01*
X13065000Y89492760D01*
X17187240Y93615000D01*
X25400000Y93615000D01*
X25402546Y93615507D01*
X25723694Y93615226D01*
X26023120Y93738946D01*
X26025687Y93739457D01*
X26027844Y93740898D01*
X26324655Y93863538D01*
X26553940Y94092423D01*
X26556120Y94093880D01*
X26557564Y94096041D01*
X26784846Y94322927D01*
X26909088Y94622136D01*
X26910543Y94624313D01*
X26911049Y94626859D01*
X27034206Y94923453D01*
X27034489Y95247431D01*
X27035000Y95250000D01*
X28845000Y95250000D01*
X28845507Y95247454D01*
X28845226Y94926306D01*
X28968946Y94626880D01*
X28969457Y94624313D01*
X28970898Y94622156D01*
X29093538Y94325345D01*
X29322423Y94096060D01*
X29323880Y94093880D01*
X29326041Y94092436D01*
X29552927Y93865154D01*
X29852136Y93740912D01*
X29854313Y93739457D01*
X29856859Y93738951D01*
X30153453Y93615794D01*
X30477431Y93615511D01*
X30480000Y93615000D01*
X32342760Y93615000D01*
X33925000Y92032761D01*
X33925000Y82551426D01*
X33924716Y82226205D01*
X34173106Y81625057D01*
X34632637Y81164722D01*
X35233352Y80915284D01*
X35883795Y80914716D01*
X36484943Y81163106D01*
X36945278Y81622637D01*
X37194716Y82223352D01*
X37195284Y82873795D01*
X37195000Y82874482D01*
X37195000Y92710000D01*
X37070543Y93335687D01*
X36716120Y93866120D01*
X36716117Y93866122D01*
X34176120Y96406120D01*
X33645688Y96760543D01*
X33020000Y96885001D01*
X33019995Y96885000D01*
X30480000Y96885000D01*
X30477454Y96884493D01*
X30156306Y96884774D01*
X29856880Y96761054D01*
X29854313Y96760543D01*
X29852156Y96759102D01*
X29555345Y96636462D01*
X29326060Y96407577D01*
X29323880Y96406120D01*
X29322436Y96403959D01*
X29095154Y96177073D01*
X28970912Y95877864D01*
X28969457Y95875687D01*
X28968951Y95873141D01*
X28845794Y95576547D01*
X28845511Y95252569D01*
X28845000Y95250000D01*
X27035000Y95250000D01*
X27034493Y95252546D01*
X27034774Y95573694D01*
X26911054Y95873120D01*
X26910543Y95875687D01*
X26909102Y95877844D01*
X26786462Y96174655D01*
X26557577Y96403940D01*
X26556120Y96406120D01*
X26553959Y96407564D01*
X26327073Y96634846D01*
X26027864Y96759088D01*
X26025687Y96760543D01*
X26023141Y96761049D01*
X25726547Y96884206D01*
X25402569Y96884489D01*
X25400000Y96885000D01*
X16510005Y96885000D01*
X16510000Y96885001D01*
X15884312Y96760543D01*
X15353880Y96406120D01*
X10273880Y91326120D01*
X9919457Y90795688D01*
X9794999Y90170000D01*
X9795000Y90169995D01*
X9795000Y33446431D01*
X9782560Y33385000D01*
X9782560Y33049799D01*
X7985000Y31252240D01*
X7985000Y36152760D01*
X8775111Y36942872D01*
X9005278Y37172637D01*
X9254716Y37773352D01*
X9255284Y38423795D01*
X9006894Y39024943D01*
X8547363Y39485278D01*
X7946648Y39734716D01*
X7296205Y39735284D01*
X6695057Y39486894D01*
X6234722Y39027363D01*
X6234437Y39026676D01*
X5193880Y37986120D01*
X4839457Y37455688D01*
X4714999Y36830000D01*
X4715000Y36829995D01*
X4715000Y11357830D01*
X4652036Y11315759D01*
X4297723Y10785492D01*
X4173305Y10160000D01*
X1980000Y10160000D01*
X1980000Y99620000D01*
X67870000Y99620000D01*
X67870000Y1980000D01*
M02*
