M48
;DRILL file {KiCad 4.0.5-e0-6337~49~ubuntu16.04.1} date Wed Dec 28 20:02:59 2016
;FORMAT={-:-/ absolute / metric / decimal}
FMAT,2
METRIC,TZ
T1C0.800
T2C0.998
T3C1.000
T4C1.001
%
G90
G05
M71
T1
X11.43Y32.385
X13.93Y32.385
X54.65Y31.115
X57.15Y31.115
T2
X34.29Y15.24
X36.83Y15.24
T3
X6.35Y10.16
X7.62Y38.1
X8.89Y12.7
X8.89Y7.62
X22.86Y38.1
X30.48Y15.24
X35.56Y82.55
X38.1Y38.1
X49.53Y38.1
X60.96Y10.16
X63.5Y12.7
X63.5Y7.62
T4
X25.4Y95.25
X25.4Y85.09
X25.4Y67.31
X25.4Y64.77
X30.48Y95.25
X30.48Y85.09
X40.64Y95.25
X40.64Y85.09
X45.72Y95.25
X45.72Y85.09
X45.72Y67.31
X45.72Y64.77
T0
M30
