G04 #@! TF.FileFunction,Copper,L1,Top,Signal*
%FSLAX46Y46*%
G04 Gerber Fmt 4.6, Leading zero omitted, Abs format (unit mm)*
G04 Created by KiCad (PCBNEW 4.0.5-e0-6337~49~ubuntu16.04.1) date Wed Dec 28 20:02:50 2016*
%MOMM*%
%LPD*%
G01*
G04 APERTURE LIST*
%ADD10C,0.200000*%
%ADD11R,2.000000X1.900000*%
%ADD12C,1.900000*%
%ADD13C,1.998980*%
%ADD14O,2.999740X1.998980*%
%ADD15O,1.998980X2.999740*%
%ADD16R,2.000000X2.000000*%
%ADD17C,2.000000*%
%ADD18O,1.506220X3.014980*%
%ADD19C,2.000000*%
%ADD20C,0.254000*%
G04 APERTURE END LIST*
D10*
D11*
X25400000Y64770000D03*
D12*
X25400000Y67310000D03*
D11*
X45720000Y64770000D03*
D12*
X45720000Y67310000D03*
D13*
X25400000Y85090000D03*
X25400000Y95250000D03*
X30480000Y85090000D03*
X30480000Y95250000D03*
X40640000Y85090000D03*
X40640000Y95250000D03*
X45720000Y85090000D03*
X45720000Y95250000D03*
D14*
X6350000Y10160000D03*
D15*
X8890000Y7620000D03*
X8890000Y12700000D03*
D14*
X60960000Y10160000D03*
D15*
X63500000Y7620000D03*
X63500000Y12700000D03*
D16*
X57150000Y31115000D03*
D17*
X54650000Y31115000D03*
D16*
X11430000Y32385000D03*
D17*
X13930000Y32385000D03*
D18*
X34290000Y15240000D03*
X36830000Y15240000D03*
D17*
X38100000Y38100000D03*
X22860000Y38100000D03*
X7620000Y38100000D03*
X35560000Y82550000D03*
X49530000Y38100000D03*
X30480000Y15240000D03*
D19*
X38100000Y38100000D02*
X49530000Y38100000D01*
X7620000Y38100000D02*
X22860000Y38100000D01*
X35560000Y52070000D02*
X35560000Y82550000D01*
X49530000Y38100000D02*
X35560000Y52070000D01*
X30480000Y67310000D02*
X25400000Y67310000D01*
X30480000Y15240000D02*
X30480000Y67310000D01*
D20*
G36*
X67870000Y1980000D02*
X1980000Y1980000D01*
X1980000Y7493000D01*
X7255510Y7493000D01*
X7255510Y6992620D01*
X7428529Y6376795D01*
X7824044Y5874058D01*
X8381841Y5560947D01*
X8509646Y5530001D01*
X8763000Y5649355D01*
X8763000Y7493000D01*
X9017000Y7493000D01*
X9017000Y5649355D01*
X9270354Y5530001D01*
X9398159Y5560947D01*
X9955956Y5874058D01*
X10351471Y6376795D01*
X10524490Y6992620D01*
X10524490Y7493000D01*
X61865510Y7493000D01*
X61865510Y6992620D01*
X62038529Y6376795D01*
X62434044Y5874058D01*
X62991841Y5560947D01*
X63119646Y5530001D01*
X63373000Y5649355D01*
X63373000Y7493000D01*
X63627000Y7493000D01*
X63627000Y5649355D01*
X63880354Y5530001D01*
X64008159Y5560947D01*
X64565956Y5874058D01*
X64961471Y6376795D01*
X65134490Y6992620D01*
X65134490Y7493000D01*
X63627000Y7493000D01*
X63373000Y7493000D01*
X61865510Y7493000D01*
X10524490Y7493000D01*
X9017000Y7493000D01*
X8763000Y7493000D01*
X7255510Y7493000D01*
X1980000Y7493000D01*
X1980000Y10160000D01*
X4173305Y10160000D01*
X4297723Y9534508D01*
X4652036Y9004241D01*
X5182303Y8649928D01*
X5807795Y8525510D01*
X6892205Y8525510D01*
X7359783Y8618517D01*
X7255510Y8247380D01*
X7255510Y7747000D01*
X8763000Y7747000D01*
X8763000Y9590645D01*
X9017000Y9590645D01*
X9017000Y7747000D01*
X10524490Y7747000D01*
X10524490Y8247380D01*
X10351471Y8863205D01*
X9955956Y9365942D01*
X9398159Y9679053D01*
X9270354Y9709999D01*
X9017000Y9590645D01*
X8763000Y9590645D01*
X8509646Y9709999D01*
X8433518Y9691566D01*
X8526695Y10160000D01*
X58783305Y10160000D01*
X58907723Y9534508D01*
X59262036Y9004241D01*
X59792303Y8649928D01*
X60417795Y8525510D01*
X61502205Y8525510D01*
X61969783Y8618517D01*
X61865510Y8247380D01*
X61865510Y7747000D01*
X63373000Y7747000D01*
X63373000Y9590645D01*
X63627000Y9590645D01*
X63627000Y7747000D01*
X65134490Y7747000D01*
X65134490Y8247380D01*
X64961471Y8863205D01*
X64565956Y9365942D01*
X64008159Y9679053D01*
X63880354Y9709999D01*
X63627000Y9590645D01*
X63373000Y9590645D01*
X63119646Y9709999D01*
X63043518Y9691566D01*
X63136695Y10160000D01*
X63046485Y10613515D01*
X63500000Y10523305D01*
X64125492Y10647723D01*
X64655759Y11002036D01*
X65010072Y11532303D01*
X65134490Y12157795D01*
X65134490Y13242205D01*
X65010072Y13867697D01*
X64655759Y14397964D01*
X64125492Y14752277D01*
X63500000Y14876695D01*
X62874508Y14752277D01*
X62344241Y14397964D01*
X61989928Y13867697D01*
X61865510Y13242205D01*
X61865510Y12157795D01*
X61955720Y11704280D01*
X61502205Y11794490D01*
X60417795Y11794490D01*
X59792303Y11670072D01*
X59262036Y11315759D01*
X58907723Y10785492D01*
X58783305Y10160000D01*
X8526695Y10160000D01*
X8436485Y10613515D01*
X8890000Y10523305D01*
X9515492Y10647723D01*
X10045759Y11002036D01*
X10400072Y11532303D01*
X10524490Y12157795D01*
X10524490Y13242205D01*
X10400072Y13867697D01*
X10045759Y14397964D01*
X9515492Y14752277D01*
X8890000Y14876695D01*
X8264508Y14752277D01*
X7734241Y14397964D01*
X7379928Y13867697D01*
X7255510Y13242205D01*
X7255510Y12157795D01*
X7345720Y11704280D01*
X6892205Y11794490D01*
X5807795Y11794490D01*
X5182303Y11670072D01*
X4652036Y11315759D01*
X4297723Y10785492D01*
X4173305Y10160000D01*
X1980000Y10160000D01*
X1980000Y33385000D01*
X9782560Y33385000D01*
X9782560Y31385000D01*
X9826838Y31149683D01*
X9965910Y30933559D01*
X10178110Y30788569D01*
X10430000Y30737560D01*
X12430000Y30737560D01*
X12665317Y30781838D01*
X12881441Y30920910D01*
X12962656Y31039773D01*
X13002637Y30999722D01*
X13603352Y30750284D01*
X14253795Y30749716D01*
X14854943Y30998106D01*
X15315278Y31457637D01*
X15564716Y32058352D01*
X15565284Y32708795D01*
X15316894Y33309943D01*
X14857363Y33770278D01*
X14256648Y34019716D01*
X13606205Y34020284D01*
X13005057Y33771894D01*
X12962781Y33729692D01*
X12894090Y33836441D01*
X12681890Y33981431D01*
X12430000Y34032440D01*
X10430000Y34032440D01*
X10194683Y33988162D01*
X9978559Y33849090D01*
X9833569Y33636890D01*
X9782560Y33385000D01*
X1980000Y33385000D01*
X1980000Y37776205D01*
X5984716Y37776205D01*
X6233106Y37175057D01*
X6692637Y36714722D01*
X7293352Y36465284D01*
X7943795Y36464716D01*
X7944482Y36465000D01*
X22858573Y36465000D01*
X23183795Y36464716D01*
X23784943Y36713106D01*
X24245278Y37172637D01*
X24494716Y37773352D01*
X24495284Y38423795D01*
X24246894Y39024943D01*
X23787363Y39485278D01*
X23186648Y39734716D01*
X22536205Y39735284D01*
X22535518Y39735000D01*
X7621426Y39735000D01*
X7296205Y39735284D01*
X6695057Y39486894D01*
X6234722Y39027363D01*
X5985284Y38426648D01*
X5984716Y37776205D01*
X1980000Y37776205D01*
X1980000Y65720000D01*
X23752560Y65720000D01*
X23752560Y63820000D01*
X23796838Y63584683D01*
X23935910Y63368559D01*
X24148110Y63223569D01*
X24400000Y63172560D01*
X26400000Y63172560D01*
X26635317Y63216838D01*
X26851441Y63355910D01*
X26996431Y63568110D01*
X27047440Y63820000D01*
X27047440Y65675000D01*
X28845000Y65675000D01*
X28845000Y15241426D01*
X28844716Y14916205D01*
X29093106Y14315057D01*
X29552637Y13854722D01*
X30153352Y13605284D01*
X30803795Y13604716D01*
X31404943Y13853106D01*
X31865278Y14312637D01*
X32114716Y14913352D01*
X32115284Y15563795D01*
X32115000Y15564482D01*
X32115000Y16036354D01*
X32901890Y16036354D01*
X32901890Y14443646D01*
X33007554Y13912439D01*
X33308458Y13462104D01*
X33758793Y13161200D01*
X34290000Y13055536D01*
X34821207Y13161200D01*
X35271542Y13462104D01*
X35572446Y13912439D01*
X35573016Y13915306D01*
X35596154Y13837081D01*
X35938260Y13414276D01*
X36416125Y13154573D01*
X36488326Y13140217D01*
X36703000Y13262838D01*
X36703000Y15113000D01*
X36957000Y15113000D01*
X36957000Y13262838D01*
X37171674Y13140217D01*
X37243875Y13154573D01*
X37721740Y13414276D01*
X38063846Y13837081D01*
X38218110Y14358620D01*
X38218110Y15113000D01*
X36957000Y15113000D01*
X36703000Y15113000D01*
X36683000Y15113000D01*
X36683000Y15367000D01*
X36703000Y15367000D01*
X36703000Y17217162D01*
X36957000Y17217162D01*
X36957000Y15367000D01*
X38218110Y15367000D01*
X38218110Y16121380D01*
X38063846Y16642919D01*
X37721740Y17065724D01*
X37243875Y17325427D01*
X37171674Y17339783D01*
X36957000Y17217162D01*
X36703000Y17217162D01*
X36488326Y17339783D01*
X36416125Y17325427D01*
X35938260Y17065724D01*
X35596154Y16642919D01*
X35573016Y16564694D01*
X35572446Y16567561D01*
X35271542Y17017896D01*
X34821207Y17318800D01*
X34290000Y17424464D01*
X33758793Y17318800D01*
X33308458Y17017896D01*
X33007554Y16567561D01*
X32901890Y16036354D01*
X32115000Y16036354D01*
X32115000Y30791205D01*
X53014716Y30791205D01*
X53263106Y30190057D01*
X53722637Y29729722D01*
X54323352Y29480284D01*
X54973795Y29479716D01*
X55574943Y29728106D01*
X55617219Y29770308D01*
X55685910Y29663559D01*
X55898110Y29518569D01*
X56150000Y29467560D01*
X58150000Y29467560D01*
X58385317Y29511838D01*
X58601441Y29650910D01*
X58746431Y29863110D01*
X58797440Y30115000D01*
X58797440Y32115000D01*
X58753162Y32350317D01*
X58614090Y32566441D01*
X58401890Y32711431D01*
X58150000Y32762440D01*
X56150000Y32762440D01*
X55914683Y32718162D01*
X55698559Y32579090D01*
X55617344Y32460227D01*
X55577363Y32500278D01*
X54976648Y32749716D01*
X54326205Y32750284D01*
X53725057Y32501894D01*
X53264722Y32042363D01*
X53015284Y31441648D01*
X53014716Y30791205D01*
X32115000Y30791205D01*
X32115000Y67310000D01*
X31990543Y67935687D01*
X31636120Y68466120D01*
X31105687Y68820543D01*
X30480000Y68945000D01*
X25400000Y68945000D01*
X25149736Y68895219D01*
X25086107Y68895275D01*
X25026782Y68870762D01*
X24774313Y68820543D01*
X24562146Y68678778D01*
X24503343Y68654481D01*
X24457918Y68609135D01*
X24243880Y68466120D01*
X24102116Y68253954D01*
X24057086Y68209003D01*
X24032471Y68149723D01*
X23889457Y67935687D01*
X23839676Y67685420D01*
X23815276Y67626659D01*
X23815220Y67562472D01*
X23765000Y67310000D01*
X23814781Y67059736D01*
X23814725Y66996107D01*
X23839238Y66936782D01*
X23889457Y66684313D01*
X24031222Y66472146D01*
X24055519Y66413343D01*
X24100865Y66367918D01*
X24140967Y66307901D01*
X23948559Y66184090D01*
X23803569Y65971890D01*
X23752560Y65720000D01*
X1980000Y65720000D01*
X1980000Y82226205D01*
X33924716Y82226205D01*
X33925000Y82225518D01*
X33925000Y52070005D01*
X33924999Y52070000D01*
X34049457Y51444312D01*
X34403880Y50913880D01*
X45582761Y39735000D01*
X38101426Y39735000D01*
X37776205Y39735284D01*
X37175057Y39486894D01*
X36714722Y39027363D01*
X36465284Y38426648D01*
X36464716Y37776205D01*
X36713106Y37175057D01*
X37172637Y36714722D01*
X37773352Y36465284D01*
X38423795Y36464716D01*
X38424482Y36465000D01*
X49528573Y36465000D01*
X49853795Y36464716D01*
X50454943Y36713106D01*
X50915278Y37172637D01*
X51164716Y37773352D01*
X51165284Y38423795D01*
X50916894Y39024943D01*
X50457363Y39485278D01*
X50456676Y39485563D01*
X37195000Y52747240D01*
X37195000Y65720000D01*
X44072560Y65720000D01*
X44072560Y63820000D01*
X44116838Y63584683D01*
X44255910Y63368559D01*
X44468110Y63223569D01*
X44720000Y63172560D01*
X46720000Y63172560D01*
X46955317Y63216838D01*
X47171441Y63355910D01*
X47316431Y63568110D01*
X47367440Y63820000D01*
X47367440Y65720000D01*
X47323162Y65955317D01*
X47184090Y66171441D01*
X46971890Y66316431D01*
X46968808Y66317055D01*
X47062914Y66410997D01*
X47304724Y66993341D01*
X47305275Y67623893D01*
X47064481Y68206657D01*
X46619003Y68652914D01*
X46036659Y68894724D01*
X45406107Y68895275D01*
X44823343Y68654481D01*
X44377086Y68209003D01*
X44135276Y67626659D01*
X44134725Y66996107D01*
X44375519Y66413343D01*
X44473029Y66315663D01*
X44268559Y66184090D01*
X44123569Y65971890D01*
X44072560Y65720000D01*
X37195000Y65720000D01*
X37195000Y82548573D01*
X37195284Y82873795D01*
X36946894Y83474943D01*
X36487363Y83935278D01*
X35886648Y84184716D01*
X35236205Y84185284D01*
X34635057Y83936894D01*
X34174722Y83477363D01*
X33925284Y82876648D01*
X33924716Y82226205D01*
X1980000Y82226205D01*
X1980000Y84766306D01*
X23765226Y84766306D01*
X24013538Y84165345D01*
X24472927Y83705154D01*
X25073453Y83455794D01*
X25723694Y83455226D01*
X26324655Y83703538D01*
X26784846Y84162927D01*
X27034206Y84763453D01*
X27034208Y84766306D01*
X28845226Y84766306D01*
X29093538Y84165345D01*
X29552927Y83705154D01*
X30153453Y83455794D01*
X30803694Y83455226D01*
X31404655Y83703538D01*
X31864846Y84162927D01*
X32114206Y84763453D01*
X32114208Y84766306D01*
X39005226Y84766306D01*
X39253538Y84165345D01*
X39712927Y83705154D01*
X40313453Y83455794D01*
X40963694Y83455226D01*
X41564655Y83703538D01*
X42024846Y84162927D01*
X42274206Y84763453D01*
X42274208Y84766306D01*
X44085226Y84766306D01*
X44333538Y84165345D01*
X44792927Y83705154D01*
X45393453Y83455794D01*
X46043694Y83455226D01*
X46644655Y83703538D01*
X47104846Y84162927D01*
X47354206Y84763453D01*
X47354774Y85413694D01*
X47106462Y86014655D01*
X46647073Y86474846D01*
X46046547Y86724206D01*
X45396306Y86724774D01*
X44795345Y86476462D01*
X44335154Y86017073D01*
X44085794Y85416547D01*
X44085226Y84766306D01*
X42274208Y84766306D01*
X42274774Y85413694D01*
X42026462Y86014655D01*
X41567073Y86474846D01*
X40966547Y86724206D01*
X40316306Y86724774D01*
X39715345Y86476462D01*
X39255154Y86017073D01*
X39005794Y85416547D01*
X39005226Y84766306D01*
X32114208Y84766306D01*
X32114774Y85413694D01*
X31866462Y86014655D01*
X31407073Y86474846D01*
X30806547Y86724206D01*
X30156306Y86724774D01*
X29555345Y86476462D01*
X29095154Y86017073D01*
X28845794Y85416547D01*
X28845226Y84766306D01*
X27034208Y84766306D01*
X27034774Y85413694D01*
X26786462Y86014655D01*
X26327073Y86474846D01*
X25726547Y86724206D01*
X25076306Y86724774D01*
X24475345Y86476462D01*
X24015154Y86017073D01*
X23765794Y85416547D01*
X23765226Y84766306D01*
X1980000Y84766306D01*
X1980000Y94926306D01*
X23765226Y94926306D01*
X24013538Y94325345D01*
X24472927Y93865154D01*
X25073453Y93615794D01*
X25723694Y93615226D01*
X26324655Y93863538D01*
X26784846Y94322927D01*
X27034206Y94923453D01*
X27034208Y94926306D01*
X28845226Y94926306D01*
X29093538Y94325345D01*
X29552927Y93865154D01*
X30153453Y93615794D01*
X30803694Y93615226D01*
X31404655Y93863538D01*
X31864846Y94322927D01*
X32114206Y94923453D01*
X32114208Y94926306D01*
X39005226Y94926306D01*
X39253538Y94325345D01*
X39712927Y93865154D01*
X40313453Y93615794D01*
X40963694Y93615226D01*
X41564655Y93863538D01*
X42024846Y94322927D01*
X42274206Y94923453D01*
X42274208Y94926306D01*
X44085226Y94926306D01*
X44333538Y94325345D01*
X44792927Y93865154D01*
X45393453Y93615794D01*
X46043694Y93615226D01*
X46644655Y93863538D01*
X47104846Y94322927D01*
X47354206Y94923453D01*
X47354774Y95573694D01*
X47106462Y96174655D01*
X46647073Y96634846D01*
X46046547Y96884206D01*
X45396306Y96884774D01*
X44795345Y96636462D01*
X44335154Y96177073D01*
X44085794Y95576547D01*
X44085226Y94926306D01*
X42274208Y94926306D01*
X42274774Y95573694D01*
X42026462Y96174655D01*
X41567073Y96634846D01*
X40966547Y96884206D01*
X40316306Y96884774D01*
X39715345Y96636462D01*
X39255154Y96177073D01*
X39005794Y95576547D01*
X39005226Y94926306D01*
X32114208Y94926306D01*
X32114774Y95573694D01*
X31866462Y96174655D01*
X31407073Y96634846D01*
X30806547Y96884206D01*
X30156306Y96884774D01*
X29555345Y96636462D01*
X29095154Y96177073D01*
X28845794Y95576547D01*
X28845226Y94926306D01*
X27034208Y94926306D01*
X27034774Y95573694D01*
X26786462Y96174655D01*
X26327073Y96634846D01*
X25726547Y96884206D01*
X25076306Y96884774D01*
X24475345Y96636462D01*
X24015154Y96177073D01*
X23765794Y95576547D01*
X23765226Y94926306D01*
X1980000Y94926306D01*
X1980000Y99620000D01*
X67870000Y99620000D01*
X67870000Y1980000D01*
X67870000Y1980000D01*
G37*
X67870000Y1980000D02*
X1980000Y1980000D01*
X1980000Y7493000D01*
X7255510Y7493000D01*
X7255510Y6992620D01*
X7428529Y6376795D01*
X7824044Y5874058D01*
X8381841Y5560947D01*
X8509646Y5530001D01*
X8763000Y5649355D01*
X8763000Y7493000D01*
X9017000Y7493000D01*
X9017000Y5649355D01*
X9270354Y5530001D01*
X9398159Y5560947D01*
X9955956Y5874058D01*
X10351471Y6376795D01*
X10524490Y6992620D01*
X10524490Y7493000D01*
X61865510Y7493000D01*
X61865510Y6992620D01*
X62038529Y6376795D01*
X62434044Y5874058D01*
X62991841Y5560947D01*
X63119646Y5530001D01*
X63373000Y5649355D01*
X63373000Y7493000D01*
X63627000Y7493000D01*
X63627000Y5649355D01*
X63880354Y5530001D01*
X64008159Y5560947D01*
X64565956Y5874058D01*
X64961471Y6376795D01*
X65134490Y6992620D01*
X65134490Y7493000D01*
X63627000Y7493000D01*
X63373000Y7493000D01*
X61865510Y7493000D01*
X10524490Y7493000D01*
X9017000Y7493000D01*
X8763000Y7493000D01*
X7255510Y7493000D01*
X1980000Y7493000D01*
X1980000Y10160000D01*
X4173305Y10160000D01*
X4297723Y9534508D01*
X4652036Y9004241D01*
X5182303Y8649928D01*
X5807795Y8525510D01*
X6892205Y8525510D01*
X7359783Y8618517D01*
X7255510Y8247380D01*
X7255510Y7747000D01*
X8763000Y7747000D01*
X8763000Y9590645D01*
X9017000Y9590645D01*
X9017000Y7747000D01*
X10524490Y7747000D01*
X10524490Y8247380D01*
X10351471Y8863205D01*
X9955956Y9365942D01*
X9398159Y9679053D01*
X9270354Y9709999D01*
X9017000Y9590645D01*
X8763000Y9590645D01*
X8509646Y9709999D01*
X8433518Y9691566D01*
X8526695Y10160000D01*
X58783305Y10160000D01*
X58907723Y9534508D01*
X59262036Y9004241D01*
X59792303Y8649928D01*
X60417795Y8525510D01*
X61502205Y8525510D01*
X61969783Y8618517D01*
X61865510Y8247380D01*
X61865510Y7747000D01*
X63373000Y7747000D01*
X63373000Y9590645D01*
X63627000Y9590645D01*
X63627000Y7747000D01*
X65134490Y7747000D01*
X65134490Y8247380D01*
X64961471Y8863205D01*
X64565956Y9365942D01*
X64008159Y9679053D01*
X63880354Y9709999D01*
X63627000Y9590645D01*
X63373000Y9590645D01*
X63119646Y9709999D01*
X63043518Y9691566D01*
X63136695Y10160000D01*
X63046485Y10613515D01*
X63500000Y10523305D01*
X64125492Y10647723D01*
X64655759Y11002036D01*
X65010072Y11532303D01*
X65134490Y12157795D01*
X65134490Y13242205D01*
X65010072Y13867697D01*
X64655759Y14397964D01*
X64125492Y14752277D01*
X63500000Y14876695D01*
X62874508Y14752277D01*
X62344241Y14397964D01*
X61989928Y13867697D01*
X61865510Y13242205D01*
X61865510Y12157795D01*
X61955720Y11704280D01*
X61502205Y11794490D01*
X60417795Y11794490D01*
X59792303Y11670072D01*
X59262036Y11315759D01*
X58907723Y10785492D01*
X58783305Y10160000D01*
X8526695Y10160000D01*
X8436485Y10613515D01*
X8890000Y10523305D01*
X9515492Y10647723D01*
X10045759Y11002036D01*
X10400072Y11532303D01*
X10524490Y12157795D01*
X10524490Y13242205D01*
X10400072Y13867697D01*
X10045759Y14397964D01*
X9515492Y14752277D01*
X8890000Y14876695D01*
X8264508Y14752277D01*
X7734241Y14397964D01*
X7379928Y13867697D01*
X7255510Y13242205D01*
X7255510Y12157795D01*
X7345720Y11704280D01*
X6892205Y11794490D01*
X5807795Y11794490D01*
X5182303Y11670072D01*
X4652036Y11315759D01*
X4297723Y10785492D01*
X4173305Y10160000D01*
X1980000Y10160000D01*
X1980000Y33385000D01*
X9782560Y33385000D01*
X9782560Y31385000D01*
X9826838Y31149683D01*
X9965910Y30933559D01*
X10178110Y30788569D01*
X10430000Y30737560D01*
X12430000Y30737560D01*
X12665317Y30781838D01*
X12881441Y30920910D01*
X12962656Y31039773D01*
X13002637Y30999722D01*
X13603352Y30750284D01*
X14253795Y30749716D01*
X14854943Y30998106D01*
X15315278Y31457637D01*
X15564716Y32058352D01*
X15565284Y32708795D01*
X15316894Y33309943D01*
X14857363Y33770278D01*
X14256648Y34019716D01*
X13606205Y34020284D01*
X13005057Y33771894D01*
X12962781Y33729692D01*
X12894090Y33836441D01*
X12681890Y33981431D01*
X12430000Y34032440D01*
X10430000Y34032440D01*
X10194683Y33988162D01*
X9978559Y33849090D01*
X9833569Y33636890D01*
X9782560Y33385000D01*
X1980000Y33385000D01*
X1980000Y37776205D01*
X5984716Y37776205D01*
X6233106Y37175057D01*
X6692637Y36714722D01*
X7293352Y36465284D01*
X7943795Y36464716D01*
X7944482Y36465000D01*
X22858573Y36465000D01*
X23183795Y36464716D01*
X23784943Y36713106D01*
X24245278Y37172637D01*
X24494716Y37773352D01*
X24495284Y38423795D01*
X24246894Y39024943D01*
X23787363Y39485278D01*
X23186648Y39734716D01*
X22536205Y39735284D01*
X22535518Y39735000D01*
X7621426Y39735000D01*
X7296205Y39735284D01*
X6695057Y39486894D01*
X6234722Y39027363D01*
X5985284Y38426648D01*
X5984716Y37776205D01*
X1980000Y37776205D01*
X1980000Y65720000D01*
X23752560Y65720000D01*
X23752560Y63820000D01*
X23796838Y63584683D01*
X23935910Y63368559D01*
X24148110Y63223569D01*
X24400000Y63172560D01*
X26400000Y63172560D01*
X26635317Y63216838D01*
X26851441Y63355910D01*
X26996431Y63568110D01*
X27047440Y63820000D01*
X27047440Y65675000D01*
X28845000Y65675000D01*
X28845000Y15241426D01*
X28844716Y14916205D01*
X29093106Y14315057D01*
X29552637Y13854722D01*
X30153352Y13605284D01*
X30803795Y13604716D01*
X31404943Y13853106D01*
X31865278Y14312637D01*
X32114716Y14913352D01*
X32115284Y15563795D01*
X32115000Y15564482D01*
X32115000Y16036354D01*
X32901890Y16036354D01*
X32901890Y14443646D01*
X33007554Y13912439D01*
X33308458Y13462104D01*
X33758793Y13161200D01*
X34290000Y13055536D01*
X34821207Y13161200D01*
X35271542Y13462104D01*
X35572446Y13912439D01*
X35573016Y13915306D01*
X35596154Y13837081D01*
X35938260Y13414276D01*
X36416125Y13154573D01*
X36488326Y13140217D01*
X36703000Y13262838D01*
X36703000Y15113000D01*
X36957000Y15113000D01*
X36957000Y13262838D01*
X37171674Y13140217D01*
X37243875Y13154573D01*
X37721740Y13414276D01*
X38063846Y13837081D01*
X38218110Y14358620D01*
X38218110Y15113000D01*
X36957000Y15113000D01*
X36703000Y15113000D01*
X36683000Y15113000D01*
X36683000Y15367000D01*
X36703000Y15367000D01*
X36703000Y17217162D01*
X36957000Y17217162D01*
X36957000Y15367000D01*
X38218110Y15367000D01*
X38218110Y16121380D01*
X38063846Y16642919D01*
X37721740Y17065724D01*
X37243875Y17325427D01*
X37171674Y17339783D01*
X36957000Y17217162D01*
X36703000Y17217162D01*
X36488326Y17339783D01*
X36416125Y17325427D01*
X35938260Y17065724D01*
X35596154Y16642919D01*
X35573016Y16564694D01*
X35572446Y16567561D01*
X35271542Y17017896D01*
X34821207Y17318800D01*
X34290000Y17424464D01*
X33758793Y17318800D01*
X33308458Y17017896D01*
X33007554Y16567561D01*
X32901890Y16036354D01*
X32115000Y16036354D01*
X32115000Y30791205D01*
X53014716Y30791205D01*
X53263106Y30190057D01*
X53722637Y29729722D01*
X54323352Y29480284D01*
X54973795Y29479716D01*
X55574943Y29728106D01*
X55617219Y29770308D01*
X55685910Y29663559D01*
X55898110Y29518569D01*
X56150000Y29467560D01*
X58150000Y29467560D01*
X58385317Y29511838D01*
X58601441Y29650910D01*
X58746431Y29863110D01*
X58797440Y30115000D01*
X58797440Y32115000D01*
X58753162Y32350317D01*
X58614090Y32566441D01*
X58401890Y32711431D01*
X58150000Y32762440D01*
X56150000Y32762440D01*
X55914683Y32718162D01*
X55698559Y32579090D01*
X55617344Y32460227D01*
X55577363Y32500278D01*
X54976648Y32749716D01*
X54326205Y32750284D01*
X53725057Y32501894D01*
X53264722Y32042363D01*
X53015284Y31441648D01*
X53014716Y30791205D01*
X32115000Y30791205D01*
X32115000Y67310000D01*
X31990543Y67935687D01*
X31636120Y68466120D01*
X31105687Y68820543D01*
X30480000Y68945000D01*
X25400000Y68945000D01*
X25149736Y68895219D01*
X25086107Y68895275D01*
X25026782Y68870762D01*
X24774313Y68820543D01*
X24562146Y68678778D01*
X24503343Y68654481D01*
X24457918Y68609135D01*
X24243880Y68466120D01*
X24102116Y68253954D01*
X24057086Y68209003D01*
X24032471Y68149723D01*
X23889457Y67935687D01*
X23839676Y67685420D01*
X23815276Y67626659D01*
X23815220Y67562472D01*
X23765000Y67310000D01*
X23814781Y67059736D01*
X23814725Y66996107D01*
X23839238Y66936782D01*
X23889457Y66684313D01*
X24031222Y66472146D01*
X24055519Y66413343D01*
X24100865Y66367918D01*
X24140967Y66307901D01*
X23948559Y66184090D01*
X23803569Y65971890D01*
X23752560Y65720000D01*
X1980000Y65720000D01*
X1980000Y82226205D01*
X33924716Y82226205D01*
X33925000Y82225518D01*
X33925000Y52070005D01*
X33924999Y52070000D01*
X34049457Y51444312D01*
X34403880Y50913880D01*
X45582761Y39735000D01*
X38101426Y39735000D01*
X37776205Y39735284D01*
X37175057Y39486894D01*
X36714722Y39027363D01*
X36465284Y38426648D01*
X36464716Y37776205D01*
X36713106Y37175057D01*
X37172637Y36714722D01*
X37773352Y36465284D01*
X38423795Y36464716D01*
X38424482Y36465000D01*
X49528573Y36465000D01*
X49853795Y36464716D01*
X50454943Y36713106D01*
X50915278Y37172637D01*
X51164716Y37773352D01*
X51165284Y38423795D01*
X50916894Y39024943D01*
X50457363Y39485278D01*
X50456676Y39485563D01*
X37195000Y52747240D01*
X37195000Y65720000D01*
X44072560Y65720000D01*
X44072560Y63820000D01*
X44116838Y63584683D01*
X44255910Y63368559D01*
X44468110Y63223569D01*
X44720000Y63172560D01*
X46720000Y63172560D01*
X46955317Y63216838D01*
X47171441Y63355910D01*
X47316431Y63568110D01*
X47367440Y63820000D01*
X47367440Y65720000D01*
X47323162Y65955317D01*
X47184090Y66171441D01*
X46971890Y66316431D01*
X46968808Y66317055D01*
X47062914Y66410997D01*
X47304724Y66993341D01*
X47305275Y67623893D01*
X47064481Y68206657D01*
X46619003Y68652914D01*
X46036659Y68894724D01*
X45406107Y68895275D01*
X44823343Y68654481D01*
X44377086Y68209003D01*
X44135276Y67626659D01*
X44134725Y66996107D01*
X44375519Y66413343D01*
X44473029Y66315663D01*
X44268559Y66184090D01*
X44123569Y65971890D01*
X44072560Y65720000D01*
X37195000Y65720000D01*
X37195000Y82548573D01*
X37195284Y82873795D01*
X36946894Y83474943D01*
X36487363Y83935278D01*
X35886648Y84184716D01*
X35236205Y84185284D01*
X34635057Y83936894D01*
X34174722Y83477363D01*
X33925284Y82876648D01*
X33924716Y82226205D01*
X1980000Y82226205D01*
X1980000Y84766306D01*
X23765226Y84766306D01*
X24013538Y84165345D01*
X24472927Y83705154D01*
X25073453Y83455794D01*
X25723694Y83455226D01*
X26324655Y83703538D01*
X26784846Y84162927D01*
X27034206Y84763453D01*
X27034208Y84766306D01*
X28845226Y84766306D01*
X29093538Y84165345D01*
X29552927Y83705154D01*
X30153453Y83455794D01*
X30803694Y83455226D01*
X31404655Y83703538D01*
X31864846Y84162927D01*
X32114206Y84763453D01*
X32114208Y84766306D01*
X39005226Y84766306D01*
X39253538Y84165345D01*
X39712927Y83705154D01*
X40313453Y83455794D01*
X40963694Y83455226D01*
X41564655Y83703538D01*
X42024846Y84162927D01*
X42274206Y84763453D01*
X42274208Y84766306D01*
X44085226Y84766306D01*
X44333538Y84165345D01*
X44792927Y83705154D01*
X45393453Y83455794D01*
X46043694Y83455226D01*
X46644655Y83703538D01*
X47104846Y84162927D01*
X47354206Y84763453D01*
X47354774Y85413694D01*
X47106462Y86014655D01*
X46647073Y86474846D01*
X46046547Y86724206D01*
X45396306Y86724774D01*
X44795345Y86476462D01*
X44335154Y86017073D01*
X44085794Y85416547D01*
X44085226Y84766306D01*
X42274208Y84766306D01*
X42274774Y85413694D01*
X42026462Y86014655D01*
X41567073Y86474846D01*
X40966547Y86724206D01*
X40316306Y86724774D01*
X39715345Y86476462D01*
X39255154Y86017073D01*
X39005794Y85416547D01*
X39005226Y84766306D01*
X32114208Y84766306D01*
X32114774Y85413694D01*
X31866462Y86014655D01*
X31407073Y86474846D01*
X30806547Y86724206D01*
X30156306Y86724774D01*
X29555345Y86476462D01*
X29095154Y86017073D01*
X28845794Y85416547D01*
X28845226Y84766306D01*
X27034208Y84766306D01*
X27034774Y85413694D01*
X26786462Y86014655D01*
X26327073Y86474846D01*
X25726547Y86724206D01*
X25076306Y86724774D01*
X24475345Y86476462D01*
X24015154Y86017073D01*
X23765794Y85416547D01*
X23765226Y84766306D01*
X1980000Y84766306D01*
X1980000Y94926306D01*
X23765226Y94926306D01*
X24013538Y94325345D01*
X24472927Y93865154D01*
X25073453Y93615794D01*
X25723694Y93615226D01*
X26324655Y93863538D01*
X26784846Y94322927D01*
X27034206Y94923453D01*
X27034208Y94926306D01*
X28845226Y94926306D01*
X29093538Y94325345D01*
X29552927Y93865154D01*
X30153453Y93615794D01*
X30803694Y93615226D01*
X31404655Y93863538D01*
X31864846Y94322927D01*
X32114206Y94923453D01*
X32114208Y94926306D01*
X39005226Y94926306D01*
X39253538Y94325345D01*
X39712927Y93865154D01*
X40313453Y93615794D01*
X40963694Y93615226D01*
X41564655Y93863538D01*
X42024846Y94322927D01*
X42274206Y94923453D01*
X42274208Y94926306D01*
X44085226Y94926306D01*
X44333538Y94325345D01*
X44792927Y93865154D01*
X45393453Y93615794D01*
X46043694Y93615226D01*
X46644655Y93863538D01*
X47104846Y94322927D01*
X47354206Y94923453D01*
X47354774Y95573694D01*
X47106462Y96174655D01*
X46647073Y96634846D01*
X46046547Y96884206D01*
X45396306Y96884774D01*
X44795345Y96636462D01*
X44335154Y96177073D01*
X44085794Y95576547D01*
X44085226Y94926306D01*
X42274208Y94926306D01*
X42274774Y95573694D01*
X42026462Y96174655D01*
X41567073Y96634846D01*
X40966547Y96884206D01*
X40316306Y96884774D01*
X39715345Y96636462D01*
X39255154Y96177073D01*
X39005794Y95576547D01*
X39005226Y94926306D01*
X32114208Y94926306D01*
X32114774Y95573694D01*
X31866462Y96174655D01*
X31407073Y96634846D01*
X30806547Y96884206D01*
X30156306Y96884774D01*
X29555345Y96636462D01*
X29095154Y96177073D01*
X28845794Y95576547D01*
X28845226Y94926306D01*
X27034208Y94926306D01*
X27034774Y95573694D01*
X26786462Y96174655D01*
X26327073Y96634846D01*
X25726547Y96884206D01*
X25076306Y96884774D01*
X24475345Y96636462D01*
X24015154Y96177073D01*
X23765794Y95576547D01*
X23765226Y94926306D01*
X1980000Y94926306D01*
X1980000Y99620000D01*
X67870000Y99620000D01*
X67870000Y1980000D01*
M02*
