G04 #@! TF.FileFunction,Legend,Bot*
%FSLAX46Y46*%
G04 Gerber Fmt 4.6, Leading zero omitted, Abs format (unit mm)*
G04 Created by KiCad (PCBNEW 4.0.5-e0-6337~49~ubuntu16.04.1) date Wed Dec 28 20:02:50 2016*
%MOMM*%
%LPD*%
G01*
G04 APERTURE LIST*
%ADD10C,0.200000*%
%ADD11C,0.300000*%
%ADD12C,0.010000*%
%ADD13C,0.150000*%
G04 APERTURE END LIST*
D10*
D11*
X31408571Y10751429D02*
X31122856Y10751429D01*
X30979999Y10822857D01*
X30908571Y10894286D01*
X30765713Y11108571D01*
X30694285Y11394286D01*
X30694285Y11965714D01*
X30765713Y12108571D01*
X30837142Y12180000D01*
X30979999Y12251429D01*
X31265713Y12251429D01*
X31408571Y12180000D01*
X31479999Y12108571D01*
X31551428Y11965714D01*
X31551428Y11608571D01*
X31479999Y11465714D01*
X31408571Y11394286D01*
X31265713Y11322857D01*
X30979999Y11322857D01*
X30837142Y11394286D01*
X30765713Y11465714D01*
X30694285Y11608571D01*
X30265714Y12251429D02*
X29765714Y10751429D01*
X29265714Y12251429D01*
X41782857Y12180000D02*
X41925714Y12251429D01*
X42140000Y12251429D01*
X42354285Y12180000D01*
X42497143Y12037143D01*
X42568571Y11894286D01*
X42640000Y11608571D01*
X42640000Y11394286D01*
X42568571Y11108571D01*
X42497143Y10965714D01*
X42354285Y10822857D01*
X42140000Y10751429D01*
X41997143Y10751429D01*
X41782857Y10822857D01*
X41711428Y10894286D01*
X41711428Y11394286D01*
X41997143Y11394286D01*
X41068571Y10751429D02*
X41068571Y12251429D01*
X40211428Y10751429D01*
X40211428Y12251429D01*
X39497142Y10751429D02*
X39497142Y12251429D01*
X39139999Y12251429D01*
X38925714Y12180000D01*
X38782856Y12037143D01*
X38711428Y11894286D01*
X38639999Y11608571D01*
X38639999Y11394286D01*
X38711428Y11108571D01*
X38782856Y10965714D01*
X38925714Y10822857D01*
X39139999Y10751429D01*
X39497142Y10751429D01*
X29888571Y67147142D02*
X28388571Y67147142D01*
X28388571Y66789999D01*
X28460000Y66575714D01*
X28602857Y66432856D01*
X28745714Y66361428D01*
X29031429Y66289999D01*
X29245714Y66289999D01*
X29531429Y66361428D01*
X29674286Y66432856D01*
X29817143Y66575714D01*
X29888571Y66789999D01*
X29888571Y67147142D01*
X29888571Y64861428D02*
X29888571Y65718571D01*
X29888571Y65289999D02*
X28388571Y65289999D01*
X28602857Y65432856D01*
X28745714Y65575714D01*
X28817143Y65718571D01*
X50208571Y67147142D02*
X48708571Y67147142D01*
X48708571Y66789999D01*
X48780000Y66575714D01*
X48922857Y66432856D01*
X49065714Y66361428D01*
X49351429Y66289999D01*
X49565714Y66289999D01*
X49851429Y66361428D01*
X49994286Y66432856D01*
X50137143Y66575714D01*
X50208571Y66789999D01*
X50208571Y67147142D01*
X48851429Y65718571D02*
X48780000Y65647142D01*
X48708571Y65504285D01*
X48708571Y65147142D01*
X48780000Y65004285D01*
X48851429Y64932856D01*
X48994286Y64861428D01*
X49137143Y64861428D01*
X49351429Y64932856D01*
X50208571Y65789999D01*
X50208571Y64861428D01*
X52605714Y31999999D02*
X52677143Y32071428D01*
X52748571Y32285714D01*
X52748571Y32428571D01*
X52677143Y32642856D01*
X52534286Y32785714D01*
X52391429Y32857142D01*
X52105714Y32928571D01*
X51891429Y32928571D01*
X51605714Y32857142D01*
X51462857Y32785714D01*
X51320000Y32642856D01*
X51248571Y32428571D01*
X51248571Y32285714D01*
X51320000Y32071428D01*
X51391429Y31999999D01*
X51391429Y31428571D02*
X51320000Y31357142D01*
X51248571Y31214285D01*
X51248571Y30857142D01*
X51320000Y30714285D01*
X51391429Y30642856D01*
X51534286Y30571428D01*
X51677143Y30571428D01*
X51891429Y30642856D01*
X52748571Y31499999D01*
X52748571Y30571428D01*
X9425714Y31999999D02*
X9497143Y32071428D01*
X9568571Y32285714D01*
X9568571Y32428571D01*
X9497143Y32642856D01*
X9354286Y32785714D01*
X9211429Y32857142D01*
X8925714Y32928571D01*
X8711429Y32928571D01*
X8425714Y32857142D01*
X8282857Y32785714D01*
X8140000Y32642856D01*
X8068571Y32428571D01*
X8068571Y32285714D01*
X8140000Y32071428D01*
X8211429Y31999999D01*
X9568571Y30571428D02*
X9568571Y31428571D01*
X9568571Y30999999D02*
X8068571Y30999999D01*
X8282857Y31142856D01*
X8425714Y31285714D01*
X8497143Y31428571D01*
X5901429Y6492857D02*
X5830000Y6635714D01*
X5687143Y6778571D01*
X5472857Y6992857D01*
X5401429Y7135714D01*
X5401429Y7278571D01*
X5758571Y7207143D02*
X5687143Y7350000D01*
X5544286Y7492857D01*
X5258571Y7564286D01*
X4758571Y7564286D01*
X4472857Y7492857D01*
X4330000Y7350000D01*
X4258571Y7207143D01*
X4258571Y6921429D01*
X4330000Y6778571D01*
X4472857Y6635714D01*
X4758571Y6564286D01*
X5258571Y6564286D01*
X5544286Y6635714D01*
X5687143Y6778571D01*
X5758571Y6921429D01*
X5758571Y7207143D01*
X5758571Y5135714D02*
X5758571Y5992857D01*
X5758571Y5564285D02*
X4258571Y5564285D01*
X4472857Y5707142D01*
X4615714Y5850000D01*
X4687143Y5992857D01*
X57971429Y6492857D02*
X57900000Y6635714D01*
X57757143Y6778571D01*
X57542857Y6992857D01*
X57471429Y7135714D01*
X57471429Y7278571D01*
X57828571Y7207143D02*
X57757143Y7350000D01*
X57614286Y7492857D01*
X57328571Y7564286D01*
X56828571Y7564286D01*
X56542857Y7492857D01*
X56400000Y7350000D01*
X56328571Y7207143D01*
X56328571Y6921429D01*
X56400000Y6778571D01*
X56542857Y6635714D01*
X56828571Y6564286D01*
X57328571Y6564286D01*
X57614286Y6635714D01*
X57757143Y6778571D01*
X57828571Y6921429D01*
X57828571Y7207143D01*
X56471429Y5992857D02*
X56400000Y5921428D01*
X56328571Y5778571D01*
X56328571Y5421428D01*
X56400000Y5278571D01*
X56471429Y5207142D01*
X56614286Y5135714D01*
X56757143Y5135714D01*
X56971429Y5207142D01*
X57828571Y6064285D01*
X57828571Y5135714D01*
X46560000Y57746429D02*
X46560000Y59246429D01*
X46560000Y58532143D02*
X45702857Y58532143D01*
X45702857Y57746429D02*
X45702857Y59246429D01*
X44774285Y57746429D02*
X44917143Y57817857D01*
X44988571Y57889286D01*
X45060000Y58032143D01*
X45060000Y58460714D01*
X44988571Y58603571D01*
X44917143Y58675000D01*
X44774285Y58746429D01*
X44560000Y58746429D01*
X44417143Y58675000D01*
X44345714Y58603571D01*
X44274285Y58460714D01*
X44274285Y58032143D01*
X44345714Y57889286D01*
X44417143Y57817857D01*
X44560000Y57746429D01*
X44774285Y57746429D01*
X43631428Y57746429D02*
X43631428Y59246429D01*
X43631428Y58675000D02*
X43488571Y58746429D01*
X43202857Y58746429D01*
X43060000Y58675000D01*
X42988571Y58603571D01*
X42917142Y58460714D01*
X42917142Y58032143D01*
X42988571Y57889286D01*
X43060000Y57817857D01*
X43202857Y57746429D01*
X43488571Y57746429D01*
X43631428Y57817857D01*
X41631428Y57746429D02*
X41631428Y58532143D01*
X41702857Y58675000D01*
X41845714Y58746429D01*
X42131428Y58746429D01*
X42274285Y58675000D01*
X41631428Y57817857D02*
X41774285Y57746429D01*
X42131428Y57746429D01*
X42274285Y57817857D01*
X42345714Y57960714D01*
X42345714Y58103571D01*
X42274285Y58246429D01*
X42131428Y58317857D01*
X41774285Y58317857D01*
X41631428Y58389286D01*
X40917142Y57746429D02*
X40917142Y58746429D01*
X40917142Y58460714D02*
X40845714Y58603571D01*
X40774285Y58675000D01*
X40631428Y58746429D01*
X40488571Y58746429D01*
X40202857Y58746429D02*
X39631428Y58746429D01*
X39988571Y59246429D02*
X39988571Y57960714D01*
X39917143Y57817857D01*
X39774285Y57746429D01*
X39631428Y57746429D01*
X37988571Y57746429D02*
X37988571Y59246429D01*
X37988571Y58532143D02*
X37131428Y58532143D01*
X37131428Y57746429D02*
X37131428Y59246429D01*
X35774285Y57746429D02*
X35774285Y58532143D01*
X35845714Y58675000D01*
X35988571Y58746429D01*
X36274285Y58746429D01*
X36417142Y58675000D01*
X35774285Y57817857D02*
X35917142Y57746429D01*
X36274285Y57746429D01*
X36417142Y57817857D01*
X36488571Y57960714D01*
X36488571Y58103571D01*
X36417142Y58246429D01*
X36274285Y58317857D01*
X35917142Y58317857D01*
X35774285Y58389286D01*
X34417142Y57817857D02*
X34559999Y57746429D01*
X34845713Y57746429D01*
X34988571Y57817857D01*
X35059999Y57889286D01*
X35131428Y58032143D01*
X35131428Y58460714D01*
X35059999Y58603571D01*
X34988571Y58675000D01*
X34845713Y58746429D01*
X34559999Y58746429D01*
X34417142Y58675000D01*
X33774285Y57746429D02*
X33774285Y59246429D01*
X33631428Y58317857D02*
X33202857Y57746429D01*
X33202857Y58746429D02*
X33774285Y58175000D01*
X31988571Y57817857D02*
X32131428Y57746429D01*
X32417142Y57746429D01*
X32559999Y57817857D01*
X32631428Y57960714D01*
X32631428Y58532143D01*
X32559999Y58675000D01*
X32417142Y58746429D01*
X32131428Y58746429D01*
X31988571Y58675000D01*
X31917142Y58532143D01*
X31917142Y58389286D01*
X32631428Y58246429D01*
X31274285Y57746429D02*
X31274285Y58746429D01*
X31274285Y58460714D02*
X31202857Y58603571D01*
X31131428Y58675000D01*
X30988571Y58746429D01*
X30845714Y58746429D01*
X30417143Y57817857D02*
X30274286Y57746429D01*
X29988571Y57746429D01*
X29845714Y57817857D01*
X29774286Y57960714D01*
X29774286Y58032143D01*
X29845714Y58175000D01*
X29988571Y58246429D01*
X30202857Y58246429D01*
X30345714Y58317857D01*
X30417143Y58460714D01*
X30417143Y58532143D01*
X30345714Y58675000D01*
X30202857Y58746429D01*
X29988571Y58746429D01*
X29845714Y58675000D01*
X29131428Y58746429D02*
X29131428Y57246429D01*
X29131428Y58675000D02*
X28988571Y58746429D01*
X28702857Y58746429D01*
X28560000Y58675000D01*
X28488571Y58603571D01*
X28417142Y58460714D01*
X28417142Y58032143D01*
X28488571Y57889286D01*
X28560000Y57817857D01*
X28702857Y57746429D01*
X28988571Y57746429D01*
X29131428Y57817857D01*
X27131428Y57746429D02*
X27131428Y58532143D01*
X27202857Y58675000D01*
X27345714Y58746429D01*
X27631428Y58746429D01*
X27774285Y58675000D01*
X27131428Y57817857D02*
X27274285Y57746429D01*
X27631428Y57746429D01*
X27774285Y57817857D01*
X27845714Y57960714D01*
X27845714Y58103571D01*
X27774285Y58246429D01*
X27631428Y58317857D01*
X27274285Y58317857D01*
X27131428Y58389286D01*
X25774285Y57817857D02*
X25917142Y57746429D01*
X26202856Y57746429D01*
X26345714Y57817857D01*
X26417142Y57889286D01*
X26488571Y58032143D01*
X26488571Y58460714D01*
X26417142Y58603571D01*
X26345714Y58675000D01*
X26202856Y58746429D01*
X25917142Y58746429D01*
X25774285Y58675000D01*
X24560000Y57817857D02*
X24702857Y57746429D01*
X24988571Y57746429D01*
X25131428Y57817857D01*
X25202857Y57960714D01*
X25202857Y58532143D01*
X25131428Y58675000D01*
X24988571Y58746429D01*
X24702857Y58746429D01*
X24560000Y58675000D01*
X24488571Y58532143D01*
X24488571Y58389286D01*
X25202857Y58246429D01*
X57310002Y55196429D02*
X57310002Y56696429D01*
X56667145Y55196429D02*
X56667145Y55982143D01*
X56738574Y56125000D01*
X56881431Y56196429D01*
X57095716Y56196429D01*
X57238574Y56125000D01*
X57310002Y56053571D01*
X56167145Y56196429D02*
X55595716Y56196429D01*
X55952859Y56696429D02*
X55952859Y55410714D01*
X55881431Y55267857D01*
X55738573Y55196429D01*
X55595716Y55196429D01*
X55310002Y56196429D02*
X54738573Y56196429D01*
X55095716Y56696429D02*
X55095716Y55410714D01*
X55024288Y55267857D01*
X54881430Y55196429D01*
X54738573Y55196429D01*
X54238573Y56196429D02*
X54238573Y54696429D01*
X54238573Y56125000D02*
X54095716Y56196429D01*
X53810002Y56196429D01*
X53667145Y56125000D01*
X53595716Y56053571D01*
X53524287Y55910714D01*
X53524287Y55482143D01*
X53595716Y55339286D01*
X53667145Y55267857D01*
X53810002Y55196429D01*
X54095716Y55196429D01*
X54238573Y55267857D01*
X52881430Y55339286D02*
X52810002Y55267857D01*
X52881430Y55196429D01*
X52952859Y55267857D01*
X52881430Y55339286D01*
X52881430Y55196429D01*
X52881430Y56125000D02*
X52810002Y56053571D01*
X52881430Y55982143D01*
X52952859Y56053571D01*
X52881430Y56125000D01*
X52881430Y55982143D01*
X51095716Y56767857D02*
X52381430Y54839286D01*
X49524287Y56767857D02*
X50810001Y54839286D01*
X49167143Y56196429D02*
X48881429Y55196429D01*
X48595715Y55910714D01*
X48310000Y55196429D01*
X48024286Y56196429D01*
X47595714Y56196429D02*
X47310000Y55196429D01*
X47024286Y55910714D01*
X46738571Y55196429D01*
X46452857Y56196429D01*
X46024285Y56196429D02*
X45738571Y55196429D01*
X45452857Y55910714D01*
X45167142Y55196429D01*
X44881428Y56196429D01*
X44309999Y55339286D02*
X44238571Y55267857D01*
X44309999Y55196429D01*
X44381428Y55267857D01*
X44309999Y55339286D01*
X44309999Y55196429D01*
X43595713Y55196429D02*
X43595713Y56696429D01*
X42952856Y55196429D02*
X42952856Y55982143D01*
X43024285Y56125000D01*
X43167142Y56196429D01*
X43381427Y56196429D01*
X43524285Y56125000D01*
X43595713Y56053571D01*
X42024284Y55196429D02*
X42167142Y55267857D01*
X42238570Y55339286D01*
X42309999Y55482143D01*
X42309999Y55910714D01*
X42238570Y56053571D01*
X42167142Y56125000D01*
X42024284Y56196429D01*
X41809999Y56196429D01*
X41667142Y56125000D01*
X41595713Y56053571D01*
X41524284Y55910714D01*
X41524284Y55482143D01*
X41595713Y55339286D01*
X41667142Y55267857D01*
X41809999Y55196429D01*
X42024284Y55196429D01*
X40881427Y55196429D02*
X40881427Y56696429D01*
X40881427Y56125000D02*
X40738570Y56196429D01*
X40452856Y56196429D01*
X40309999Y56125000D01*
X40238570Y56053571D01*
X40167141Y55910714D01*
X40167141Y55482143D01*
X40238570Y55339286D01*
X40309999Y55267857D01*
X40452856Y55196429D01*
X40738570Y55196429D01*
X40881427Y55267857D01*
X38881427Y55196429D02*
X38881427Y55982143D01*
X38952856Y56125000D01*
X39095713Y56196429D01*
X39381427Y56196429D01*
X39524284Y56125000D01*
X38881427Y55267857D02*
X39024284Y55196429D01*
X39381427Y55196429D01*
X39524284Y55267857D01*
X39595713Y55410714D01*
X39595713Y55553571D01*
X39524284Y55696429D01*
X39381427Y55767857D01*
X39024284Y55767857D01*
X38881427Y55839286D01*
X38167141Y55196429D02*
X38167141Y56196429D01*
X38167141Y55910714D02*
X38095713Y56053571D01*
X38024284Y56125000D01*
X37881427Y56196429D01*
X37738570Y56196429D01*
X37452856Y56196429D02*
X36881427Y56196429D01*
X37238570Y56696429D02*
X37238570Y55410714D01*
X37167142Y55267857D01*
X37024284Y55196429D01*
X36881427Y55196429D01*
X36381427Y55196429D02*
X36381427Y56696429D01*
X35738570Y55196429D02*
X35738570Y55982143D01*
X35809999Y56125000D01*
X35952856Y56196429D01*
X36167141Y56196429D01*
X36309999Y56125000D01*
X36381427Y56053571D01*
X34381427Y55196429D02*
X34381427Y55982143D01*
X34452856Y56125000D01*
X34595713Y56196429D01*
X34881427Y56196429D01*
X35024284Y56125000D01*
X34381427Y55267857D02*
X34524284Y55196429D01*
X34881427Y55196429D01*
X35024284Y55267857D01*
X35095713Y55410714D01*
X35095713Y55553571D01*
X35024284Y55696429D01*
X34881427Y55767857D01*
X34524284Y55767857D01*
X34381427Y55839286D01*
X33024284Y55267857D02*
X33167141Y55196429D01*
X33452855Y55196429D01*
X33595713Y55267857D01*
X33667141Y55339286D01*
X33738570Y55482143D01*
X33738570Y55910714D01*
X33667141Y56053571D01*
X33595713Y56125000D01*
X33452855Y56196429D01*
X33167141Y56196429D01*
X33024284Y56125000D01*
X32381427Y55196429D02*
X32381427Y56696429D01*
X32238570Y55767857D02*
X31809999Y55196429D01*
X31809999Y56196429D02*
X32381427Y55625000D01*
X30595713Y55267857D02*
X30738570Y55196429D01*
X31024284Y55196429D01*
X31167141Y55267857D01*
X31238570Y55410714D01*
X31238570Y55982143D01*
X31167141Y56125000D01*
X31024284Y56196429D01*
X30738570Y56196429D01*
X30595713Y56125000D01*
X30524284Y55982143D01*
X30524284Y55839286D01*
X31238570Y55696429D01*
X29881427Y55196429D02*
X29881427Y56196429D01*
X29881427Y55910714D02*
X29809999Y56053571D01*
X29738570Y56125000D01*
X29595713Y56196429D01*
X29452856Y56196429D01*
X29024285Y55267857D02*
X28881428Y55196429D01*
X28595713Y55196429D01*
X28452856Y55267857D01*
X28381428Y55410714D01*
X28381428Y55482143D01*
X28452856Y55625000D01*
X28595713Y55696429D01*
X28809999Y55696429D01*
X28952856Y55767857D01*
X29024285Y55910714D01*
X29024285Y55982143D01*
X28952856Y56125000D01*
X28809999Y56196429D01*
X28595713Y56196429D01*
X28452856Y56125000D01*
X27738570Y56196429D02*
X27738570Y54696429D01*
X27738570Y56125000D02*
X27595713Y56196429D01*
X27309999Y56196429D01*
X27167142Y56125000D01*
X27095713Y56053571D01*
X27024284Y55910714D01*
X27024284Y55482143D01*
X27095713Y55339286D01*
X27167142Y55267857D01*
X27309999Y55196429D01*
X27595713Y55196429D01*
X27738570Y55267857D01*
X25738570Y55196429D02*
X25738570Y55982143D01*
X25809999Y56125000D01*
X25952856Y56196429D01*
X26238570Y56196429D01*
X26381427Y56125000D01*
X25738570Y55267857D02*
X25881427Y55196429D01*
X26238570Y55196429D01*
X26381427Y55267857D01*
X26452856Y55410714D01*
X26452856Y55553571D01*
X26381427Y55696429D01*
X26238570Y55767857D01*
X25881427Y55767857D01*
X25738570Y55839286D01*
X24381427Y55267857D02*
X24524284Y55196429D01*
X24809998Y55196429D01*
X24952856Y55267857D01*
X25024284Y55339286D01*
X25095713Y55482143D01*
X25095713Y55910714D01*
X25024284Y56053571D01*
X24952856Y56125000D01*
X24809998Y56196429D01*
X24524284Y56196429D01*
X24381427Y56125000D01*
X23167142Y55267857D02*
X23309999Y55196429D01*
X23595713Y55196429D01*
X23738570Y55267857D01*
X23809999Y55410714D01*
X23809999Y55982143D01*
X23738570Y56125000D01*
X23595713Y56196429D01*
X23309999Y56196429D01*
X23167142Y56125000D01*
X23095713Y55982143D01*
X23095713Y55839286D01*
X23809999Y55696429D01*
X22452856Y55339286D02*
X22381428Y55267857D01*
X22452856Y55196429D01*
X22524285Y55267857D01*
X22452856Y55339286D01*
X22452856Y55196429D01*
X21524284Y55196429D02*
X21667142Y55267857D01*
X21738570Y55339286D01*
X21809999Y55482143D01*
X21809999Y55910714D01*
X21738570Y56053571D01*
X21667142Y56125000D01*
X21524284Y56196429D01*
X21309999Y56196429D01*
X21167142Y56125000D01*
X21095713Y56053571D01*
X21024284Y55910714D01*
X21024284Y55482143D01*
X21095713Y55339286D01*
X21167142Y55267857D01*
X21309999Y55196429D01*
X21524284Y55196429D01*
X20381427Y55196429D02*
X20381427Y56196429D01*
X20381427Y55910714D02*
X20309999Y56053571D01*
X20238570Y56125000D01*
X20095713Y56196429D01*
X19952856Y56196429D01*
X18809999Y56196429D02*
X18809999Y54982143D01*
X18881428Y54839286D01*
X18952856Y54767857D01*
X19095713Y54696429D01*
X19309999Y54696429D01*
X19452856Y54767857D01*
X18809999Y55267857D02*
X18952856Y55196429D01*
X19238570Y55196429D01*
X19381428Y55267857D01*
X19452856Y55339286D01*
X19524285Y55482143D01*
X19524285Y55910714D01*
X19452856Y56053571D01*
X19381428Y56125000D01*
X19238570Y56196429D01*
X18952856Y56196429D01*
X18809999Y56125000D01*
X18095713Y55339286D02*
X18024285Y55267857D01*
X18095713Y55196429D01*
X18167142Y55267857D01*
X18095713Y55339286D01*
X18095713Y55196429D01*
X16738570Y55196429D02*
X16738570Y55982143D01*
X16809999Y56125000D01*
X16952856Y56196429D01*
X17238570Y56196429D01*
X17381427Y56125000D01*
X16738570Y55267857D02*
X16881427Y55196429D01*
X17238570Y55196429D01*
X17381427Y55267857D01*
X17452856Y55410714D01*
X17452856Y55553571D01*
X17381427Y55696429D01*
X17238570Y55767857D01*
X16881427Y55767857D01*
X16738570Y55839286D01*
X15381427Y56196429D02*
X15381427Y55196429D01*
X16024284Y56196429D02*
X16024284Y55410714D01*
X15952856Y55267857D01*
X15809998Y55196429D01*
X15595713Y55196429D01*
X15452856Y55267857D01*
X15381427Y55339286D01*
X13595713Y56767857D02*
X14881427Y54839286D01*
X40305713Y5187143D02*
X40805713Y5187143D01*
X40805713Y4401429D02*
X40805713Y5901429D01*
X40091427Y5901429D01*
X39305713Y4401429D02*
X39448571Y4472857D01*
X39519999Y4615714D01*
X39519999Y5901429D01*
X38091428Y4401429D02*
X38091428Y5187143D01*
X38162857Y5330000D01*
X38305714Y5401429D01*
X38591428Y5401429D01*
X38734285Y5330000D01*
X38091428Y4472857D02*
X38234285Y4401429D01*
X38591428Y4401429D01*
X38734285Y4472857D01*
X38805714Y4615714D01*
X38805714Y4758571D01*
X38734285Y4901429D01*
X38591428Y4972857D01*
X38234285Y4972857D01*
X38091428Y5044286D01*
X37448571Y4472857D02*
X37305714Y4401429D01*
X37019999Y4401429D01*
X36877142Y4472857D01*
X36805714Y4615714D01*
X36805714Y4687143D01*
X36877142Y4830000D01*
X37019999Y4901429D01*
X37234285Y4901429D01*
X37377142Y4972857D01*
X37448571Y5115714D01*
X37448571Y5187143D01*
X37377142Y5330000D01*
X37234285Y5401429D01*
X37019999Y5401429D01*
X36877142Y5330000D01*
X36162856Y4401429D02*
X36162856Y5901429D01*
X35519999Y4401429D02*
X35519999Y5187143D01*
X35591428Y5330000D01*
X35734285Y5401429D01*
X35948570Y5401429D01*
X36091428Y5330000D01*
X36162856Y5258571D01*
X34234285Y4472857D02*
X34377142Y4401429D01*
X34662856Y4401429D01*
X34805713Y4472857D01*
X34877142Y4615714D01*
X34877142Y5187143D01*
X34805713Y5330000D01*
X34662856Y5401429D01*
X34377142Y5401429D01*
X34234285Y5330000D01*
X34162856Y5187143D01*
X34162856Y5044286D01*
X34877142Y4901429D01*
X33519999Y4401429D02*
X33519999Y5401429D01*
X33519999Y5115714D02*
X33448571Y5258571D01*
X33377142Y5330000D01*
X33234285Y5401429D01*
X33091428Y5401429D01*
X31448571Y4401429D02*
X31448571Y5401429D01*
X31448571Y5115714D02*
X31377143Y5258571D01*
X31305714Y5330000D01*
X31162857Y5401429D01*
X31020000Y5401429D01*
X29948572Y4472857D02*
X30091429Y4401429D01*
X30377143Y4401429D01*
X30520000Y4472857D01*
X30591429Y4615714D01*
X30591429Y5187143D01*
X30520000Y5330000D01*
X30377143Y5401429D01*
X30091429Y5401429D01*
X29948572Y5330000D01*
X29877143Y5187143D01*
X29877143Y5044286D01*
X30591429Y4901429D01*
X29377143Y5401429D02*
X29020000Y4401429D01*
X28662858Y5401429D01*
X27305715Y4401429D02*
X28162858Y4401429D01*
X27734286Y4401429D02*
X27734286Y5901429D01*
X27877143Y5687143D01*
X28020001Y5544286D01*
X28162858Y5472857D01*
X26662858Y4544286D02*
X26591430Y4472857D01*
X26662858Y4401429D01*
X26734287Y4472857D01*
X26662858Y4544286D01*
X26662858Y4401429D01*
X26020001Y5758571D02*
X25948572Y5830000D01*
X25805715Y5901429D01*
X25448572Y5901429D01*
X25305715Y5830000D01*
X25234286Y5758571D01*
X25162858Y5615714D01*
X25162858Y5472857D01*
X25234286Y5258571D01*
X26091429Y4401429D01*
X25162858Y4401429D01*
D12*
G36*
X49278100Y43128097D02*
X49166550Y43072478D01*
X49068092Y42970069D01*
X49040977Y42932136D01*
X49011438Y42882500D01*
X48992272Y42828588D01*
X48981307Y42756636D01*
X48976371Y42652878D01*
X48975287Y42515899D01*
X48980182Y42328185D01*
X48997196Y42187242D01*
X49029823Y42082092D01*
X49081558Y42001757D01*
X49155896Y41935259D01*
X49161358Y41931322D01*
X49234620Y41891047D01*
X49322840Y41871120D01*
X49435038Y41866207D01*
X49617433Y41866207D01*
X49617509Y41689143D01*
X49619207Y41590530D01*
X49629550Y41532686D01*
X49656578Y41497994D01*
X49708332Y41468836D01*
X49720761Y41462879D01*
X49778923Y41434961D01*
X49823956Y41417328D01*
X49857441Y41415806D01*
X49880962Y41436219D01*
X49896100Y41484393D01*
X49904437Y41566154D01*
X49907556Y41687328D01*
X49907040Y41853740D01*
X49904471Y42071215D01*
X49903668Y42136264D01*
X49900778Y42360498D01*
X49898188Y42507179D01*
X49617586Y42507179D01*
X49616009Y42382674D01*
X49609000Y42301213D01*
X49593142Y42247485D01*
X49565019Y42206177D01*
X49545925Y42186029D01*
X49467865Y42127079D01*
X49398753Y42122280D01*
X49327440Y42170962D01*
X49325632Y42172759D01*
X49296617Y42210382D01*
X49278967Y42261516D01*
X49270064Y42340262D01*
X49267291Y42460724D01*
X49267241Y42487412D01*
X49273942Y42653417D01*
X49295752Y42768495D01*
X49335235Y42838746D01*
X49394956Y42870271D01*
X49429472Y42873448D01*
X49511389Y42858540D01*
X49567579Y42809452D01*
X49601402Y42719638D01*
X49616220Y42582555D01*
X49617586Y42507179D01*
X49898188Y42507179D01*
X49897713Y42534048D01*
X49893753Y42664618D01*
X49888174Y42759913D01*
X49880254Y42827636D01*
X49869269Y42875493D01*
X49854499Y42911187D01*
X49835218Y42942422D01*
X49826951Y42954176D01*
X49717288Y43065203D01*
X49578635Y43128153D01*
X49418246Y43145703D01*
X49278100Y43128097D01*
X49278100Y43128097D01*
G37*
X49278100Y43128097D02*
X49166550Y43072478D01*
X49068092Y42970069D01*
X49040977Y42932136D01*
X49011438Y42882500D01*
X48992272Y42828588D01*
X48981307Y42756636D01*
X48976371Y42652878D01*
X48975287Y42515899D01*
X48980182Y42328185D01*
X48997196Y42187242D01*
X49029823Y42082092D01*
X49081558Y42001757D01*
X49155896Y41935259D01*
X49161358Y41931322D01*
X49234620Y41891047D01*
X49322840Y41871120D01*
X49435038Y41866207D01*
X49617433Y41866207D01*
X49617509Y41689143D01*
X49619207Y41590530D01*
X49629550Y41532686D01*
X49656578Y41497994D01*
X49708332Y41468836D01*
X49720761Y41462879D01*
X49778923Y41434961D01*
X49823956Y41417328D01*
X49857441Y41415806D01*
X49880962Y41436219D01*
X49896100Y41484393D01*
X49904437Y41566154D01*
X49907556Y41687328D01*
X49907040Y41853740D01*
X49904471Y42071215D01*
X49903668Y42136264D01*
X49900778Y42360498D01*
X49898188Y42507179D01*
X49617586Y42507179D01*
X49616009Y42382674D01*
X49609000Y42301213D01*
X49593142Y42247485D01*
X49565019Y42206177D01*
X49545925Y42186029D01*
X49467865Y42127079D01*
X49398753Y42122280D01*
X49327440Y42170962D01*
X49325632Y42172759D01*
X49296617Y42210382D01*
X49278967Y42261516D01*
X49270064Y42340262D01*
X49267291Y42460724D01*
X49267241Y42487412D01*
X49273942Y42653417D01*
X49295752Y42768495D01*
X49335235Y42838746D01*
X49394956Y42870271D01*
X49429472Y42873448D01*
X49511389Y42858540D01*
X49567579Y42809452D01*
X49601402Y42719638D01*
X49616220Y42582555D01*
X49617586Y42507179D01*
X49898188Y42507179D01*
X49897713Y42534048D01*
X49893753Y42664618D01*
X49888174Y42759913D01*
X49880254Y42827636D01*
X49869269Y42875493D01*
X49854499Y42911187D01*
X49835218Y42942422D01*
X49826951Y42954176D01*
X49717288Y43065203D01*
X49578635Y43128153D01*
X49418246Y43145703D01*
X49278100Y43128097D01*
G36*
X47032571Y43112281D02*
X46938877Y43058086D01*
X46873736Y43004293D01*
X46826093Y42947934D01*
X46793272Y42879013D01*
X46772594Y42787532D01*
X46761380Y42663494D01*
X46756951Y42496902D01*
X46756437Y42377149D01*
X46756437Y41936341D01*
X46880517Y41880717D01*
X47004598Y41825093D01*
X47019195Y42307905D01*
X47025227Y42488221D01*
X47031555Y42619099D01*
X47039394Y42709489D01*
X47049963Y42768336D01*
X47064477Y42804587D01*
X47084152Y42827190D01*
X47090465Y42832083D01*
X47186112Y42870294D01*
X47282793Y42855173D01*
X47340345Y42815057D01*
X47363755Y42786630D01*
X47379961Y42749328D01*
X47390259Y42692777D01*
X47395951Y42606606D01*
X47398336Y42480442D01*
X47398736Y42348958D01*
X47398814Y42184001D01*
X47401639Y42067239D01*
X47411093Y41988490D01*
X47431060Y41937569D01*
X47465424Y41904294D01*
X47518068Y41878480D01*
X47588383Y41851656D01*
X47665180Y41822458D01*
X47656038Y42340654D01*
X47652357Y42527461D01*
X47648050Y42665510D01*
X47641877Y42764432D01*
X47632598Y42833855D01*
X47618973Y42883410D01*
X47599761Y42922727D01*
X47576598Y42957416D01*
X47464848Y43068230D01*
X47328487Y43132311D01*
X47180175Y43147661D01*
X47032571Y43112281D01*
X47032571Y43112281D01*
G37*
X47032571Y43112281D02*
X46938877Y43058086D01*
X46873736Y43004293D01*
X46826093Y42947934D01*
X46793272Y42879013D01*
X46772594Y42787532D01*
X46761380Y42663494D01*
X46756951Y42496902D01*
X46756437Y42377149D01*
X46756437Y41936341D01*
X46880517Y41880717D01*
X47004598Y41825093D01*
X47019195Y42307905D01*
X47025227Y42488221D01*
X47031555Y42619099D01*
X47039394Y42709489D01*
X47049963Y42768336D01*
X47064477Y42804587D01*
X47084152Y42827190D01*
X47090465Y42832083D01*
X47186112Y42870294D01*
X47282793Y42855173D01*
X47340345Y42815057D01*
X47363755Y42786630D01*
X47379961Y42749328D01*
X47390259Y42692777D01*
X47395951Y42606606D01*
X47398336Y42480442D01*
X47398736Y42348958D01*
X47398814Y42184001D01*
X47401639Y42067239D01*
X47411093Y41988490D01*
X47431060Y41937569D01*
X47465424Y41904294D01*
X47518068Y41878480D01*
X47588383Y41851656D01*
X47665180Y41822458D01*
X47656038Y42340654D01*
X47652357Y42527461D01*
X47648050Y42665510D01*
X47641877Y42764432D01*
X47632598Y42833855D01*
X47618973Y42883410D01*
X47599761Y42922727D01*
X47576598Y42957416D01*
X47464848Y43068230D01*
X47328487Y43132311D01*
X47180175Y43147661D01*
X47032571Y43112281D01*
G36*
X50401779Y43123985D02*
X50264939Y43052032D01*
X50163949Y42936234D01*
X50128075Y42861787D01*
X50100161Y42750008D01*
X50085871Y42608773D01*
X50084516Y42454629D01*
X50095405Y42304121D01*
X50117847Y42173795D01*
X50151150Y42080197D01*
X50161385Y42064078D01*
X50282618Y41943751D01*
X50426613Y41871683D01*
X50582861Y41850592D01*
X50740852Y41883198D01*
X50784820Y41902747D01*
X50870444Y41962988D01*
X50945592Y42042865D01*
X50952694Y42052996D01*
X50981561Y42101819D01*
X51000643Y42154010D01*
X51011916Y42222715D01*
X51017355Y42321082D01*
X51018938Y42462256D01*
X51018965Y42493908D01*
X51018893Y42503981D01*
X50727011Y42503981D01*
X50725313Y42370744D01*
X50718628Y42282326D01*
X50704575Y42225215D01*
X50680771Y42185898D01*
X50668621Y42172759D01*
X50598764Y42122828D01*
X50530941Y42125105D01*
X50462365Y42168416D01*
X50421465Y42214654D01*
X50397242Y42282143D01*
X50383639Y42388567D01*
X50382706Y42400980D01*
X50380384Y42593853D01*
X50404650Y42737100D01*
X50455176Y42829840D01*
X50531632Y42871193D01*
X50558924Y42873448D01*
X50630589Y42862107D01*
X50679610Y42822816D01*
X50709582Y42747674D01*
X50724101Y42628778D01*
X50727011Y42503981D01*
X51018893Y42503981D01*
X51017878Y42644341D01*
X51013312Y42749451D01*
X51003312Y42822286D01*
X50985921Y42875892D01*
X50959184Y42923319D01*
X50953276Y42932136D01*
X50853968Y43050993D01*
X50745758Y43119992D01*
X50614019Y43147381D01*
X50569283Y43148719D01*
X50401779Y43123985D01*
X50401779Y43123985D01*
G37*
X50401779Y43123985D02*
X50264939Y43052032D01*
X50163949Y42936234D01*
X50128075Y42861787D01*
X50100161Y42750008D01*
X50085871Y42608773D01*
X50084516Y42454629D01*
X50095405Y42304121D01*
X50117847Y42173795D01*
X50151150Y42080197D01*
X50161385Y42064078D01*
X50282618Y41943751D01*
X50426613Y41871683D01*
X50582861Y41850592D01*
X50740852Y41883198D01*
X50784820Y41902747D01*
X50870444Y41962988D01*
X50945592Y42042865D01*
X50952694Y42052996D01*
X50981561Y42101819D01*
X51000643Y42154010D01*
X51011916Y42222715D01*
X51017355Y42321082D01*
X51018938Y42462256D01*
X51018965Y42493908D01*
X51018893Y42503981D01*
X50727011Y42503981D01*
X50725313Y42370744D01*
X50718628Y42282326D01*
X50704575Y42225215D01*
X50680771Y42185898D01*
X50668621Y42172759D01*
X50598764Y42122828D01*
X50530941Y42125105D01*
X50462365Y42168416D01*
X50421465Y42214654D01*
X50397242Y42282143D01*
X50383639Y42388567D01*
X50382706Y42400980D01*
X50380384Y42593853D01*
X50404650Y42737100D01*
X50455176Y42829840D01*
X50531632Y42871193D01*
X50558924Y42873448D01*
X50630589Y42862107D01*
X50679610Y42822816D01*
X50709582Y42747674D01*
X50724101Y42628778D01*
X50727011Y42503981D01*
X51018893Y42503981D01*
X51017878Y42644341D01*
X51013312Y42749451D01*
X51003312Y42822286D01*
X50985921Y42875892D01*
X50959184Y42923319D01*
X50953276Y42932136D01*
X50853968Y43050993D01*
X50745758Y43119992D01*
X50614019Y43147381D01*
X50569283Y43148719D01*
X50401779Y43123985D01*
G36*
X48134448Y43105324D02*
X48019342Y43027889D01*
X47930389Y42916051D01*
X47877251Y42773735D01*
X47866503Y42668985D01*
X47867724Y42625274D01*
X47877944Y42591806D01*
X47906039Y42561821D01*
X47960884Y42528560D01*
X48051355Y42485262D01*
X48186328Y42425167D01*
X48187011Y42424866D01*
X48311249Y42367963D01*
X48413127Y42317435D01*
X48482233Y42278720D01*
X48508154Y42257260D01*
X48508161Y42257087D01*
X48485315Y42210356D01*
X48431891Y42158846D01*
X48370558Y42121739D01*
X48339485Y42114368D01*
X48254711Y42139862D01*
X48181707Y42203709D01*
X48146087Y42273906D01*
X48111820Y42325657D01*
X48044697Y42384591D01*
X47965792Y42435504D01*
X47896179Y42463191D01*
X47881623Y42464713D01*
X47865237Y42439679D01*
X47864250Y42375689D01*
X47876292Y42289407D01*
X47898993Y42197499D01*
X47929986Y42116631D01*
X47931552Y42113491D01*
X48024819Y41983266D01*
X48145696Y41894689D01*
X48282973Y41851214D01*
X48425440Y41856294D01*
X48561888Y41913384D01*
X48567955Y41917398D01*
X48675290Y42014674D01*
X48745868Y42141591D01*
X48784926Y42308474D01*
X48790168Y42355361D01*
X48799452Y42576671D01*
X48788322Y42679876D01*
X48508161Y42679876D01*
X48504521Y42615497D01*
X48484611Y42596709D01*
X48434974Y42610765D01*
X48356733Y42643991D01*
X48269274Y42685641D01*
X48267101Y42686744D01*
X48192970Y42725735D01*
X48163219Y42751756D01*
X48170555Y42779035D01*
X48201447Y42814879D01*
X48280040Y42866749D01*
X48364677Y42870561D01*
X48440597Y42832811D01*
X48493035Y42759999D01*
X48508161Y42679876D01*
X48788322Y42679876D01*
X48780356Y42753739D01*
X48731366Y42894171D01*
X48663164Y42992553D01*
X48540065Y43091970D01*
X48404472Y43141289D01*
X48266045Y43144432D01*
X48134448Y43105324D01*
X48134448Y43105324D01*
G37*
X48134448Y43105324D02*
X48019342Y43027889D01*
X47930389Y42916051D01*
X47877251Y42773735D01*
X47866503Y42668985D01*
X47867724Y42625274D01*
X47877944Y42591806D01*
X47906039Y42561821D01*
X47960884Y42528560D01*
X48051355Y42485262D01*
X48186328Y42425167D01*
X48187011Y42424866D01*
X48311249Y42367963D01*
X48413127Y42317435D01*
X48482233Y42278720D01*
X48508154Y42257260D01*
X48508161Y42257087D01*
X48485315Y42210356D01*
X48431891Y42158846D01*
X48370558Y42121739D01*
X48339485Y42114368D01*
X48254711Y42139862D01*
X48181707Y42203709D01*
X48146087Y42273906D01*
X48111820Y42325657D01*
X48044697Y42384591D01*
X47965792Y42435504D01*
X47896179Y42463191D01*
X47881623Y42464713D01*
X47865237Y42439679D01*
X47864250Y42375689D01*
X47876292Y42289407D01*
X47898993Y42197499D01*
X47929986Y42116631D01*
X47931552Y42113491D01*
X48024819Y41983266D01*
X48145696Y41894689D01*
X48282973Y41851214D01*
X48425440Y41856294D01*
X48561888Y41913384D01*
X48567955Y41917398D01*
X48675290Y42014674D01*
X48745868Y42141591D01*
X48784926Y42308474D01*
X48790168Y42355361D01*
X48799452Y42576671D01*
X48788322Y42679876D01*
X48508161Y42679876D01*
X48504521Y42615497D01*
X48484611Y42596709D01*
X48434974Y42610765D01*
X48356733Y42643991D01*
X48269274Y42685641D01*
X48267101Y42686744D01*
X48192970Y42725735D01*
X48163219Y42751756D01*
X48170555Y42779035D01*
X48201447Y42814879D01*
X48280040Y42866749D01*
X48364677Y42870561D01*
X48440597Y42832811D01*
X48493035Y42759999D01*
X48508161Y42679876D01*
X48788322Y42679876D01*
X48780356Y42753739D01*
X48731366Y42894171D01*
X48663164Y42992553D01*
X48540065Y43091970D01*
X48404472Y43141289D01*
X48266045Y43144432D01*
X48134448Y43105324D01*
G36*
X45705402Y43266143D02*
X45696846Y43146812D01*
X45687019Y43076494D01*
X45673401Y43045821D01*
X45653473Y43045429D01*
X45647011Y43049090D01*
X45561060Y43075602D01*
X45449255Y43074054D01*
X45335586Y43046801D01*
X45264490Y43011545D01*
X45191595Y42955222D01*
X45138307Y42891481D01*
X45101725Y42810490D01*
X45078950Y42702414D01*
X45067081Y42557420D01*
X45063218Y42365674D01*
X45063149Y42328891D01*
X45063103Y41915712D01*
X45155046Y41883661D01*
X45220348Y41861856D01*
X45256176Y41851703D01*
X45257230Y41851609D01*
X45260758Y41879140D01*
X45263761Y41955077D01*
X45266010Y42069435D01*
X45267276Y42212231D01*
X45267471Y42299049D01*
X45267877Y42470227D01*
X45269968Y42592912D01*
X45275053Y42677000D01*
X45284440Y42732386D01*
X45299439Y42768968D01*
X45321358Y42796641D01*
X45335043Y42809968D01*
X45429051Y42863672D01*
X45531636Y42867693D01*
X45624710Y42822275D01*
X45641922Y42805877D01*
X45667168Y42775043D01*
X45684680Y42738469D01*
X45695858Y42685585D01*
X45702104Y42605823D01*
X45704818Y42488615D01*
X45705402Y42327009D01*
X45705402Y41915712D01*
X45797345Y41883661D01*
X45862647Y41861856D01*
X45898475Y41851703D01*
X45899529Y41851609D01*
X45902225Y41879552D01*
X45904655Y41958370D01*
X45906722Y42080547D01*
X45908329Y42238568D01*
X45909377Y42424917D01*
X45909769Y42632080D01*
X45909770Y42641294D01*
X45909770Y43430980D01*
X45814885Y43471003D01*
X45720000Y43511027D01*
X45705402Y43266143D01*
X45705402Y43266143D01*
G37*
X45705402Y43266143D02*
X45696846Y43146812D01*
X45687019Y43076494D01*
X45673401Y43045821D01*
X45653473Y43045429D01*
X45647011Y43049090D01*
X45561060Y43075602D01*
X45449255Y43074054D01*
X45335586Y43046801D01*
X45264490Y43011545D01*
X45191595Y42955222D01*
X45138307Y42891481D01*
X45101725Y42810490D01*
X45078950Y42702414D01*
X45067081Y42557420D01*
X45063218Y42365674D01*
X45063149Y42328891D01*
X45063103Y41915712D01*
X45155046Y41883661D01*
X45220348Y41861856D01*
X45256176Y41851703D01*
X45257230Y41851609D01*
X45260758Y41879140D01*
X45263761Y41955077D01*
X45266010Y42069435D01*
X45267276Y42212231D01*
X45267471Y42299049D01*
X45267877Y42470227D01*
X45269968Y42592912D01*
X45275053Y42677000D01*
X45284440Y42732386D01*
X45299439Y42768968D01*
X45321358Y42796641D01*
X45335043Y42809968D01*
X45429051Y42863672D01*
X45531636Y42867693D01*
X45624710Y42822275D01*
X45641922Y42805877D01*
X45667168Y42775043D01*
X45684680Y42738469D01*
X45695858Y42685585D01*
X45702104Y42605823D01*
X45704818Y42488615D01*
X45705402Y42327009D01*
X45705402Y41915712D01*
X45797345Y41883661D01*
X45862647Y41861856D01*
X45898475Y41851703D01*
X45899529Y41851609D01*
X45902225Y41879552D01*
X45904655Y41958370D01*
X45906722Y42080547D01*
X45908329Y42238568D01*
X45909377Y42424917D01*
X45909769Y42632080D01*
X45909770Y42641294D01*
X45909770Y43430980D01*
X45814885Y43471003D01*
X45720000Y43511027D01*
X45705402Y43266143D01*
G36*
X44370056Y43065640D02*
X44255657Y43023158D01*
X44254348Y43022342D01*
X44183597Y42970270D01*
X44131364Y42909416D01*
X44094629Y42830113D01*
X44070366Y42722691D01*
X44055555Y42577483D01*
X44047171Y42384821D01*
X44046436Y42357372D01*
X44035880Y41943479D01*
X44124709Y41897544D01*
X44188982Y41866502D01*
X44227790Y41851794D01*
X44229585Y41851609D01*
X44236300Y41878750D01*
X44241635Y41951959D01*
X44244917Y42058919D01*
X44245632Y42145531D01*
X44245649Y42285838D01*
X44252063Y42373949D01*
X44274420Y42415975D01*
X44322268Y42418025D01*
X44405151Y42386210D01*
X44530287Y42327728D01*
X44622303Y42279155D01*
X44669629Y42237014D01*
X44683542Y42191084D01*
X44683563Y42188811D01*
X44660605Y42109689D01*
X44592630Y42066945D01*
X44488602Y42060754D01*
X44413670Y42061828D01*
X44374161Y42040247D01*
X44349522Y41988409D01*
X44335341Y41922368D01*
X44355777Y41884896D01*
X44363472Y41879533D01*
X44435917Y41857994D01*
X44537367Y41854945D01*
X44641843Y41869222D01*
X44715875Y41895312D01*
X44818228Y41982215D01*
X44876409Y42103184D01*
X44887931Y42197692D01*
X44879138Y42282938D01*
X44847320Y42352524D01*
X44784316Y42414328D01*
X44681969Y42476228D01*
X44532118Y42546103D01*
X44522988Y42550052D01*
X44388003Y42612412D01*
X44304706Y42663554D01*
X44269003Y42709512D01*
X44276797Y42756317D01*
X44323993Y42810002D01*
X44338106Y42822356D01*
X44432641Y42870259D01*
X44530594Y42868242D01*
X44615903Y42821276D01*
X44672504Y42734331D01*
X44677763Y42717266D01*
X44728977Y42634496D01*
X44793963Y42594628D01*
X44887931Y42555118D01*
X44887931Y42657342D01*
X44859347Y42805928D01*
X44774505Y42942216D01*
X44730355Y42987809D01*
X44629995Y43046326D01*
X44502365Y43072816D01*
X44370056Y43065640D01*
X44370056Y43065640D01*
G37*
X44370056Y43065640D02*
X44255657Y43023158D01*
X44254348Y43022342D01*
X44183597Y42970270D01*
X44131364Y42909416D01*
X44094629Y42830113D01*
X44070366Y42722691D01*
X44055555Y42577483D01*
X44047171Y42384821D01*
X44046436Y42357372D01*
X44035880Y41943479D01*
X44124709Y41897544D01*
X44188982Y41866502D01*
X44227790Y41851794D01*
X44229585Y41851609D01*
X44236300Y41878750D01*
X44241635Y41951959D01*
X44244917Y42058919D01*
X44245632Y42145531D01*
X44245649Y42285838D01*
X44252063Y42373949D01*
X44274420Y42415975D01*
X44322268Y42418025D01*
X44405151Y42386210D01*
X44530287Y42327728D01*
X44622303Y42279155D01*
X44669629Y42237014D01*
X44683542Y42191084D01*
X44683563Y42188811D01*
X44660605Y42109689D01*
X44592630Y42066945D01*
X44488602Y42060754D01*
X44413670Y42061828D01*
X44374161Y42040247D01*
X44349522Y41988409D01*
X44335341Y41922368D01*
X44355777Y41884896D01*
X44363472Y41879533D01*
X44435917Y41857994D01*
X44537367Y41854945D01*
X44641843Y41869222D01*
X44715875Y41895312D01*
X44818228Y41982215D01*
X44876409Y42103184D01*
X44887931Y42197692D01*
X44879138Y42282938D01*
X44847320Y42352524D01*
X44784316Y42414328D01*
X44681969Y42476228D01*
X44532118Y42546103D01*
X44522988Y42550052D01*
X44388003Y42612412D01*
X44304706Y42663554D01*
X44269003Y42709512D01*
X44276797Y42756317D01*
X44323993Y42810002D01*
X44338106Y42822356D01*
X44432641Y42870259D01*
X44530594Y42868242D01*
X44615903Y42821276D01*
X44672504Y42734331D01*
X44677763Y42717266D01*
X44728977Y42634496D01*
X44793963Y42594628D01*
X44887931Y42555118D01*
X44887931Y42657342D01*
X44859347Y42805928D01*
X44774505Y42942216D01*
X44730355Y42987809D01*
X44629995Y43046326D01*
X44502365Y43072816D01*
X44370056Y43065640D01*
G36*
X43384057Y43068080D02*
X43251435Y43019141D01*
X43143990Y42932581D01*
X43101968Y42871648D01*
X43056157Y42759839D01*
X43057109Y42678994D01*
X43105192Y42624622D01*
X43122983Y42615376D01*
X43199796Y42586550D01*
X43239024Y42593935D01*
X43252311Y42642342D01*
X43252988Y42669080D01*
X43277314Y42767452D01*
X43340719Y42836266D01*
X43428846Y42869502D01*
X43527337Y42861139D01*
X43607398Y42817704D01*
X43634439Y42792928D01*
X43653606Y42762871D01*
X43666554Y42717435D01*
X43674936Y42646524D01*
X43680407Y42540040D01*
X43684622Y42387888D01*
X43685713Y42339713D01*
X43689693Y42174905D01*
X43694219Y42058912D01*
X43701005Y41982167D01*
X43711769Y41935107D01*
X43728227Y41908165D01*
X43752094Y41891777D01*
X43767374Y41884537D01*
X43832267Y41859780D01*
X43870466Y41851609D01*
X43883088Y41878897D01*
X43890792Y41961397D01*
X43893620Y42100059D01*
X43891614Y42295838D01*
X43890989Y42326035D01*
X43886579Y42504651D01*
X43881365Y42635077D01*
X43873945Y42727508D01*
X43862918Y42792142D01*
X43846883Y42839175D01*
X43824439Y42878804D01*
X43812698Y42895785D01*
X43745381Y42970920D01*
X43670090Y43029362D01*
X43660872Y43034464D01*
X43525867Y43074740D01*
X43384057Y43068080D01*
X43384057Y43068080D01*
G37*
X43384057Y43068080D02*
X43251435Y43019141D01*
X43143990Y42932581D01*
X43101968Y42871648D01*
X43056157Y42759839D01*
X43057109Y42678994D01*
X43105192Y42624622D01*
X43122983Y42615376D01*
X43199796Y42586550D01*
X43239024Y42593935D01*
X43252311Y42642342D01*
X43252988Y42669080D01*
X43277314Y42767452D01*
X43340719Y42836266D01*
X43428846Y42869502D01*
X43527337Y42861139D01*
X43607398Y42817704D01*
X43634439Y42792928D01*
X43653606Y42762871D01*
X43666554Y42717435D01*
X43674936Y42646524D01*
X43680407Y42540040D01*
X43684622Y42387888D01*
X43685713Y42339713D01*
X43689693Y42174905D01*
X43694219Y42058912D01*
X43701005Y41982167D01*
X43711769Y41935107D01*
X43728227Y41908165D01*
X43752094Y41891777D01*
X43767374Y41884537D01*
X43832267Y41859780D01*
X43870466Y41851609D01*
X43883088Y41878897D01*
X43890792Y41961397D01*
X43893620Y42100059D01*
X43891614Y42295838D01*
X43890989Y42326035D01*
X43886579Y42504651D01*
X43881365Y42635077D01*
X43873945Y42727508D01*
X43862918Y42792142D01*
X43846883Y42839175D01*
X43824439Y42878804D01*
X43812698Y42895785D01*
X43745381Y42970920D01*
X43670090Y43029362D01*
X43660872Y43034464D01*
X43525867Y43074740D01*
X43384057Y43068080D01*
G36*
X42056086Y42835545D02*
X42056457Y42617339D01*
X42057892Y42449481D01*
X42060998Y42323930D01*
X42066378Y42232645D01*
X42074638Y42167585D01*
X42086384Y42120709D01*
X42102219Y42083976D01*
X42114210Y42063009D01*
X42213510Y41949306D01*
X42339412Y41878035D01*
X42478709Y41852462D01*
X42618195Y41875850D01*
X42701257Y41917881D01*
X42788455Y41990589D01*
X42847883Y42079388D01*
X42883739Y42195680D01*
X42900219Y42350865D01*
X42902553Y42464713D01*
X42902239Y42472894D01*
X42698276Y42472894D01*
X42697030Y42342343D01*
X42691322Y42255920D01*
X42678196Y42199382D01*
X42654694Y42158486D01*
X42626614Y42127638D01*
X42532312Y42068095D01*
X42431060Y42063008D01*
X42335364Y42112721D01*
X42327916Y42119457D01*
X42296126Y42154498D01*
X42276192Y42196189D01*
X42265400Y42258238D01*
X42261035Y42354356D01*
X42260345Y42460621D01*
X42261841Y42594120D01*
X42268036Y42683178D01*
X42281486Y42741707D01*
X42304749Y42783618D01*
X42323825Y42805877D01*
X42412437Y42862015D01*
X42514492Y42868765D01*
X42611905Y42825886D01*
X42630704Y42809968D01*
X42662707Y42774618D01*
X42682682Y42732498D01*
X42693407Y42669749D01*
X42697661Y42572513D01*
X42698276Y42472894D01*
X42902239Y42472894D01*
X42895496Y42648053D01*
X42871528Y42785805D01*
X42826452Y42889368D01*
X42756072Y42970144D01*
X42701257Y43011545D01*
X42601624Y43056272D01*
X42486145Y43077033D01*
X42378801Y43071475D01*
X42318736Y43049057D01*
X42295165Y43042677D01*
X42279523Y43066465D01*
X42268605Y43130212D01*
X42260345Y43227313D01*
X42251301Y43335459D01*
X42238739Y43400525D01*
X42215881Y43437732D01*
X42175949Y43462301D01*
X42150862Y43473181D01*
X42055977Y43512928D01*
X42056086Y42835545D01*
X42056086Y42835545D01*
G37*
X42056086Y42835545D02*
X42056457Y42617339D01*
X42057892Y42449481D01*
X42060998Y42323930D01*
X42066378Y42232645D01*
X42074638Y42167585D01*
X42086384Y42120709D01*
X42102219Y42083976D01*
X42114210Y42063009D01*
X42213510Y41949306D01*
X42339412Y41878035D01*
X42478709Y41852462D01*
X42618195Y41875850D01*
X42701257Y41917881D01*
X42788455Y41990589D01*
X42847883Y42079388D01*
X42883739Y42195680D01*
X42900219Y42350865D01*
X42902553Y42464713D01*
X42902239Y42472894D01*
X42698276Y42472894D01*
X42697030Y42342343D01*
X42691322Y42255920D01*
X42678196Y42199382D01*
X42654694Y42158486D01*
X42626614Y42127638D01*
X42532312Y42068095D01*
X42431060Y42063008D01*
X42335364Y42112721D01*
X42327916Y42119457D01*
X42296126Y42154498D01*
X42276192Y42196189D01*
X42265400Y42258238D01*
X42261035Y42354356D01*
X42260345Y42460621D01*
X42261841Y42594120D01*
X42268036Y42683178D01*
X42281486Y42741707D01*
X42304749Y42783618D01*
X42323825Y42805877D01*
X42412437Y42862015D01*
X42514492Y42868765D01*
X42611905Y42825886D01*
X42630704Y42809968D01*
X42662707Y42774618D01*
X42682682Y42732498D01*
X42693407Y42669749D01*
X42697661Y42572513D01*
X42698276Y42472894D01*
X42902239Y42472894D01*
X42895496Y42648053D01*
X42871528Y42785805D01*
X42826452Y42889368D01*
X42756072Y42970144D01*
X42701257Y43011545D01*
X42601624Y43056272D01*
X42486145Y43077033D01*
X42378801Y43071475D01*
X42318736Y43049057D01*
X42295165Y43042677D01*
X42279523Y43066465D01*
X42268605Y43130212D01*
X42260345Y43227313D01*
X42251301Y43335459D01*
X42238739Y43400525D01*
X42215881Y43437732D01*
X42175949Y43462301D01*
X42150862Y43473181D01*
X42055977Y43512928D01*
X42056086Y42835545D01*
G36*
X40869876Y43050160D02*
X40865421Y42973347D01*
X40861929Y42856609D01*
X40859685Y42709179D01*
X40858965Y42554545D01*
X40858965Y42031273D01*
X40951355Y41938883D01*
X41015022Y41881953D01*
X41070911Y41858893D01*
X41147298Y41860353D01*
X41177620Y41864066D01*
X41272390Y41874874D01*
X41350778Y41881067D01*
X41369885Y41881639D01*
X41434301Y41877898D01*
X41526429Y41868506D01*
X41562150Y41864066D01*
X41649886Y41857199D01*
X41708847Y41872115D01*
X41767310Y41918165D01*
X41788415Y41938883D01*
X41880805Y42031273D01*
X41880805Y43010053D01*
X41806442Y43043934D01*
X41742410Y43069030D01*
X41704948Y43077816D01*
X41695343Y43050050D01*
X41686365Y42972470D01*
X41678614Y42853652D01*
X41672686Y42702172D01*
X41669827Y42574195D01*
X41661839Y42070575D01*
X41592152Y42060722D01*
X41528771Y42067611D01*
X41497714Y42089917D01*
X41489033Y42131621D01*
X41481622Y42220456D01*
X41476069Y42345166D01*
X41472964Y42494493D01*
X41472516Y42571339D01*
X41472069Y43013713D01*
X41380126Y43045765D01*
X41315051Y43067557D01*
X41279653Y43077719D01*
X41278632Y43077816D01*
X41275080Y43050191D01*
X41271177Y42973589D01*
X41267249Y42857421D01*
X41263624Y42711096D01*
X41261092Y42574195D01*
X41253103Y42070575D01*
X41077931Y42070575D01*
X41069893Y42530035D01*
X41061854Y42989495D01*
X40976457Y43033656D01*
X40913407Y43063981D01*
X40876090Y43077742D01*
X40875013Y43077816D01*
X40869876Y43050160D01*
X40869876Y43050160D01*
G37*
X40869876Y43050160D02*
X40865421Y42973347D01*
X40861929Y42856609D01*
X40859685Y42709179D01*
X40858965Y42554545D01*
X40858965Y42031273D01*
X40951355Y41938883D01*
X41015022Y41881953D01*
X41070911Y41858893D01*
X41147298Y41860353D01*
X41177620Y41864066D01*
X41272390Y41874874D01*
X41350778Y41881067D01*
X41369885Y41881639D01*
X41434301Y41877898D01*
X41526429Y41868506D01*
X41562150Y41864066D01*
X41649886Y41857199D01*
X41708847Y41872115D01*
X41767310Y41918165D01*
X41788415Y41938883D01*
X41880805Y42031273D01*
X41880805Y43010053D01*
X41806442Y43043934D01*
X41742410Y43069030D01*
X41704948Y43077816D01*
X41695343Y43050050D01*
X41686365Y42972470D01*
X41678614Y42853652D01*
X41672686Y42702172D01*
X41669827Y42574195D01*
X41661839Y42070575D01*
X41592152Y42060722D01*
X41528771Y42067611D01*
X41497714Y42089917D01*
X41489033Y42131621D01*
X41481622Y42220456D01*
X41476069Y42345166D01*
X41472964Y42494493D01*
X41472516Y42571339D01*
X41472069Y43013713D01*
X41380126Y43045765D01*
X41315051Y43067557D01*
X41279653Y43077719D01*
X41278632Y43077816D01*
X41275080Y43050191D01*
X41271177Y42973589D01*
X41267249Y42857421D01*
X41263624Y42711096D01*
X41261092Y42574195D01*
X41253103Y42070575D01*
X41077931Y42070575D01*
X41069893Y42530035D01*
X41061854Y42989495D01*
X40976457Y43033656D01*
X40913407Y43063981D01*
X40876090Y43077742D01*
X40875013Y43077816D01*
X40869876Y43050160D01*
G36*
X40135594Y43054844D02*
X40051531Y43016607D01*
X39985550Y42970274D01*
X39937206Y42918468D01*
X39903828Y42851637D01*
X39882747Y42760231D01*
X39871293Y42634699D01*
X39866797Y42465492D01*
X39866322Y42354067D01*
X39866322Y41919373D01*
X39940684Y41885491D01*
X39999254Y41860728D01*
X40028270Y41851609D01*
X40033821Y41878743D01*
X40038225Y41951906D01*
X40040922Y42058737D01*
X40041494Y42143563D01*
X40043954Y42266113D01*
X40050588Y42363332D01*
X40060274Y42422866D01*
X40067968Y42435517D01*
X40119689Y42422598D01*
X40200883Y42389461D01*
X40294898Y42344539D01*
X40385083Y42296265D01*
X40454785Y42253072D01*
X40487352Y42223392D01*
X40487481Y42223071D01*
X40484680Y42168143D01*
X40459561Y42115708D01*
X40415459Y42073119D01*
X40351091Y42058874D01*
X40296079Y42060534D01*
X40218165Y42061755D01*
X40177268Y42043502D01*
X40152705Y41995274D01*
X40149608Y41986180D01*
X40138960Y41917402D01*
X40167435Y41875640D01*
X40241656Y41855737D01*
X40321832Y41852056D01*
X40466110Y41879342D01*
X40540797Y41918310D01*
X40633037Y42009852D01*
X40681957Y42122218D01*
X40686346Y42240949D01*
X40644999Y42351589D01*
X40582803Y42420920D01*
X40520706Y42459735D01*
X40423105Y42508875D01*
X40309368Y42558708D01*
X40290410Y42566323D01*
X40165479Y42621455D01*
X40093461Y42670046D01*
X40070300Y42718353D01*
X40091936Y42772630D01*
X40129080Y42815057D01*
X40216873Y42867298D01*
X40313470Y42871216D01*
X40402056Y42830959D01*
X40465814Y42750674D01*
X40474183Y42729960D01*
X40522904Y42653775D01*
X40594035Y42597215D01*
X40683793Y42550799D01*
X40683793Y42682416D01*
X40678510Y42762832D01*
X40655858Y42826214D01*
X40605633Y42893837D01*
X40557418Y42945924D01*
X40482446Y43019678D01*
X40424194Y43059298D01*
X40361628Y43075190D01*
X40290807Y43077816D01*
X40135594Y43054844D01*
X40135594Y43054844D01*
G37*
X40135594Y43054844D02*
X40051531Y43016607D01*
X39985550Y42970274D01*
X39937206Y42918468D01*
X39903828Y42851637D01*
X39882747Y42760231D01*
X39871293Y42634699D01*
X39866797Y42465492D01*
X39866322Y42354067D01*
X39866322Y41919373D01*
X39940684Y41885491D01*
X39999254Y41860728D01*
X40028270Y41851609D01*
X40033821Y41878743D01*
X40038225Y41951906D01*
X40040922Y42058737D01*
X40041494Y42143563D01*
X40043954Y42266113D01*
X40050588Y42363332D01*
X40060274Y42422866D01*
X40067968Y42435517D01*
X40119689Y42422598D01*
X40200883Y42389461D01*
X40294898Y42344539D01*
X40385083Y42296265D01*
X40454785Y42253072D01*
X40487352Y42223392D01*
X40487481Y42223071D01*
X40484680Y42168143D01*
X40459561Y42115708D01*
X40415459Y42073119D01*
X40351091Y42058874D01*
X40296079Y42060534D01*
X40218165Y42061755D01*
X40177268Y42043502D01*
X40152705Y41995274D01*
X40149608Y41986180D01*
X40138960Y41917402D01*
X40167435Y41875640D01*
X40241656Y41855737D01*
X40321832Y41852056D01*
X40466110Y41879342D01*
X40540797Y41918310D01*
X40633037Y42009852D01*
X40681957Y42122218D01*
X40686346Y42240949D01*
X40644999Y42351589D01*
X40582803Y42420920D01*
X40520706Y42459735D01*
X40423105Y42508875D01*
X40309368Y42558708D01*
X40290410Y42566323D01*
X40165479Y42621455D01*
X40093461Y42670046D01*
X40070300Y42718353D01*
X40091936Y42772630D01*
X40129080Y42815057D01*
X40216873Y42867298D01*
X40313470Y42871216D01*
X40402056Y42830959D01*
X40465814Y42750674D01*
X40474183Y42729960D01*
X40522904Y42653775D01*
X40594035Y42597215D01*
X40683793Y42550799D01*
X40683793Y42682416D01*
X40678510Y42762832D01*
X40655858Y42826214D01*
X40605633Y42893837D01*
X40557418Y42945924D01*
X40482446Y43019678D01*
X40424194Y43059298D01*
X40361628Y43075190D01*
X40290807Y43077816D01*
X40135594Y43054844D01*
G36*
X39114310Y43049982D02*
X39079415Y43034731D01*
X38996123Y42968765D01*
X38924897Y42873382D01*
X38880847Y42771594D01*
X38873678Y42721413D01*
X38897715Y42651353D01*
X38950439Y42614283D01*
X39006969Y42591836D01*
X39032854Y42587700D01*
X39045458Y42617717D01*
X39070346Y42683039D01*
X39081265Y42712555D01*
X39142492Y42814652D01*
X39231139Y42865577D01*
X39344807Y42864011D01*
X39353226Y42862006D01*
X39413912Y42833233D01*
X39458526Y42777141D01*
X39488998Y42686837D01*
X39507256Y42555429D01*
X39515229Y42376026D01*
X39515977Y42280567D01*
X39516348Y42130087D01*
X39518777Y42027505D01*
X39525240Y41962328D01*
X39537712Y41924062D01*
X39558167Y41902215D01*
X39588581Y41886293D01*
X39590339Y41885491D01*
X39648909Y41860728D01*
X39677925Y41851609D01*
X39682384Y41879178D01*
X39686201Y41955380D01*
X39689101Y42070459D01*
X39690809Y42214659D01*
X39691149Y42320186D01*
X39689412Y42524387D01*
X39682618Y42679303D01*
X39668393Y42793976D01*
X39644362Y42877449D01*
X39608152Y42938764D01*
X39557388Y42986966D01*
X39507261Y43020607D01*
X39386725Y43065381D01*
X39246443Y43075479D01*
X39114310Y43049982D01*
X39114310Y43049982D01*
G37*
X39114310Y43049982D02*
X39079415Y43034731D01*
X38996123Y42968765D01*
X38924897Y42873382D01*
X38880847Y42771594D01*
X38873678Y42721413D01*
X38897715Y42651353D01*
X38950439Y42614283D01*
X39006969Y42591836D01*
X39032854Y42587700D01*
X39045458Y42617717D01*
X39070346Y42683039D01*
X39081265Y42712555D01*
X39142492Y42814652D01*
X39231139Y42865577D01*
X39344807Y42864011D01*
X39353226Y42862006D01*
X39413912Y42833233D01*
X39458526Y42777141D01*
X39488998Y42686837D01*
X39507256Y42555429D01*
X39515229Y42376026D01*
X39515977Y42280567D01*
X39516348Y42130087D01*
X39518777Y42027505D01*
X39525240Y41962328D01*
X39537712Y41924062D01*
X39558167Y41902215D01*
X39588581Y41886293D01*
X39590339Y41885491D01*
X39648909Y41860728D01*
X39677925Y41851609D01*
X39682384Y41879178D01*
X39686201Y41955380D01*
X39689101Y42070459D01*
X39690809Y42214659D01*
X39691149Y42320186D01*
X39689412Y42524387D01*
X39682618Y42679303D01*
X39668393Y42793976D01*
X39644362Y42877449D01*
X39608152Y42938764D01*
X39557388Y42986966D01*
X39507261Y43020607D01*
X39386725Y43065381D01*
X39246443Y43075479D01*
X39114310Y43049982D01*
G36*
X38106561Y43033460D02*
X37991050Y42957966D01*
X37935336Y42890383D01*
X37891196Y42767745D01*
X37887691Y42670702D01*
X37895632Y42540944D01*
X38194885Y42409961D01*
X38340389Y42343042D01*
X38435463Y42289210D01*
X38484899Y42242584D01*
X38493489Y42197280D01*
X38466028Y42147418D01*
X38435747Y42114368D01*
X38347637Y42061367D01*
X38251804Y42057653D01*
X38163788Y42098959D01*
X38099131Y42181017D01*
X38087567Y42209992D01*
X38032175Y42300491D01*
X37968447Y42339060D01*
X37881034Y42372054D01*
X37881034Y42246966D01*
X37888762Y42161844D01*
X37919034Y42090062D01*
X37982482Y42007644D01*
X37991912Y41996934D01*
X38062487Y41923609D01*
X38123153Y41884258D01*
X38199050Y41866155D01*
X38261970Y41860226D01*
X38374513Y41858749D01*
X38454630Y41877465D01*
X38504610Y41905253D01*
X38583162Y41966359D01*
X38637537Y42032446D01*
X38671948Y42115559D01*
X38690612Y42227746D01*
X38697744Y42381054D01*
X38698313Y42458864D01*
X38696378Y42552147D01*
X38520101Y42552147D01*
X38518056Y42502104D01*
X38512961Y42493908D01*
X38479334Y42505042D01*
X38406970Y42534507D01*
X38310253Y42576399D01*
X38290027Y42585403D01*
X38167797Y42647558D01*
X38100453Y42702185D01*
X38085652Y42753351D01*
X38121053Y42805124D01*
X38150289Y42828000D01*
X38255784Y42873750D01*
X38354524Y42866192D01*
X38437188Y42810349D01*
X38494452Y42711247D01*
X38512812Y42632586D01*
X38520101Y42552147D01*
X38696378Y42552147D01*
X38694541Y42640649D01*
X38680641Y42775147D01*
X38653106Y42873084D01*
X38608428Y42945189D01*
X38543099Y43002187D01*
X38514617Y43020607D01*
X38385237Y43068578D01*
X38243588Y43071597D01*
X38106561Y43033460D01*
X38106561Y43033460D01*
G37*
X38106561Y43033460D02*
X37991050Y42957966D01*
X37935336Y42890383D01*
X37891196Y42767745D01*
X37887691Y42670702D01*
X37895632Y42540944D01*
X38194885Y42409961D01*
X38340389Y42343042D01*
X38435463Y42289210D01*
X38484899Y42242584D01*
X38493489Y42197280D01*
X38466028Y42147418D01*
X38435747Y42114368D01*
X38347637Y42061367D01*
X38251804Y42057653D01*
X38163788Y42098959D01*
X38099131Y42181017D01*
X38087567Y42209992D01*
X38032175Y42300491D01*
X37968447Y42339060D01*
X37881034Y42372054D01*
X37881034Y42246966D01*
X37888762Y42161844D01*
X37919034Y42090062D01*
X37982482Y42007644D01*
X37991912Y41996934D01*
X38062487Y41923609D01*
X38123153Y41884258D01*
X38199050Y41866155D01*
X38261970Y41860226D01*
X38374513Y41858749D01*
X38454630Y41877465D01*
X38504610Y41905253D01*
X38583162Y41966359D01*
X38637537Y42032446D01*
X38671948Y42115559D01*
X38690612Y42227746D01*
X38697744Y42381054D01*
X38698313Y42458864D01*
X38696378Y42552147D01*
X38520101Y42552147D01*
X38518056Y42502104D01*
X38512961Y42493908D01*
X38479334Y42505042D01*
X38406970Y42534507D01*
X38310253Y42576399D01*
X38290027Y42585403D01*
X38167797Y42647558D01*
X38100453Y42702185D01*
X38085652Y42753351D01*
X38121053Y42805124D01*
X38150289Y42828000D01*
X38255784Y42873750D01*
X38354524Y42866192D01*
X38437188Y42810349D01*
X38494452Y42711247D01*
X38512812Y42632586D01*
X38520101Y42552147D01*
X38696378Y42552147D01*
X38694541Y42640649D01*
X38680641Y42775147D01*
X38653106Y42873084D01*
X38608428Y42945189D01*
X38543099Y43002187D01*
X38514617Y43020607D01*
X38385237Y43068578D01*
X38243588Y43071597D01*
X38106561Y43033460D01*
G36*
X44240986Y52537002D02*
X44082994Y52536137D01*
X43968653Y52533795D01*
X43890593Y52529238D01*
X43841446Y52521730D01*
X43813841Y52510534D01*
X43800408Y52494912D01*
X43793779Y52474127D01*
X43793135Y52471437D01*
X43783065Y52422887D01*
X43764425Y52327095D01*
X43739155Y52194257D01*
X43709193Y52034569D01*
X43676478Y51858226D01*
X43675336Y51852033D01*
X43642567Y51679218D01*
X43611907Y51526531D01*
X43585336Y51403129D01*
X43564833Y51318169D01*
X43552374Y51280810D01*
X43551780Y51280148D01*
X43515081Y51261905D01*
X43439414Y51231503D01*
X43341122Y51195507D01*
X43340575Y51195315D01*
X43216767Y51148778D01*
X43070804Y51089496D01*
X42933219Y51029891D01*
X42926707Y51026944D01*
X42702610Y50925235D01*
X42206381Y51264103D01*
X42054154Y51367408D01*
X41916259Y51459763D01*
X41800685Y51535916D01*
X41715421Y51590615D01*
X41668456Y51618607D01*
X41663996Y51620683D01*
X41629866Y51611440D01*
X41566119Y51566844D01*
X41470269Y51484791D01*
X41339831Y51363179D01*
X41206672Y51233795D01*
X41078306Y51106298D01*
X40963419Y50989954D01*
X40868927Y50891948D01*
X40801747Y50819464D01*
X40768794Y50779687D01*
X40767568Y50777639D01*
X40763926Y50750344D01*
X40777650Y50705766D01*
X40812131Y50637888D01*
X40870761Y50540689D01*
X40956930Y50408149D01*
X41071800Y50237524D01*
X41173746Y50087345D01*
X41264877Y49952650D01*
X41339927Y49841260D01*
X41393631Y49760995D01*
X41420720Y49719675D01*
X41422426Y49716870D01*
X41419118Y49677279D01*
X41394047Y49600331D01*
X41352202Y49500568D01*
X41337288Y49468709D01*
X41272214Y49326774D01*
X41202788Y49165727D01*
X41146391Y49026379D01*
X41105753Y48922956D01*
X41073474Y48844358D01*
X41054822Y48803280D01*
X41052503Y48800115D01*
X41018197Y48794872D01*
X40937331Y48780506D01*
X40820657Y48759063D01*
X40678925Y48732587D01*
X40522890Y48703123D01*
X40363302Y48672717D01*
X40210915Y48643412D01*
X40076479Y48617255D01*
X39970748Y48596290D01*
X39904474Y48582561D01*
X39888218Y48578680D01*
X39871427Y48569100D01*
X39858751Y48547464D01*
X39849622Y48506469D01*
X39843469Y48438811D01*
X39839720Y48337188D01*
X39837808Y48194297D01*
X39837160Y48002835D01*
X39837126Y47924355D01*
X39837126Y47286094D01*
X39990402Y47255840D01*
X40075678Y47239436D01*
X40202930Y47215491D01*
X40356685Y47186893D01*
X40521466Y47156533D01*
X40567011Y47148194D01*
X40719068Y47118630D01*
X40851532Y47089558D01*
X40953286Y47063671D01*
X41013212Y47043663D01*
X41023195Y47037699D01*
X41047707Y46995466D01*
X41082852Y46913630D01*
X41121827Y46808317D01*
X41129558Y46785632D01*
X41180640Y46644982D01*
X41244046Y46486286D01*
X41306096Y46343775D01*
X41306402Y46343114D01*
X41409733Y46119560D01*
X40730039Y45119768D01*
X41166379Y44682700D01*
X41298351Y44552619D01*
X41418721Y44437952D01*
X41520727Y44344819D01*
X41597609Y44279342D01*
X41642607Y44247643D01*
X41649062Y44245632D01*
X41686960Y44261471D01*
X41764292Y44305504D01*
X41872611Y44372510D01*
X42003468Y44457266D01*
X42144948Y44552184D01*
X42288539Y44649002D01*
X42416565Y44733249D01*
X42520895Y44799742D01*
X42593400Y44843298D01*
X42625842Y44858736D01*
X42665424Y44845672D01*
X42740481Y44811250D01*
X42835532Y44762620D01*
X42845608Y44757215D01*
X42973609Y44693020D01*
X43061382Y44661537D01*
X43115972Y44661202D01*
X43144425Y44690452D01*
X43144590Y44690862D01*
X43158812Y44725502D01*
X43192731Y44807731D01*
X43243716Y44931186D01*
X43309138Y45089502D01*
X43386366Y45276314D01*
X43472771Y45485258D01*
X43556449Y45687554D01*
X43648412Y45910800D01*
X43732850Y46117608D01*
X43807231Y46301638D01*
X43869026Y46456549D01*
X43915703Y46576004D01*
X43944732Y46653661D01*
X43953678Y46682644D01*
X43931244Y46715890D01*
X43872561Y46768877D01*
X43794311Y46827296D01*
X43571466Y47012048D01*
X43397282Y47223818D01*
X43273846Y47458144D01*
X43203246Y47710566D01*
X43187569Y47976623D01*
X43198964Y48099425D01*
X43261050Y48354207D01*
X43367977Y48579199D01*
X43513111Y48772183D01*
X43689822Y48930939D01*
X43891478Y49053250D01*
X44111446Y49136895D01*
X44343094Y49179656D01*
X44579791Y49179313D01*
X44814905Y49133648D01*
X45041804Y49040441D01*
X45253856Y48897473D01*
X45342364Y48816617D01*
X45512111Y48608993D01*
X45630301Y48382105D01*
X45697722Y48142567D01*
X45715160Y47896993D01*
X45683402Y47651997D01*
X45603235Y47414192D01*
X45475445Y47190193D01*
X45300820Y46986613D01*
X45105688Y46827296D01*
X45024409Y46766398D01*
X44966991Y46713985D01*
X44946322Y46682594D01*
X44957144Y46648361D01*
X44987923Y46566581D01*
X45036126Y46443593D01*
X45099222Y46285737D01*
X45174678Y46099351D01*
X45259962Y45890774D01*
X45343781Y45687504D01*
X45436255Y45464067D01*
X45521911Y45257016D01*
X45598118Y45072714D01*
X45662247Y44917525D01*
X45711668Y44797812D01*
X45743752Y44719939D01*
X45755641Y44690862D01*
X45783726Y44661323D01*
X45838051Y44661409D01*
X45925605Y44692674D01*
X46053381Y44756671D01*
X46054392Y44757215D01*
X46150598Y44806879D01*
X46228369Y44843055D01*
X46272223Y44858592D01*
X46274158Y44858736D01*
X46307171Y44842976D01*
X46380054Y44799150D01*
X46484678Y44732443D01*
X46612910Y44648036D01*
X46755052Y44552184D01*
X46899767Y44455133D01*
X47030196Y44370730D01*
X47137890Y44304199D01*
X47214402Y44260762D01*
X47250938Y44245632D01*
X47284582Y44265518D01*
X47352224Y44321097D01*
X47447107Y44406246D01*
X47562470Y44514847D01*
X47691555Y44640779D01*
X47733771Y44682851D01*
X48170261Y45120069D01*
X47838023Y45607660D01*
X47737054Y45757395D01*
X47648438Y45891780D01*
X47577146Y46003031D01*
X47528150Y46083361D01*
X47506422Y46124986D01*
X47505785Y46127947D01*
X47517240Y46167182D01*
X47548051Y46246105D01*
X47592884Y46351491D01*
X47624353Y46422046D01*
X47683192Y46557124D01*
X47738604Y46693591D01*
X47781564Y46808897D01*
X47793234Y46844023D01*
X47826389Y46937826D01*
X47858799Y47010306D01*
X47876601Y47037699D01*
X47915886Y47054464D01*
X48001626Y47078230D01*
X48122697Y47106303D01*
X48267973Y47135991D01*
X48332988Y47148194D01*
X48498087Y47178532D01*
X48656448Y47207907D01*
X48792596Y47233431D01*
X48891057Y47252215D01*
X48909598Y47255840D01*
X49062873Y47286094D01*
X49062873Y47924355D01*
X49062529Y48134230D01*
X49061116Y48293020D01*
X49058064Y48408027D01*
X49052803Y48486554D01*
X49044763Y48535904D01*
X49033373Y48563381D01*
X49018063Y48576287D01*
X49011782Y48578680D01*
X48973896Y48587167D01*
X48890195Y48604100D01*
X48771433Y48627434D01*
X48628361Y48655125D01*
X48471732Y48685127D01*
X48312297Y48715396D01*
X48160809Y48743885D01*
X48028019Y48768551D01*
X47924681Y48787349D01*
X47861545Y48798233D01*
X47847497Y48800115D01*
X47834770Y48825296D01*
X47806600Y48892378D01*
X47768252Y48988667D01*
X47753609Y49026379D01*
X47694548Y49172079D01*
X47625000Y49333049D01*
X47562712Y49468709D01*
X47516879Y49572439D01*
X47486387Y49657674D01*
X47476208Y49709874D01*
X47477831Y49716870D01*
X47499343Y49749898D01*
X47548465Y49823357D01*
X47619923Y49929423D01*
X47708445Y50060274D01*
X47808759Y50208088D01*
X47828594Y50237266D01*
X47944988Y50410137D01*
X48030548Y50541774D01*
X48088684Y50638239D01*
X48122808Y50705592D01*
X48136331Y50749894D01*
X48132664Y50777206D01*
X48132570Y50777380D01*
X48103707Y50813254D01*
X48039867Y50882609D01*
X47947969Y50978255D01*
X47834933Y51093001D01*
X47707679Y51219659D01*
X47693328Y51233795D01*
X47532957Y51389097D01*
X47409195Y51503130D01*
X47319555Y51577998D01*
X47261552Y51615804D01*
X47236004Y51620683D01*
X47198718Y51599397D01*
X47121343Y51550227D01*
X47011867Y51478425D01*
X46878280Y51389245D01*
X46728570Y51287937D01*
X46693618Y51264103D01*
X46197390Y50925235D01*
X45973293Y51026944D01*
X45837011Y51086217D01*
X45690724Y51145830D01*
X45564965Y51193360D01*
X45559425Y51195315D01*
X45461057Y51231323D01*
X45385229Y51261771D01*
X45348282Y51280095D01*
X45348220Y51280148D01*
X45336496Y51313271D01*
X45316568Y51394733D01*
X45290413Y51515375D01*
X45260010Y51666041D01*
X45227337Y51837572D01*
X45224664Y51852033D01*
X45191890Y52028765D01*
X45161802Y52189190D01*
X45136339Y52323112D01*
X45117441Y52420337D01*
X45107047Y52470668D01*
X45106865Y52471437D01*
X45100539Y52492847D01*
X45088239Y52509012D01*
X45062594Y52520669D01*
X45016235Y52528555D01*
X44941792Y52533407D01*
X44831895Y52535961D01*
X44679175Y52536955D01*
X44476262Y52537126D01*
X44450000Y52537126D01*
X44240986Y52537002D01*
X44240986Y52537002D01*
G37*
X44240986Y52537002D02*
X44082994Y52536137D01*
X43968653Y52533795D01*
X43890593Y52529238D01*
X43841446Y52521730D01*
X43813841Y52510534D01*
X43800408Y52494912D01*
X43793779Y52474127D01*
X43793135Y52471437D01*
X43783065Y52422887D01*
X43764425Y52327095D01*
X43739155Y52194257D01*
X43709193Y52034569D01*
X43676478Y51858226D01*
X43675336Y51852033D01*
X43642567Y51679218D01*
X43611907Y51526531D01*
X43585336Y51403129D01*
X43564833Y51318169D01*
X43552374Y51280810D01*
X43551780Y51280148D01*
X43515081Y51261905D01*
X43439414Y51231503D01*
X43341122Y51195507D01*
X43340575Y51195315D01*
X43216767Y51148778D01*
X43070804Y51089496D01*
X42933219Y51029891D01*
X42926707Y51026944D01*
X42702610Y50925235D01*
X42206381Y51264103D01*
X42054154Y51367408D01*
X41916259Y51459763D01*
X41800685Y51535916D01*
X41715421Y51590615D01*
X41668456Y51618607D01*
X41663996Y51620683D01*
X41629866Y51611440D01*
X41566119Y51566844D01*
X41470269Y51484791D01*
X41339831Y51363179D01*
X41206672Y51233795D01*
X41078306Y51106298D01*
X40963419Y50989954D01*
X40868927Y50891948D01*
X40801747Y50819464D01*
X40768794Y50779687D01*
X40767568Y50777639D01*
X40763926Y50750344D01*
X40777650Y50705766D01*
X40812131Y50637888D01*
X40870761Y50540689D01*
X40956930Y50408149D01*
X41071800Y50237524D01*
X41173746Y50087345D01*
X41264877Y49952650D01*
X41339927Y49841260D01*
X41393631Y49760995D01*
X41420720Y49719675D01*
X41422426Y49716870D01*
X41419118Y49677279D01*
X41394047Y49600331D01*
X41352202Y49500568D01*
X41337288Y49468709D01*
X41272214Y49326774D01*
X41202788Y49165727D01*
X41146391Y49026379D01*
X41105753Y48922956D01*
X41073474Y48844358D01*
X41054822Y48803280D01*
X41052503Y48800115D01*
X41018197Y48794872D01*
X40937331Y48780506D01*
X40820657Y48759063D01*
X40678925Y48732587D01*
X40522890Y48703123D01*
X40363302Y48672717D01*
X40210915Y48643412D01*
X40076479Y48617255D01*
X39970748Y48596290D01*
X39904474Y48582561D01*
X39888218Y48578680D01*
X39871427Y48569100D01*
X39858751Y48547464D01*
X39849622Y48506469D01*
X39843469Y48438811D01*
X39839720Y48337188D01*
X39837808Y48194297D01*
X39837160Y48002835D01*
X39837126Y47924355D01*
X39837126Y47286094D01*
X39990402Y47255840D01*
X40075678Y47239436D01*
X40202930Y47215491D01*
X40356685Y47186893D01*
X40521466Y47156533D01*
X40567011Y47148194D01*
X40719068Y47118630D01*
X40851532Y47089558D01*
X40953286Y47063671D01*
X41013212Y47043663D01*
X41023195Y47037699D01*
X41047707Y46995466D01*
X41082852Y46913630D01*
X41121827Y46808317D01*
X41129558Y46785632D01*
X41180640Y46644982D01*
X41244046Y46486286D01*
X41306096Y46343775D01*
X41306402Y46343114D01*
X41409733Y46119560D01*
X40730039Y45119768D01*
X41166379Y44682700D01*
X41298351Y44552619D01*
X41418721Y44437952D01*
X41520727Y44344819D01*
X41597609Y44279342D01*
X41642607Y44247643D01*
X41649062Y44245632D01*
X41686960Y44261471D01*
X41764292Y44305504D01*
X41872611Y44372510D01*
X42003468Y44457266D01*
X42144948Y44552184D01*
X42288539Y44649002D01*
X42416565Y44733249D01*
X42520895Y44799742D01*
X42593400Y44843298D01*
X42625842Y44858736D01*
X42665424Y44845672D01*
X42740481Y44811250D01*
X42835532Y44762620D01*
X42845608Y44757215D01*
X42973609Y44693020D01*
X43061382Y44661537D01*
X43115972Y44661202D01*
X43144425Y44690452D01*
X43144590Y44690862D01*
X43158812Y44725502D01*
X43192731Y44807731D01*
X43243716Y44931186D01*
X43309138Y45089502D01*
X43386366Y45276314D01*
X43472771Y45485258D01*
X43556449Y45687554D01*
X43648412Y45910800D01*
X43732850Y46117608D01*
X43807231Y46301638D01*
X43869026Y46456549D01*
X43915703Y46576004D01*
X43944732Y46653661D01*
X43953678Y46682644D01*
X43931244Y46715890D01*
X43872561Y46768877D01*
X43794311Y46827296D01*
X43571466Y47012048D01*
X43397282Y47223818D01*
X43273846Y47458144D01*
X43203246Y47710566D01*
X43187569Y47976623D01*
X43198964Y48099425D01*
X43261050Y48354207D01*
X43367977Y48579199D01*
X43513111Y48772183D01*
X43689822Y48930939D01*
X43891478Y49053250D01*
X44111446Y49136895D01*
X44343094Y49179656D01*
X44579791Y49179313D01*
X44814905Y49133648D01*
X45041804Y49040441D01*
X45253856Y48897473D01*
X45342364Y48816617D01*
X45512111Y48608993D01*
X45630301Y48382105D01*
X45697722Y48142567D01*
X45715160Y47896993D01*
X45683402Y47651997D01*
X45603235Y47414192D01*
X45475445Y47190193D01*
X45300820Y46986613D01*
X45105688Y46827296D01*
X45024409Y46766398D01*
X44966991Y46713985D01*
X44946322Y46682594D01*
X44957144Y46648361D01*
X44987923Y46566581D01*
X45036126Y46443593D01*
X45099222Y46285737D01*
X45174678Y46099351D01*
X45259962Y45890774D01*
X45343781Y45687504D01*
X45436255Y45464067D01*
X45521911Y45257016D01*
X45598118Y45072714D01*
X45662247Y44917525D01*
X45711668Y44797812D01*
X45743752Y44719939D01*
X45755641Y44690862D01*
X45783726Y44661323D01*
X45838051Y44661409D01*
X45925605Y44692674D01*
X46053381Y44756671D01*
X46054392Y44757215D01*
X46150598Y44806879D01*
X46228369Y44843055D01*
X46272223Y44858592D01*
X46274158Y44858736D01*
X46307171Y44842976D01*
X46380054Y44799150D01*
X46484678Y44732443D01*
X46612910Y44648036D01*
X46755052Y44552184D01*
X46899767Y44455133D01*
X47030196Y44370730D01*
X47137890Y44304199D01*
X47214402Y44260762D01*
X47250938Y44245632D01*
X47284582Y44265518D01*
X47352224Y44321097D01*
X47447107Y44406246D01*
X47562470Y44514847D01*
X47691555Y44640779D01*
X47733771Y44682851D01*
X48170261Y45120069D01*
X47838023Y45607660D01*
X47737054Y45757395D01*
X47648438Y45891780D01*
X47577146Y46003031D01*
X47528150Y46083361D01*
X47506422Y46124986D01*
X47505785Y46127947D01*
X47517240Y46167182D01*
X47548051Y46246105D01*
X47592884Y46351491D01*
X47624353Y46422046D01*
X47683192Y46557124D01*
X47738604Y46693591D01*
X47781564Y46808897D01*
X47793234Y46844023D01*
X47826389Y46937826D01*
X47858799Y47010306D01*
X47876601Y47037699D01*
X47915886Y47054464D01*
X48001626Y47078230D01*
X48122697Y47106303D01*
X48267973Y47135991D01*
X48332988Y47148194D01*
X48498087Y47178532D01*
X48656448Y47207907D01*
X48792596Y47233431D01*
X48891057Y47252215D01*
X48909598Y47255840D01*
X49062873Y47286094D01*
X49062873Y47924355D01*
X49062529Y48134230D01*
X49061116Y48293020D01*
X49058064Y48408027D01*
X49052803Y48486554D01*
X49044763Y48535904D01*
X49033373Y48563381D01*
X49018063Y48576287D01*
X49011782Y48578680D01*
X48973896Y48587167D01*
X48890195Y48604100D01*
X48771433Y48627434D01*
X48628361Y48655125D01*
X48471732Y48685127D01*
X48312297Y48715396D01*
X48160809Y48743885D01*
X48028019Y48768551D01*
X47924681Y48787349D01*
X47861545Y48798233D01*
X47847497Y48800115D01*
X47834770Y48825296D01*
X47806600Y48892378D01*
X47768252Y48988667D01*
X47753609Y49026379D01*
X47694548Y49172079D01*
X47625000Y49333049D01*
X47562712Y49468709D01*
X47516879Y49572439D01*
X47486387Y49657674D01*
X47476208Y49709874D01*
X47477831Y49716870D01*
X47499343Y49749898D01*
X47548465Y49823357D01*
X47619923Y49929423D01*
X47708445Y50060274D01*
X47808759Y50208088D01*
X47828594Y50237266D01*
X47944988Y50410137D01*
X48030548Y50541774D01*
X48088684Y50638239D01*
X48122808Y50705592D01*
X48136331Y50749894D01*
X48132664Y50777206D01*
X48132570Y50777380D01*
X48103707Y50813254D01*
X48039867Y50882609D01*
X47947969Y50978255D01*
X47834933Y51093001D01*
X47707679Y51219659D01*
X47693328Y51233795D01*
X47532957Y51389097D01*
X47409195Y51503130D01*
X47319555Y51577998D01*
X47261552Y51615804D01*
X47236004Y51620683D01*
X47198718Y51599397D01*
X47121343Y51550227D01*
X47011867Y51478425D01*
X46878280Y51389245D01*
X46728570Y51287937D01*
X46693618Y51264103D01*
X46197390Y50925235D01*
X45973293Y51026944D01*
X45837011Y51086217D01*
X45690724Y51145830D01*
X45564965Y51193360D01*
X45559425Y51195315D01*
X45461057Y51231323D01*
X45385229Y51261771D01*
X45348282Y51280095D01*
X45348220Y51280148D01*
X45336496Y51313271D01*
X45316568Y51394733D01*
X45290413Y51515375D01*
X45260010Y51666041D01*
X45227337Y51837572D01*
X45224664Y51852033D01*
X45191890Y52028765D01*
X45161802Y52189190D01*
X45136339Y52323112D01*
X45117441Y52420337D01*
X45107047Y52470668D01*
X45106865Y52471437D01*
X45100539Y52492847D01*
X45088239Y52509012D01*
X45062594Y52520669D01*
X45016235Y52528555D01*
X44941792Y52533407D01*
X44831895Y52535961D01*
X44679175Y52536955D01*
X44476262Y52537126D01*
X44450000Y52537126D01*
X44240986Y52537002D01*
G36*
X31009754Y42699055D02*
X30957189Y42698520D01*
X30803165Y42694804D01*
X30674171Y42683765D01*
X30565809Y42664218D01*
X30473684Y42634981D01*
X30393399Y42594867D01*
X30320558Y42542695D01*
X30294541Y42520031D01*
X30251383Y42467002D01*
X30212467Y42395043D01*
X30182473Y42315280D01*
X30166081Y42238839D01*
X30164378Y42210592D01*
X30175051Y42132290D01*
X30203653Y42046759D01*
X30245057Y41965801D01*
X30294141Y41901218D01*
X30302113Y41893426D01*
X30369646Y41838656D01*
X30443598Y41795901D01*
X30528234Y41764041D01*
X30627817Y41741956D01*
X30746612Y41728526D01*
X30888880Y41722630D01*
X30954046Y41722130D01*
X31036901Y41722529D01*
X31095169Y41724198D01*
X31134316Y41727842D01*
X31159809Y41734171D01*
X31177114Y41743890D01*
X31186390Y41752190D01*
X31195152Y41762272D01*
X31202025Y41775279D01*
X31207238Y41794695D01*
X31211019Y41824004D01*
X31213597Y41866691D01*
X31215200Y41926239D01*
X31216057Y42006134D01*
X31216397Y42109859D01*
X31216449Y42210592D01*
X31216780Y42344945D01*
X31216708Y42452272D01*
X31215430Y42503669D01*
X31021065Y42503669D01*
X31021065Y41917515D01*
X30897071Y41917629D01*
X30822461Y41919768D01*
X30744318Y41925281D01*
X30679120Y41932992D01*
X30677136Y41933309D01*
X30571763Y41958786D01*
X30490032Y41998464D01*
X30427862Y42054926D01*
X30388360Y42116058D01*
X30364020Y42183871D01*
X30365907Y42247545D01*
X30394155Y42315799D01*
X30449408Y42386408D01*
X30525973Y42438729D01*
X30625495Y42473701D01*
X30692007Y42486078D01*
X30767507Y42494770D01*
X30847525Y42501060D01*
X30915584Y42503676D01*
X30919615Y42503688D01*
X31021065Y42503669D01*
X31215430Y42503669D01*
X31214636Y42535583D01*
X31208961Y42597885D01*
X31198087Y42642189D01*
X31180414Y42671504D01*
X31154343Y42688839D01*
X31118275Y42697203D01*
X31070612Y42699605D01*
X31009754Y42699055D01*
X31009754Y42699055D01*
G37*
X31009754Y42699055D02*
X30957189Y42698520D01*
X30803165Y42694804D01*
X30674171Y42683765D01*
X30565809Y42664218D01*
X30473684Y42634981D01*
X30393399Y42594867D01*
X30320558Y42542695D01*
X30294541Y42520031D01*
X30251383Y42467002D01*
X30212467Y42395043D01*
X30182473Y42315280D01*
X30166081Y42238839D01*
X30164378Y42210592D01*
X30175051Y42132290D01*
X30203653Y42046759D01*
X30245057Y41965801D01*
X30294141Y41901218D01*
X30302113Y41893426D01*
X30369646Y41838656D01*
X30443598Y41795901D01*
X30528234Y41764041D01*
X30627817Y41741956D01*
X30746612Y41728526D01*
X30888880Y41722630D01*
X30954046Y41722130D01*
X31036901Y41722529D01*
X31095169Y41724198D01*
X31134316Y41727842D01*
X31159809Y41734171D01*
X31177114Y41743890D01*
X31186390Y41752190D01*
X31195152Y41762272D01*
X31202025Y41775279D01*
X31207238Y41794695D01*
X31211019Y41824004D01*
X31213597Y41866691D01*
X31215200Y41926239D01*
X31216057Y42006134D01*
X31216397Y42109859D01*
X31216449Y42210592D01*
X31216780Y42344945D01*
X31216708Y42452272D01*
X31215430Y42503669D01*
X31021065Y42503669D01*
X31021065Y41917515D01*
X30897071Y41917629D01*
X30822461Y41919768D01*
X30744318Y41925281D01*
X30679120Y41932992D01*
X30677136Y41933309D01*
X30571763Y41958786D01*
X30490032Y41998464D01*
X30427862Y42054926D01*
X30388360Y42116058D01*
X30364020Y42183871D01*
X30365907Y42247545D01*
X30394155Y42315799D01*
X30449408Y42386408D01*
X30525973Y42438729D01*
X30625495Y42473701D01*
X30692007Y42486078D01*
X30767507Y42494770D01*
X30847525Y42501060D01*
X30915584Y42503676D01*
X30919615Y42503688D01*
X31021065Y42503669D01*
X31215430Y42503669D01*
X31214636Y42535583D01*
X31208961Y42597885D01*
X31198087Y42642189D01*
X31180414Y42671504D01*
X31154343Y42688839D01*
X31118275Y42697203D01*
X31070612Y42699605D01*
X31009754Y42699055D01*
G36*
X29134430Y42698948D02*
X29042022Y42698452D01*
X28972273Y42697299D01*
X28921483Y42695220D01*
X28885951Y42691949D01*
X28861978Y42687217D01*
X28845864Y42680757D01*
X28833909Y42672301D01*
X28829579Y42668409D01*
X28803251Y42627060D01*
X28798511Y42579548D01*
X28815830Y42537369D01*
X28823839Y42528844D01*
X28836792Y42520579D01*
X28857648Y42514203D01*
X28890276Y42509405D01*
X28938542Y42505876D01*
X29006314Y42503306D01*
X29097460Y42501383D01*
X29180791Y42500213D01*
X29510592Y42496154D01*
X29519606Y42323314D01*
X29295742Y42323314D01*
X29198554Y42322475D01*
X29127403Y42318968D01*
X29078291Y42311305D01*
X29047217Y42297997D01*
X29030184Y42277559D01*
X29023192Y42248501D01*
X29022130Y42221533D01*
X29025430Y42188443D01*
X29037883Y42164060D01*
X29063320Y42147111D01*
X29105571Y42136321D01*
X29168466Y42130416D01*
X29255835Y42128123D01*
X29303521Y42127929D01*
X29518106Y42127929D01*
X29518106Y41917515D01*
X29187455Y41917515D01*
X29079070Y41917364D01*
X28996697Y41916686D01*
X28936289Y41915144D01*
X28893799Y41912401D01*
X28865181Y41908119D01*
X28846388Y41901961D01*
X28833374Y41893591D01*
X28826745Y41887456D01*
X28804007Y41851651D01*
X28796686Y41819823D01*
X28807139Y41780946D01*
X28826745Y41752190D01*
X28837205Y41743137D01*
X28850708Y41736107D01*
X28870886Y41730846D01*
X28901371Y41727099D01*
X28945795Y41724610D01*
X29007791Y41723125D01*
X29090991Y41722389D01*
X29199027Y41722146D01*
X29255089Y41722130D01*
X29375144Y41722237D01*
X29468774Y41722725D01*
X29539609Y41723851D01*
X29591281Y41725869D01*
X29627423Y41729034D01*
X29651668Y41733601D01*
X29667647Y41739824D01*
X29678993Y41747960D01*
X29683432Y41752190D01*
X29692217Y41762304D01*
X29699104Y41775352D01*
X29704321Y41794830D01*
X29708099Y41824236D01*
X29710670Y41867066D01*
X29712264Y41926816D01*
X29713111Y42006983D01*
X29713442Y42111063D01*
X29713491Y42207972D01*
X29713446Y42332077D01*
X29713134Y42429634D01*
X29712288Y42504154D01*
X29710642Y42559149D01*
X29707929Y42598130D01*
X29703883Y42624607D01*
X29698237Y42642094D01*
X29690726Y42654100D01*
X29681082Y42664137D01*
X29678706Y42666374D01*
X29667175Y42676281D01*
X29653778Y42683952D01*
X29634796Y42689674D01*
X29606515Y42693732D01*
X29565218Y42696412D01*
X29507188Y42697998D01*
X29428709Y42698776D01*
X29326066Y42699032D01*
X29253196Y42699054D01*
X29134430Y42698948D01*
X29134430Y42698948D01*
G37*
X29134430Y42698948D02*
X29042022Y42698452D01*
X28972273Y42697299D01*
X28921483Y42695220D01*
X28885951Y42691949D01*
X28861978Y42687217D01*
X28845864Y42680757D01*
X28833909Y42672301D01*
X28829579Y42668409D01*
X28803251Y42627060D01*
X28798511Y42579548D01*
X28815830Y42537369D01*
X28823839Y42528844D01*
X28836792Y42520579D01*
X28857648Y42514203D01*
X28890276Y42509405D01*
X28938542Y42505876D01*
X29006314Y42503306D01*
X29097460Y42501383D01*
X29180791Y42500213D01*
X29510592Y42496154D01*
X29519606Y42323314D01*
X29295742Y42323314D01*
X29198554Y42322475D01*
X29127403Y42318968D01*
X29078291Y42311305D01*
X29047217Y42297997D01*
X29030184Y42277559D01*
X29023192Y42248501D01*
X29022130Y42221533D01*
X29025430Y42188443D01*
X29037883Y42164060D01*
X29063320Y42147111D01*
X29105571Y42136321D01*
X29168466Y42130416D01*
X29255835Y42128123D01*
X29303521Y42127929D01*
X29518106Y42127929D01*
X29518106Y41917515D01*
X29187455Y41917515D01*
X29079070Y41917364D01*
X28996697Y41916686D01*
X28936289Y41915144D01*
X28893799Y41912401D01*
X28865181Y41908119D01*
X28846388Y41901961D01*
X28833374Y41893591D01*
X28826745Y41887456D01*
X28804007Y41851651D01*
X28796686Y41819823D01*
X28807139Y41780946D01*
X28826745Y41752190D01*
X28837205Y41743137D01*
X28850708Y41736107D01*
X28870886Y41730846D01*
X28901371Y41727099D01*
X28945795Y41724610D01*
X29007791Y41723125D01*
X29090991Y41722389D01*
X29199027Y41722146D01*
X29255089Y41722130D01*
X29375144Y41722237D01*
X29468774Y41722725D01*
X29539609Y41723851D01*
X29591281Y41725869D01*
X29627423Y41729034D01*
X29651668Y41733601D01*
X29667647Y41739824D01*
X29678993Y41747960D01*
X29683432Y41752190D01*
X29692217Y41762304D01*
X29699104Y41775352D01*
X29704321Y41794830D01*
X29708099Y41824236D01*
X29710670Y41867066D01*
X29712264Y41926816D01*
X29713111Y42006983D01*
X29713442Y42111063D01*
X29713491Y42207972D01*
X29713446Y42332077D01*
X29713134Y42429634D01*
X29712288Y42504154D01*
X29710642Y42559149D01*
X29707929Y42598130D01*
X29703883Y42624607D01*
X29698237Y42642094D01*
X29690726Y42654100D01*
X29681082Y42664137D01*
X29678706Y42666374D01*
X29667175Y42676281D01*
X29653778Y42683952D01*
X29634796Y42689674D01*
X29606515Y42693732D01*
X29565218Y42696412D01*
X29507188Y42697998D01*
X29428709Y42698776D01*
X29326066Y42699032D01*
X29253196Y42699054D01*
X29134430Y42698948D01*
G36*
X27774988Y42697343D02*
X27675383Y42690380D01*
X27582744Y42679505D01*
X27502458Y42665126D01*
X27439908Y42647654D01*
X27400481Y42627498D01*
X27394429Y42621565D01*
X27373384Y42575525D01*
X27379766Y42528260D01*
X27412407Y42487822D01*
X27413964Y42486663D01*
X27433163Y42474203D01*
X27453205Y42467651D01*
X27481160Y42466856D01*
X27524099Y42471664D01*
X27589091Y42481925D01*
X27594319Y42482789D01*
X27691161Y42494686D01*
X27795644Y42500555D01*
X27900435Y42500612D01*
X27998202Y42495073D01*
X28081612Y42484155D01*
X28143333Y42468075D01*
X28147388Y42466459D01*
X28192164Y42441371D01*
X28207896Y42415982D01*
X28195580Y42391013D01*
X28156215Y42367184D01*
X28090798Y42345218D01*
X28000326Y42325834D01*
X27940000Y42316502D01*
X27814600Y42298551D01*
X27714865Y42282141D01*
X27636546Y42265852D01*
X27575393Y42248262D01*
X27527159Y42227951D01*
X27487595Y42203497D01*
X27452452Y42173480D01*
X27424211Y42144004D01*
X27390708Y42102933D01*
X27374219Y42067618D01*
X27369063Y42024107D01*
X27368876Y42008172D01*
X27372748Y41955295D01*
X27388227Y41915957D01*
X27415015Y41881040D01*
X27469459Y41827666D01*
X27530170Y41786962D01*
X27601658Y41757600D01*
X27688436Y41738253D01*
X27795014Y41727594D01*
X27925903Y41724295D01*
X27947515Y41724351D01*
X28034798Y41726160D01*
X28121359Y41730271D01*
X28197762Y41736094D01*
X28254570Y41743039D01*
X28259164Y41743836D01*
X28315645Y41757216D01*
X28363552Y41774118D01*
X28390673Y41789569D01*
X28415911Y41830334D01*
X28417669Y41877802D01*
X28395912Y41920105D01*
X28391044Y41924888D01*
X28370922Y41939101D01*
X28345758Y41945224D01*
X28306813Y41944182D01*
X28259535Y41938766D01*
X28206705Y41933927D01*
X28132648Y41929845D01*
X28046191Y41926882D01*
X27956163Y41925403D01*
X27932485Y41925306D01*
X27842122Y41925670D01*
X27775989Y41927424D01*
X27728267Y41931177D01*
X27693138Y41937537D01*
X27664782Y41947113D01*
X27647741Y41955089D01*
X27610296Y41977235D01*
X27586421Y41997292D01*
X27582932Y42002977D01*
X27590293Y42026455D01*
X27625287Y42049183D01*
X27685488Y42070130D01*
X27768471Y42088264D01*
X27792920Y42092303D01*
X27920622Y42112361D01*
X28022540Y42129126D01*
X28102606Y42143817D01*
X28164754Y42157652D01*
X28212918Y42171849D01*
X28251032Y42187627D01*
X28283030Y42206204D01*
X28312844Y42228798D01*
X28344410Y42256627D01*
X28355032Y42266384D01*
X28392273Y42302798D01*
X28411987Y42331648D01*
X28419699Y42364662D01*
X28420947Y42406265D01*
X28407215Y42487849D01*
X28366178Y42557166D01*
X28298070Y42613992D01*
X28203127Y42658103D01*
X28135384Y42677888D01*
X28061759Y42690667D01*
X27973561Y42697896D01*
X27876176Y42699985D01*
X27774988Y42697343D01*
X27774988Y42697343D01*
G37*
X27774988Y42697343D02*
X27675383Y42690380D01*
X27582744Y42679505D01*
X27502458Y42665126D01*
X27439908Y42647654D01*
X27400481Y42627498D01*
X27394429Y42621565D01*
X27373384Y42575525D01*
X27379766Y42528260D01*
X27412407Y42487822D01*
X27413964Y42486663D01*
X27433163Y42474203D01*
X27453205Y42467651D01*
X27481160Y42466856D01*
X27524099Y42471664D01*
X27589091Y42481925D01*
X27594319Y42482789D01*
X27691161Y42494686D01*
X27795644Y42500555D01*
X27900435Y42500612D01*
X27998202Y42495073D01*
X28081612Y42484155D01*
X28143333Y42468075D01*
X28147388Y42466459D01*
X28192164Y42441371D01*
X28207896Y42415982D01*
X28195580Y42391013D01*
X28156215Y42367184D01*
X28090798Y42345218D01*
X28000326Y42325834D01*
X27940000Y42316502D01*
X27814600Y42298551D01*
X27714865Y42282141D01*
X27636546Y42265852D01*
X27575393Y42248262D01*
X27527159Y42227951D01*
X27487595Y42203497D01*
X27452452Y42173480D01*
X27424211Y42144004D01*
X27390708Y42102933D01*
X27374219Y42067618D01*
X27369063Y42024107D01*
X27368876Y42008172D01*
X27372748Y41955295D01*
X27388227Y41915957D01*
X27415015Y41881040D01*
X27469459Y41827666D01*
X27530170Y41786962D01*
X27601658Y41757600D01*
X27688436Y41738253D01*
X27795014Y41727594D01*
X27925903Y41724295D01*
X27947515Y41724351D01*
X28034798Y41726160D01*
X28121359Y41730271D01*
X28197762Y41736094D01*
X28254570Y41743039D01*
X28259164Y41743836D01*
X28315645Y41757216D01*
X28363552Y41774118D01*
X28390673Y41789569D01*
X28415911Y41830334D01*
X28417669Y41877802D01*
X28395912Y41920105D01*
X28391044Y41924888D01*
X28370922Y41939101D01*
X28345758Y41945224D01*
X28306813Y41944182D01*
X28259535Y41938766D01*
X28206705Y41933927D01*
X28132648Y41929845D01*
X28046191Y41926882D01*
X27956163Y41925403D01*
X27932485Y41925306D01*
X27842122Y41925670D01*
X27775989Y41927424D01*
X27728267Y41931177D01*
X27693138Y41937537D01*
X27664782Y41947113D01*
X27647741Y41955089D01*
X27610296Y41977235D01*
X27586421Y41997292D01*
X27582932Y42002977D01*
X27590293Y42026455D01*
X27625287Y42049183D01*
X27685488Y42070130D01*
X27768471Y42088264D01*
X27792920Y42092303D01*
X27920622Y42112361D01*
X28022540Y42129126D01*
X28102606Y42143817D01*
X28164754Y42157652D01*
X28212918Y42171849D01*
X28251032Y42187627D01*
X28283030Y42206204D01*
X28312844Y42228798D01*
X28344410Y42256627D01*
X28355032Y42266384D01*
X28392273Y42302798D01*
X28411987Y42331648D01*
X28419699Y42364662D01*
X28420947Y42406265D01*
X28407215Y42487849D01*
X28366178Y42557166D01*
X28298070Y42613992D01*
X28203127Y42658103D01*
X28135384Y42677888D01*
X28061759Y42690667D01*
X27973561Y42697896D01*
X27876176Y42699985D01*
X27774988Y42697343D01*
G36*
X26752663Y42668994D02*
X26743901Y42658912D01*
X26737028Y42645905D01*
X26731815Y42626489D01*
X26728034Y42597180D01*
X26725456Y42554493D01*
X26723853Y42494945D01*
X26722995Y42415050D01*
X26722656Y42311324D01*
X26722603Y42210592D01*
X26722696Y42085648D01*
X26723127Y41987279D01*
X26724123Y41911999D01*
X26725915Y41856326D01*
X26728729Y41816774D01*
X26732796Y41789859D01*
X26738342Y41772097D01*
X26745597Y41760003D01*
X26752663Y41752190D01*
X26796602Y41725988D01*
X26843420Y41728339D01*
X26885309Y41756916D01*
X26894934Y41768073D01*
X26902455Y41781017D01*
X26908134Y41799328D01*
X26912227Y41826582D01*
X26914995Y41866360D01*
X26916696Y41922238D01*
X26917589Y41997796D01*
X26917933Y42096612D01*
X26917988Y42208486D01*
X26917988Y42625272D01*
X26881097Y42662163D01*
X26835625Y42693200D01*
X26791516Y42694319D01*
X26752663Y42668994D01*
X26752663Y42668994D01*
G37*
X26752663Y42668994D02*
X26743901Y42658912D01*
X26737028Y42645905D01*
X26731815Y42626489D01*
X26728034Y42597180D01*
X26725456Y42554493D01*
X26723853Y42494945D01*
X26722995Y42415050D01*
X26722656Y42311324D01*
X26722603Y42210592D01*
X26722696Y42085648D01*
X26723127Y41987279D01*
X26724123Y41911999D01*
X26725915Y41856326D01*
X26728729Y41816774D01*
X26732796Y41789859D01*
X26738342Y41772097D01*
X26745597Y41760003D01*
X26752663Y41752190D01*
X26796602Y41725988D01*
X26843420Y41728339D01*
X26885309Y41756916D01*
X26894934Y41768073D01*
X26902455Y41781017D01*
X26908134Y41799328D01*
X26912227Y41826582D01*
X26914995Y41866360D01*
X26916696Y41922238D01*
X26917589Y41997796D01*
X26917933Y42096612D01*
X26917988Y42208486D01*
X26917988Y42625272D01*
X26881097Y42662163D01*
X26835625Y42693200D01*
X26791516Y42694319D01*
X26752663Y42668994D01*
G36*
X25456262Y42691688D02*
X25365041Y42676382D01*
X25294982Y42652589D01*
X25249404Y42621260D01*
X25236984Y42603386D01*
X25224354Y42561815D01*
X25232853Y42524208D01*
X25259685Y42488545D01*
X25301376Y42471861D01*
X25361870Y42473216D01*
X25408659Y42482255D01*
X25512628Y42499477D01*
X25618880Y42501113D01*
X25737809Y42487135D01*
X25770660Y42481212D01*
X25881245Y42450033D01*
X25967759Y42403654D01*
X26029253Y42342865D01*
X26064778Y42268456D01*
X26072125Y42229986D01*
X26067316Y42151937D01*
X26036266Y42082883D01*
X25981806Y42024171D01*
X25906764Y41977147D01*
X25813970Y41943157D01*
X25706252Y41923546D01*
X25586441Y41919659D01*
X25457365Y41932844D01*
X25450077Y41934088D01*
X25398738Y41943650D01*
X25370272Y41952886D01*
X25357934Y41966591D01*
X25354978Y41989558D01*
X25354911Y42001721D01*
X25354911Y42052781D01*
X25446077Y42052781D01*
X25526582Y42058296D01*
X25581521Y42075870D01*
X25613486Y42107047D01*
X25625072Y42153370D01*
X25625213Y42159416D01*
X25618435Y42199011D01*
X25595191Y42227283D01*
X25551930Y42245993D01*
X25485101Y42256900D01*
X25420370Y42260910D01*
X25326287Y42263211D01*
X25258044Y42259700D01*
X25211501Y42246745D01*
X25182518Y42220714D01*
X25166955Y42177973D01*
X25160671Y42114890D01*
X25159526Y42032036D01*
X25161402Y41939554D01*
X25167046Y41876646D01*
X25176482Y41843061D01*
X25178313Y41840431D01*
X25230125Y41798466D01*
X25306090Y41765232D01*
X25401392Y41741441D01*
X25511216Y41727801D01*
X25630746Y41725022D01*
X25755166Y41733815D01*
X25828343Y41744615D01*
X25943120Y41777102D01*
X26049796Y41830214D01*
X26139111Y41899145D01*
X26152686Y41912922D01*
X26196792Y41970842D01*
X26236589Y42042624D01*
X26267427Y42117881D01*
X26284657Y42186223D01*
X26286734Y42212471D01*
X26277893Y42267223D01*
X26254395Y42335345D01*
X26220749Y42407050D01*
X26181464Y42472551D01*
X26146755Y42516302D01*
X26065603Y42581381D01*
X25960698Y42633179D01*
X25835800Y42670526D01*
X25694667Y42692247D01*
X25565325Y42697555D01*
X25456262Y42691688D01*
X25456262Y42691688D01*
G37*
X25456262Y42691688D02*
X25365041Y42676382D01*
X25294982Y42652589D01*
X25249404Y42621260D01*
X25236984Y42603386D01*
X25224354Y42561815D01*
X25232853Y42524208D01*
X25259685Y42488545D01*
X25301376Y42471861D01*
X25361870Y42473216D01*
X25408659Y42482255D01*
X25512628Y42499477D01*
X25618880Y42501113D01*
X25737809Y42487135D01*
X25770660Y42481212D01*
X25881245Y42450033D01*
X25967759Y42403654D01*
X26029253Y42342865D01*
X26064778Y42268456D01*
X26072125Y42229986D01*
X26067316Y42151937D01*
X26036266Y42082883D01*
X25981806Y42024171D01*
X25906764Y41977147D01*
X25813970Y41943157D01*
X25706252Y41923546D01*
X25586441Y41919659D01*
X25457365Y41932844D01*
X25450077Y41934088D01*
X25398738Y41943650D01*
X25370272Y41952886D01*
X25357934Y41966591D01*
X25354978Y41989558D01*
X25354911Y42001721D01*
X25354911Y42052781D01*
X25446077Y42052781D01*
X25526582Y42058296D01*
X25581521Y42075870D01*
X25613486Y42107047D01*
X25625072Y42153370D01*
X25625213Y42159416D01*
X25618435Y42199011D01*
X25595191Y42227283D01*
X25551930Y42245993D01*
X25485101Y42256900D01*
X25420370Y42260910D01*
X25326287Y42263211D01*
X25258044Y42259700D01*
X25211501Y42246745D01*
X25182518Y42220714D01*
X25166955Y42177973D01*
X25160671Y42114890D01*
X25159526Y42032036D01*
X25161402Y41939554D01*
X25167046Y41876646D01*
X25176482Y41843061D01*
X25178313Y41840431D01*
X25230125Y41798466D01*
X25306090Y41765232D01*
X25401392Y41741441D01*
X25511216Y41727801D01*
X25630746Y41725022D01*
X25755166Y41733815D01*
X25828343Y41744615D01*
X25943120Y41777102D01*
X26049796Y41830214D01*
X26139111Y41899145D01*
X26152686Y41912922D01*
X26196792Y41970842D01*
X26236589Y42042624D01*
X26267427Y42117881D01*
X26284657Y42186223D01*
X26286734Y42212471D01*
X26277893Y42267223D01*
X26254395Y42335345D01*
X26220749Y42407050D01*
X26181464Y42472551D01*
X26146755Y42516302D01*
X26065603Y42581381D01*
X25960698Y42633179D01*
X25835800Y42670526D01*
X25694667Y42692247D01*
X25565325Y42697555D01*
X25456262Y42691688D01*
G36*
X24590920Y42693220D02*
X24559545Y42674815D01*
X24518522Y42644715D01*
X24465724Y42601504D01*
X24399025Y42543762D01*
X24316299Y42470072D01*
X24215420Y42379016D01*
X24099941Y42274326D01*
X23859467Y42056257D01*
X23851952Y42348956D01*
X23849239Y42449710D01*
X23846622Y42524742D01*
X23843520Y42578380D01*
X23839356Y42614954D01*
X23833551Y42638793D01*
X23825524Y42654226D01*
X23814697Y42665582D01*
X23808956Y42670354D01*
X23762983Y42695587D01*
X23719237Y42691898D01*
X23684535Y42670341D01*
X23649053Y42641629D01*
X23644640Y42222314D01*
X23643419Y42098993D01*
X23642797Y42002116D01*
X23642990Y41928070D01*
X23644214Y41873243D01*
X23646684Y41834021D01*
X23650614Y41806791D01*
X23656220Y41787941D01*
X23663718Y41773859D01*
X23672033Y41762565D01*
X23690022Y41741618D01*
X23707921Y41727733D01*
X23728212Y41722404D01*
X23753378Y41727124D01*
X23785900Y41743387D01*
X23828263Y41772687D01*
X23882948Y41816518D01*
X23952437Y41876373D01*
X24039215Y41953746D01*
X24137515Y42042650D01*
X24490710Y42363029D01*
X24498225Y42071287D01*
X24500943Y41970717D01*
X24503567Y41895860D01*
X24506679Y41842380D01*
X24510862Y41805938D01*
X24516697Y41782196D01*
X24524766Y41766818D01*
X24535651Y41755464D01*
X24541221Y41750838D01*
X24590456Y41725422D01*
X24636977Y41729255D01*
X24677489Y41761731D01*
X24686756Y41774797D01*
X24693979Y41790055D01*
X24699412Y41811168D01*
X24703308Y41841795D01*
X24705921Y41885598D01*
X24707507Y41946237D01*
X24708318Y42027373D01*
X24708608Y42132667D01*
X24708639Y42210592D01*
X24708541Y42332476D01*
X24708079Y42427961D01*
X24706997Y42500709D01*
X24705043Y42554381D01*
X24701962Y42592637D01*
X24697500Y42619137D01*
X24691403Y42637544D01*
X24683417Y42651516D01*
X24677489Y42659453D01*
X24662462Y42678252D01*
X24648418Y42692447D01*
X24633230Y42700618D01*
X24614773Y42701348D01*
X24590920Y42693220D01*
X24590920Y42693220D01*
G37*
X24590920Y42693220D02*
X24559545Y42674815D01*
X24518522Y42644715D01*
X24465724Y42601504D01*
X24399025Y42543762D01*
X24316299Y42470072D01*
X24215420Y42379016D01*
X24099941Y42274326D01*
X23859467Y42056257D01*
X23851952Y42348956D01*
X23849239Y42449710D01*
X23846622Y42524742D01*
X23843520Y42578380D01*
X23839356Y42614954D01*
X23833551Y42638793D01*
X23825524Y42654226D01*
X23814697Y42665582D01*
X23808956Y42670354D01*
X23762983Y42695587D01*
X23719237Y42691898D01*
X23684535Y42670341D01*
X23649053Y42641629D01*
X23644640Y42222314D01*
X23643419Y42098993D01*
X23642797Y42002116D01*
X23642990Y41928070D01*
X23644214Y41873243D01*
X23646684Y41834021D01*
X23650614Y41806791D01*
X23656220Y41787941D01*
X23663718Y41773859D01*
X23672033Y41762565D01*
X23690022Y41741618D01*
X23707921Y41727733D01*
X23728212Y41722404D01*
X23753378Y41727124D01*
X23785900Y41743387D01*
X23828263Y41772687D01*
X23882948Y41816518D01*
X23952437Y41876373D01*
X24039215Y41953746D01*
X24137515Y42042650D01*
X24490710Y42363029D01*
X24498225Y42071287D01*
X24500943Y41970717D01*
X24503567Y41895860D01*
X24506679Y41842380D01*
X24510862Y41805938D01*
X24516697Y41782196D01*
X24524766Y41766818D01*
X24535651Y41755464D01*
X24541221Y41750838D01*
X24590456Y41725422D01*
X24636977Y41729255D01*
X24677489Y41761731D01*
X24686756Y41774797D01*
X24693979Y41790055D01*
X24699412Y41811168D01*
X24703308Y41841795D01*
X24705921Y41885598D01*
X24707507Y41946237D01*
X24708318Y42027373D01*
X24708608Y42132667D01*
X24708639Y42210592D01*
X24708541Y42332476D01*
X24708079Y42427961D01*
X24706997Y42500709D01*
X24705043Y42554381D01*
X24701962Y42592637D01*
X24697500Y42619137D01*
X24691403Y42637544D01*
X24683417Y42651516D01*
X24677489Y42659453D01*
X24662462Y42678252D01*
X24648418Y42692447D01*
X24633230Y42700618D01*
X24614773Y42701348D01*
X24590920Y42693220D01*
G36*
X22553330Y42698797D02*
X22451669Y42697580D01*
X22373764Y42694734D01*
X22316465Y42689590D01*
X22276619Y42681480D01*
X22251078Y42669733D01*
X22236689Y42653682D01*
X22230301Y42632656D01*
X22228765Y42605988D01*
X22228757Y42602838D01*
X22230091Y42572674D01*
X22236395Y42549361D01*
X22251124Y42531958D01*
X22277731Y42519524D01*
X22319672Y42511119D01*
X22380400Y42505799D01*
X22463370Y42502625D01*
X22572035Y42500655D01*
X22605341Y42500219D01*
X22927633Y42496154D01*
X22932140Y42409734D01*
X22936648Y42323314D01*
X22712783Y42323314D01*
X22625325Y42322991D01*
X22562877Y42321627D01*
X22520392Y42318625D01*
X22492823Y42313391D01*
X22475124Y42305329D01*
X22462249Y42293844D01*
X22462166Y42293753D01*
X22438816Y42248993D01*
X22439660Y42200617D01*
X22464167Y42159378D01*
X22469017Y42155139D01*
X22486231Y42144215D01*
X22509820Y42136615D01*
X22545039Y42131767D01*
X22597146Y42129098D01*
X22671396Y42128036D01*
X22718884Y42127929D01*
X22935148Y42127929D01*
X22935148Y41917515D01*
X22606826Y41917515D01*
X22498428Y41917325D01*
X22416111Y41916550D01*
X22355897Y41914880D01*
X22313811Y41912006D01*
X22285875Y41907617D01*
X22268112Y41901405D01*
X22256546Y41893060D01*
X22253631Y41890030D01*
X22232110Y41848030D01*
X22230536Y41800250D01*
X22248191Y41758822D01*
X22262161Y41745527D01*
X22276692Y41738208D01*
X22299208Y41732545D01*
X22333270Y41728341D01*
X22382439Y41725396D01*
X22450278Y41723513D01*
X22540348Y41722494D01*
X22656209Y41722139D01*
X22682403Y41722130D01*
X22800207Y41722208D01*
X22891650Y41722633D01*
X22960432Y41723698D01*
X23010250Y41725695D01*
X23044806Y41728914D01*
X23067796Y41733648D01*
X23082920Y41740187D01*
X23093877Y41748823D01*
X23099888Y41755024D01*
X23108936Y41766007D01*
X23116004Y41779612D01*
X23121337Y41799408D01*
X23125178Y41828962D01*
X23127771Y41871843D01*
X23129359Y41931619D01*
X23130185Y42011857D01*
X23130494Y42116125D01*
X23130532Y42203884D01*
X23130438Y42326856D01*
X23129989Y42423395D01*
X23128938Y42497125D01*
X23127036Y42551674D01*
X23124037Y42590665D01*
X23119691Y42617725D01*
X23113752Y42636480D01*
X23105971Y42650554D01*
X23099382Y42659453D01*
X23068232Y42699054D01*
X22681898Y42699054D01*
X22553330Y42698797D01*
X22553330Y42698797D01*
G37*
X22553330Y42698797D02*
X22451669Y42697580D01*
X22373764Y42694734D01*
X22316465Y42689590D01*
X22276619Y42681480D01*
X22251078Y42669733D01*
X22236689Y42653682D01*
X22230301Y42632656D01*
X22228765Y42605988D01*
X22228757Y42602838D01*
X22230091Y42572674D01*
X22236395Y42549361D01*
X22251124Y42531958D01*
X22277731Y42519524D01*
X22319672Y42511119D01*
X22380400Y42505799D01*
X22463370Y42502625D01*
X22572035Y42500655D01*
X22605341Y42500219D01*
X22927633Y42496154D01*
X22932140Y42409734D01*
X22936648Y42323314D01*
X22712783Y42323314D01*
X22625325Y42322991D01*
X22562877Y42321627D01*
X22520392Y42318625D01*
X22492823Y42313391D01*
X22475124Y42305329D01*
X22462249Y42293844D01*
X22462166Y42293753D01*
X22438816Y42248993D01*
X22439660Y42200617D01*
X22464167Y42159378D01*
X22469017Y42155139D01*
X22486231Y42144215D01*
X22509820Y42136615D01*
X22545039Y42131767D01*
X22597146Y42129098D01*
X22671396Y42128036D01*
X22718884Y42127929D01*
X22935148Y42127929D01*
X22935148Y41917515D01*
X22606826Y41917515D01*
X22498428Y41917325D01*
X22416111Y41916550D01*
X22355897Y41914880D01*
X22313811Y41912006D01*
X22285875Y41907617D01*
X22268112Y41901405D01*
X22256546Y41893060D01*
X22253631Y41890030D01*
X22232110Y41848030D01*
X22230536Y41800250D01*
X22248191Y41758822D01*
X22262161Y41745527D01*
X22276692Y41738208D01*
X22299208Y41732545D01*
X22333270Y41728341D01*
X22382439Y41725396D01*
X22450278Y41723513D01*
X22540348Y41722494D01*
X22656209Y41722139D01*
X22682403Y41722130D01*
X22800207Y41722208D01*
X22891650Y41722633D01*
X22960432Y41723698D01*
X23010250Y41725695D01*
X23044806Y41728914D01*
X23067796Y41733648D01*
X23082920Y41740187D01*
X23093877Y41748823D01*
X23099888Y41755024D01*
X23108936Y41766007D01*
X23116004Y41779612D01*
X23121337Y41799408D01*
X23125178Y41828962D01*
X23127771Y41871843D01*
X23129359Y41931619D01*
X23130185Y42011857D01*
X23130494Y42116125D01*
X23130532Y42203884D01*
X23130438Y42326856D01*
X23129989Y42423395D01*
X23128938Y42497125D01*
X23127036Y42551674D01*
X23124037Y42590665D01*
X23119691Y42617725D01*
X23113752Y42636480D01*
X23105971Y42650554D01*
X23099382Y42659453D01*
X23068232Y42699054D01*
X22681898Y42699054D01*
X22553330Y42698797D01*
G36*
X21504263Y42698777D02*
X21332545Y42692971D01*
X21186491Y42675363D01*
X21063693Y42644901D01*
X20961743Y42600529D01*
X20878232Y42541193D01*
X20810753Y42465840D01*
X20756897Y42373414D01*
X20755838Y42371160D01*
X20723697Y42288440D01*
X20712245Y42215180D01*
X20721526Y42141452D01*
X20751585Y42057329D01*
X20757285Y42044527D01*
X20796161Y41969602D01*
X20839851Y41911707D01*
X20896240Y41862492D01*
X20973208Y41813607D01*
X20977680Y41811055D01*
X21044683Y41778869D01*
X21120415Y41754832D01*
X21209742Y41738113D01*
X21317531Y41727885D01*
X21448648Y41723318D01*
X21494974Y41722921D01*
X21715570Y41722130D01*
X21746720Y41761731D01*
X21755960Y41774753D01*
X21763168Y41789960D01*
X21768596Y41810998D01*
X21772495Y41841514D01*
X21775117Y41885153D01*
X21775972Y41917515D01*
X21567455Y41917515D01*
X21442464Y41917515D01*
X21369323Y41919654D01*
X21294239Y41925283D01*
X21232616Y41933221D01*
X21228897Y41933889D01*
X21119447Y41963252D01*
X21034552Y42007367D01*
X20971528Y42068281D01*
X20927686Y42148040D01*
X20920063Y42169180D01*
X20912590Y42202102D01*
X20915825Y42234628D01*
X20931567Y42277900D01*
X20941056Y42299157D01*
X20972129Y42355644D01*
X21009567Y42395273D01*
X21050759Y42422870D01*
X21133270Y42458782D01*
X21238867Y42484796D01*
X21361882Y42499776D01*
X21450976Y42503072D01*
X21567455Y42503669D01*
X21567455Y41917515D01*
X21775972Y41917515D01*
X21776714Y41945564D01*
X21777536Y42026392D01*
X21777836Y42131283D01*
X21777870Y42213302D01*
X21777870Y42625272D01*
X21740979Y42662163D01*
X21724606Y42677116D01*
X21706903Y42687356D01*
X21682181Y42693763D01*
X21644752Y42697217D01*
X21588927Y42698597D01*
X21509018Y42698783D01*
X21504263Y42698777D01*
X21504263Y42698777D01*
G37*
X21504263Y42698777D02*
X21332545Y42692971D01*
X21186491Y42675363D01*
X21063693Y42644901D01*
X20961743Y42600529D01*
X20878232Y42541193D01*
X20810753Y42465840D01*
X20756897Y42373414D01*
X20755838Y42371160D01*
X20723697Y42288440D01*
X20712245Y42215180D01*
X20721526Y42141452D01*
X20751585Y42057329D01*
X20757285Y42044527D01*
X20796161Y41969602D01*
X20839851Y41911707D01*
X20896240Y41862492D01*
X20973208Y41813607D01*
X20977680Y41811055D01*
X21044683Y41778869D01*
X21120415Y41754832D01*
X21209742Y41738113D01*
X21317531Y41727885D01*
X21448648Y41723318D01*
X21494974Y41722921D01*
X21715570Y41722130D01*
X21746720Y41761731D01*
X21755960Y41774753D01*
X21763168Y41789960D01*
X21768596Y41810998D01*
X21772495Y41841514D01*
X21775117Y41885153D01*
X21775972Y41917515D01*
X21567455Y41917515D01*
X21442464Y41917515D01*
X21369323Y41919654D01*
X21294239Y41925283D01*
X21232616Y41933221D01*
X21228897Y41933889D01*
X21119447Y41963252D01*
X21034552Y42007367D01*
X20971528Y42068281D01*
X20927686Y42148040D01*
X20920063Y42169180D01*
X20912590Y42202102D01*
X20915825Y42234628D01*
X20931567Y42277900D01*
X20941056Y42299157D01*
X20972129Y42355644D01*
X21009567Y42395273D01*
X21050759Y42422870D01*
X21133270Y42458782D01*
X21238867Y42484796D01*
X21361882Y42499776D01*
X21450976Y42503072D01*
X21567455Y42503669D01*
X21567455Y41917515D01*
X21775972Y41917515D01*
X21776714Y41945564D01*
X21777536Y42026392D01*
X21777836Y42131283D01*
X21777870Y42213302D01*
X21777870Y42625272D01*
X21740979Y42662163D01*
X21724606Y42677116D01*
X21706903Y42687356D01*
X21682181Y42693763D01*
X21644752Y42697217D01*
X21588927Y42698597D01*
X21509018Y42698783D01*
X21504263Y42698777D01*
G36*
X17874499Y42696434D02*
X17848418Y42687114D01*
X17847412Y42686658D01*
X17811994Y42659630D01*
X17792480Y42631828D01*
X17788662Y42618792D01*
X17788851Y42601472D01*
X17794224Y42576797D01*
X17805958Y42541700D01*
X17825233Y42493111D01*
X17853224Y42427962D01*
X17891110Y42343183D01*
X17940068Y42235705D01*
X17967015Y42176961D01*
X18015676Y42072091D01*
X18061356Y41975650D01*
X18102312Y41891166D01*
X18136800Y41822164D01*
X18163077Y41772170D01*
X18179400Y41744710D01*
X18182630Y41740917D01*
X18223957Y41724184D01*
X18270637Y41726425D01*
X18308076Y41746777D01*
X18309602Y41748432D01*
X18324495Y41770978D01*
X18349477Y41814893D01*
X18381467Y41874524D01*
X18417386Y41944218D01*
X18430294Y41969901D01*
X18527732Y42165067D01*
X18633940Y41953057D01*
X18671849Y41879803D01*
X18707019Y41816274D01*
X18736578Y41767333D01*
X18757652Y41737842D01*
X18764794Y41731588D01*
X18820308Y41723119D01*
X18866117Y41740917D01*
X18879592Y41759939D01*
X18902910Y41802215D01*
X18934169Y41863584D01*
X18971466Y41939888D01*
X19012900Y42026965D01*
X19056568Y42120657D01*
X19100568Y42216803D01*
X19142998Y42311243D01*
X19181956Y42399819D01*
X19215539Y42478368D01*
X19241845Y42542733D01*
X19258972Y42588753D01*
X19265017Y42612267D01*
X19264955Y42613119D01*
X19250246Y42642708D01*
X19220844Y42672844D01*
X19219113Y42674156D01*
X19182976Y42694582D01*
X19149552Y42694384D01*
X19137024Y42690533D01*
X19121759Y42682211D01*
X19105548Y42665839D01*
X19086447Y42638022D01*
X19062511Y42595364D01*
X19031795Y42534469D01*
X18992355Y42451939D01*
X18956788Y42375757D01*
X18915869Y42287450D01*
X18879202Y42208038D01*
X18848692Y42141668D01*
X18826244Y42092489D01*
X18813763Y42064651D01*
X18811943Y42060296D01*
X18803756Y42067415D01*
X18784941Y42097223D01*
X18758000Y42145368D01*
X18725438Y42207501D01*
X18712480Y42233136D01*
X18668586Y42319699D01*
X18634735Y42382739D01*
X18608149Y42425922D01*
X18586051Y42452912D01*
X18565662Y42467376D01*
X18544206Y42472977D01*
X18530223Y42473610D01*
X18505558Y42471424D01*
X18483944Y42462385D01*
X18462468Y42442767D01*
X18438216Y42408847D01*
X18408276Y42356902D01*
X18369733Y42283206D01*
X18348468Y42241284D01*
X18313974Y42174470D01*
X18283890Y42119063D01*
X18260869Y42079737D01*
X18247566Y42061168D01*
X18245757Y42060395D01*
X18237166Y42075009D01*
X18217932Y42112957D01*
X18189981Y42170268D01*
X18155239Y42242968D01*
X18115633Y42327088D01*
X18096150Y42368870D01*
X18045466Y42476701D01*
X18004653Y42559674D01*
X17971592Y42620498D01*
X17944165Y42661879D01*
X17920254Y42686524D01*
X17897738Y42697140D01*
X17874499Y42696434D01*
X17874499Y42696434D01*
G37*
X17874499Y42696434D02*
X17848418Y42687114D01*
X17847412Y42686658D01*
X17811994Y42659630D01*
X17792480Y42631828D01*
X17788662Y42618792D01*
X17788851Y42601472D01*
X17794224Y42576797D01*
X17805958Y42541700D01*
X17825233Y42493111D01*
X17853224Y42427962D01*
X17891110Y42343183D01*
X17940068Y42235705D01*
X17967015Y42176961D01*
X18015676Y42072091D01*
X18061356Y41975650D01*
X18102312Y41891166D01*
X18136800Y41822164D01*
X18163077Y41772170D01*
X18179400Y41744710D01*
X18182630Y41740917D01*
X18223957Y41724184D01*
X18270637Y41726425D01*
X18308076Y41746777D01*
X18309602Y41748432D01*
X18324495Y41770978D01*
X18349477Y41814893D01*
X18381467Y41874524D01*
X18417386Y41944218D01*
X18430294Y41969901D01*
X18527732Y42165067D01*
X18633940Y41953057D01*
X18671849Y41879803D01*
X18707019Y41816274D01*
X18736578Y41767333D01*
X18757652Y41737842D01*
X18764794Y41731588D01*
X18820308Y41723119D01*
X18866117Y41740917D01*
X18879592Y41759939D01*
X18902910Y41802215D01*
X18934169Y41863584D01*
X18971466Y41939888D01*
X19012900Y42026965D01*
X19056568Y42120657D01*
X19100568Y42216803D01*
X19142998Y42311243D01*
X19181956Y42399819D01*
X19215539Y42478368D01*
X19241845Y42542733D01*
X19258972Y42588753D01*
X19265017Y42612267D01*
X19264955Y42613119D01*
X19250246Y42642708D01*
X19220844Y42672844D01*
X19219113Y42674156D01*
X19182976Y42694582D01*
X19149552Y42694384D01*
X19137024Y42690533D01*
X19121759Y42682211D01*
X19105548Y42665839D01*
X19086447Y42638022D01*
X19062511Y42595364D01*
X19031795Y42534469D01*
X18992355Y42451939D01*
X18956788Y42375757D01*
X18915869Y42287450D01*
X18879202Y42208038D01*
X18848692Y42141668D01*
X18826244Y42092489D01*
X18813763Y42064651D01*
X18811943Y42060296D01*
X18803756Y42067415D01*
X18784941Y42097223D01*
X18758000Y42145368D01*
X18725438Y42207501D01*
X18712480Y42233136D01*
X18668586Y42319699D01*
X18634735Y42382739D01*
X18608149Y42425922D01*
X18586051Y42452912D01*
X18565662Y42467376D01*
X18544206Y42472977D01*
X18530223Y42473610D01*
X18505558Y42471424D01*
X18483944Y42462385D01*
X18462468Y42442767D01*
X18438216Y42408847D01*
X18408276Y42356902D01*
X18369733Y42283206D01*
X18348468Y42241284D01*
X18313974Y42174470D01*
X18283890Y42119063D01*
X18260869Y42079737D01*
X18247566Y42061168D01*
X18245757Y42060395D01*
X18237166Y42075009D01*
X18217932Y42112957D01*
X18189981Y42170268D01*
X18155239Y42242968D01*
X18115633Y42327088D01*
X18096150Y42368870D01*
X18045466Y42476701D01*
X18004653Y42559674D01*
X17971592Y42620498D01*
X17944165Y42661879D01*
X17920254Y42686524D01*
X17897738Y42697140D01*
X17874499Y42696434D01*
G36*
X17283442Y42689987D02*
X17251872Y42670322D01*
X17216390Y42641591D01*
X17216390Y42213498D01*
X17216503Y42088274D01*
X17216987Y41989617D01*
X17218060Y41914034D01*
X17219938Y41858031D01*
X17222840Y41818117D01*
X17226983Y41790798D01*
X17232584Y41772583D01*
X17239861Y41759978D01*
X17245022Y41753768D01*
X17286878Y41726484D01*
X17334541Y41727597D01*
X17376293Y41750862D01*
X17411775Y41779593D01*
X17411775Y42641591D01*
X17376293Y42670322D01*
X17342048Y42691222D01*
X17314083Y42699054D01*
X17283442Y42689987D01*
X17283442Y42689987D01*
G37*
X17283442Y42689987D02*
X17251872Y42670322D01*
X17216390Y42641591D01*
X17216390Y42213498D01*
X17216503Y42088274D01*
X17216987Y41989617D01*
X17218060Y41914034D01*
X17219938Y41858031D01*
X17222840Y41818117D01*
X17226983Y41790798D01*
X17232584Y41772583D01*
X17239861Y41759978D01*
X17245022Y41753768D01*
X17286878Y41726484D01*
X17334541Y41727597D01*
X17376293Y41750862D01*
X17411775Y41779593D01*
X17411775Y42641591D01*
X17376293Y42670322D01*
X17342048Y42691222D01*
X17314083Y42699054D01*
X17283442Y42689987D01*
G36*
X16252369Y42698925D02*
X16147581Y42698421D01*
X16066247Y42697368D01*
X16005066Y42695588D01*
X15960735Y42692907D01*
X15929952Y42689150D01*
X15909415Y42684139D01*
X15895821Y42677701D01*
X15889243Y42672752D01*
X15855102Y42629435D01*
X15850972Y42584461D01*
X15872070Y42543604D01*
X15885867Y42527278D01*
X15900714Y42516146D01*
X15922231Y42509214D01*
X15956038Y42505487D01*
X16007754Y42503970D01*
X16082999Y42503670D01*
X16097777Y42503669D01*
X16292071Y42503669D01*
X16292071Y42142959D01*
X16292199Y42029263D01*
X16292780Y41941779D01*
X16294110Y41876662D01*
X16296486Y41830066D01*
X16300202Y41798145D01*
X16305554Y41777052D01*
X16312839Y41762941D01*
X16322130Y41752190D01*
X16365975Y41725768D01*
X16411746Y41727850D01*
X16453256Y41757995D01*
X16456305Y41761731D01*
X16466234Y41775854D01*
X16473798Y41792378D01*
X16479317Y41815318D01*
X16483113Y41848691D01*
X16485504Y41896509D01*
X16486812Y41962790D01*
X16487355Y42051546D01*
X16487455Y42152501D01*
X16487455Y42503669D01*
X16672996Y42503669D01*
X16752619Y42504208D01*
X16807742Y42506307D01*
X16843914Y42510693D01*
X16866684Y42518088D01*
X16881599Y42529219D01*
X16883410Y42531154D01*
X16905188Y42575407D01*
X16903262Y42625435D01*
X16878225Y42668994D01*
X16868542Y42677444D01*
X16856058Y42684143D01*
X16837443Y42689295D01*
X16809369Y42693103D01*
X16768505Y42695767D01*
X16711524Y42697492D01*
X16635094Y42698480D01*
X16535889Y42698932D01*
X16410577Y42699052D01*
X16383913Y42699054D01*
X16252369Y42698925D01*
X16252369Y42698925D01*
G37*
X16252369Y42698925D02*
X16147581Y42698421D01*
X16066247Y42697368D01*
X16005066Y42695588D01*
X15960735Y42692907D01*
X15929952Y42689150D01*
X15909415Y42684139D01*
X15895821Y42677701D01*
X15889243Y42672752D01*
X15855102Y42629435D01*
X15850972Y42584461D01*
X15872070Y42543604D01*
X15885867Y42527278D01*
X15900714Y42516146D01*
X15922231Y42509214D01*
X15956038Y42505487D01*
X16007754Y42503970D01*
X16082999Y42503670D01*
X16097777Y42503669D01*
X16292071Y42503669D01*
X16292071Y42142959D01*
X16292199Y42029263D01*
X16292780Y41941779D01*
X16294110Y41876662D01*
X16296486Y41830066D01*
X16300202Y41798145D01*
X16305554Y41777052D01*
X16312839Y41762941D01*
X16322130Y41752190D01*
X16365975Y41725768D01*
X16411746Y41727850D01*
X16453256Y41757995D01*
X16456305Y41761731D01*
X16466234Y41775854D01*
X16473798Y41792378D01*
X16479317Y41815318D01*
X16483113Y41848691D01*
X16485504Y41896509D01*
X16486812Y41962790D01*
X16487355Y42051546D01*
X16487455Y42152501D01*
X16487455Y42503669D01*
X16672996Y42503669D01*
X16752619Y42504208D01*
X16807742Y42506307D01*
X16843914Y42510693D01*
X16866684Y42518088D01*
X16881599Y42529219D01*
X16883410Y42531154D01*
X16905188Y42575407D01*
X16903262Y42625435D01*
X16878225Y42668994D01*
X16868542Y42677444D01*
X16856058Y42684143D01*
X16837443Y42689295D01*
X16809369Y42693103D01*
X16768505Y42695767D01*
X16711524Y42697492D01*
X16635094Y42698480D01*
X16535889Y42698932D01*
X16410577Y42699052D01*
X16383913Y42699054D01*
X16252369Y42698925D01*
G36*
X14567187Y42691776D02*
X14525411Y42662163D01*
X14488521Y42625272D01*
X14488521Y42213302D01*
X14488617Y42090978D01*
X14489074Y41995066D01*
X14490143Y41921920D01*
X14492075Y41867894D01*
X14495123Y41829341D01*
X14499537Y41802616D01*
X14505570Y41784070D01*
X14513472Y41770059D01*
X14519671Y41761731D01*
X14560585Y41729015D01*
X14607564Y41725464D01*
X14650502Y41745527D01*
X14664690Y41757372D01*
X14674174Y41773106D01*
X14679895Y41798442D01*
X14682793Y41839094D01*
X14683808Y41900776D01*
X14683905Y41948426D01*
X14683905Y42127929D01*
X15345207Y42127929D01*
X15345207Y41964631D01*
X15345891Y41889959D01*
X15348627Y41838640D01*
X15354442Y41803987D01*
X15364362Y41779309D01*
X15376357Y41761731D01*
X15417500Y41729107D01*
X15464029Y41725244D01*
X15508573Y41748432D01*
X15520734Y41760588D01*
X15529323Y41776703D01*
X15534988Y41801804D01*
X15538377Y41840920D01*
X15540138Y41899078D01*
X15540918Y41981306D01*
X15541010Y42000178D01*
X15541654Y42155107D01*
X15541986Y42282790D01*
X15541878Y42386037D01*
X15541201Y42467661D01*
X15539828Y42530472D01*
X15537630Y42577283D01*
X15534480Y42610905D01*
X15530248Y42634149D01*
X15524808Y42649828D01*
X15518031Y42660753D01*
X15510532Y42668994D01*
X15468113Y42695357D01*
X15423874Y42691776D01*
X15382098Y42662163D01*
X15365193Y42643057D01*
X15354417Y42621953D01*
X15348405Y42591896D01*
X15345790Y42545931D01*
X15345207Y42477104D01*
X15345207Y42323314D01*
X14683905Y42323314D01*
X14683905Y42481125D01*
X14683230Y42553828D01*
X14680520Y42602919D01*
X14674745Y42634828D01*
X14664877Y42655986D01*
X14653846Y42668994D01*
X14611427Y42695357D01*
X14567187Y42691776D01*
X14567187Y42691776D01*
G37*
X14567187Y42691776D02*
X14525411Y42662163D01*
X14488521Y42625272D01*
X14488521Y42213302D01*
X14488617Y42090978D01*
X14489074Y41995066D01*
X14490143Y41921920D01*
X14492075Y41867894D01*
X14495123Y41829341D01*
X14499537Y41802616D01*
X14505570Y41784070D01*
X14513472Y41770059D01*
X14519671Y41761731D01*
X14560585Y41729015D01*
X14607564Y41725464D01*
X14650502Y41745527D01*
X14664690Y41757372D01*
X14674174Y41773106D01*
X14679895Y41798442D01*
X14682793Y41839094D01*
X14683808Y41900776D01*
X14683905Y41948426D01*
X14683905Y42127929D01*
X15345207Y42127929D01*
X15345207Y41964631D01*
X15345891Y41889959D01*
X15348627Y41838640D01*
X15354442Y41803987D01*
X15364362Y41779309D01*
X15376357Y41761731D01*
X15417500Y41729107D01*
X15464029Y41725244D01*
X15508573Y41748432D01*
X15520734Y41760588D01*
X15529323Y41776703D01*
X15534988Y41801804D01*
X15538377Y41840920D01*
X15540138Y41899078D01*
X15540918Y41981306D01*
X15541010Y42000178D01*
X15541654Y42155107D01*
X15541986Y42282790D01*
X15541878Y42386037D01*
X15541201Y42467661D01*
X15539828Y42530472D01*
X15537630Y42577283D01*
X15534480Y42610905D01*
X15530248Y42634149D01*
X15524808Y42649828D01*
X15518031Y42660753D01*
X15510532Y42668994D01*
X15468113Y42695357D01*
X15423874Y42691776D01*
X15382098Y42662163D01*
X15365193Y42643057D01*
X15354417Y42621953D01*
X15348405Y42591896D01*
X15345790Y42545931D01*
X15345207Y42477104D01*
X15345207Y42323314D01*
X14683905Y42323314D01*
X14683905Y42481125D01*
X14683230Y42553828D01*
X14680520Y42602919D01*
X14674745Y42634828D01*
X14664877Y42655986D01*
X14653846Y42668994D01*
X14611427Y42695357D01*
X14567187Y42691776D01*
G36*
X26782722Y49062976D02*
X26768256Y48911281D01*
X26726163Y48767997D01*
X26658393Y48636193D01*
X26566899Y48518942D01*
X26453635Y48419313D01*
X26324510Y48342271D01*
X26183028Y48289521D01*
X26040554Y48264799D01*
X25899896Y48266316D01*
X25763864Y48292283D01*
X25635267Y48340910D01*
X25516914Y48410407D01*
X25411614Y48498986D01*
X25322177Y48604857D01*
X25251412Y48726230D01*
X25202129Y48861317D01*
X25177135Y49008326D01*
X25174556Y49074756D01*
X25174556Y49191835D01*
X25105420Y49191835D01*
X25057081Y49188047D01*
X25021271Y49172338D01*
X24985183Y49140734D01*
X24934083Y49089633D01*
X24934083Y46171862D01*
X24934095Y45822862D01*
X24934138Y45502668D01*
X24934223Y45210026D01*
X24934361Y44943682D01*
X24934562Y44702383D01*
X24934838Y44484875D01*
X24935200Y44289905D01*
X24935658Y44116220D01*
X24936223Y43962565D01*
X24936906Y43827687D01*
X24937717Y43710332D01*
X24938669Y43609247D01*
X24939771Y43523179D01*
X24941035Y43450873D01*
X24942470Y43391077D01*
X24944089Y43342536D01*
X24945902Y43303997D01*
X24947920Y43274207D01*
X24950154Y43251911D01*
X24952614Y43235857D01*
X24955312Y43224790D01*
X24958258Y43217458D01*
X24959699Y43214995D01*
X24965241Y43205660D01*
X24969947Y43197077D01*
X24975045Y43189216D01*
X24981765Y43182045D01*
X24991336Y43175533D01*
X25004986Y43169647D01*
X25023945Y43164358D01*
X25049442Y43159632D01*
X25082705Y43155440D01*
X25124964Y43151749D01*
X25177448Y43148528D01*
X25241386Y43145746D01*
X25318007Y43143370D01*
X25408540Y43141371D01*
X25514214Y43139716D01*
X25636258Y43138373D01*
X25775901Y43137313D01*
X25934372Y43136502D01*
X26112900Y43135910D01*
X26312715Y43135505D01*
X26535045Y43135256D01*
X26781119Y43135131D01*
X27052166Y43135099D01*
X27349416Y43135129D01*
X27674097Y43135189D01*
X28027438Y43135248D01*
X28078541Y43135254D01*
X28433985Y43135311D01*
X28760594Y43135405D01*
X29059592Y43135545D01*
X29332204Y43135741D01*
X29579653Y43136003D01*
X29803164Y43136340D01*
X30003960Y43136761D01*
X30183266Y43137277D01*
X30342307Y43137896D01*
X30482306Y43138629D01*
X30604487Y43139485D01*
X30710075Y43140474D01*
X30800293Y43141606D01*
X30876366Y43142889D01*
X30939519Y43144334D01*
X30990975Y43145951D01*
X31031958Y43147748D01*
X31063692Y43149735D01*
X31087402Y43151923D01*
X31104312Y43154321D01*
X31115646Y43156937D01*
X31121448Y43159159D01*
X31132714Y43163912D01*
X31143058Y43167422D01*
X31152517Y43170932D01*
X31161132Y43175687D01*
X31168942Y43182931D01*
X31175985Y43193909D01*
X31182302Y43209865D01*
X31187931Y43232045D01*
X31192912Y43261691D01*
X31197284Y43300049D01*
X31201086Y43348363D01*
X31204358Y43407878D01*
X31207139Y43479837D01*
X31209467Y43565487D01*
X31211383Y43666069D01*
X31212925Y43782831D01*
X31214134Y43917015D01*
X31215047Y44069866D01*
X31215705Y44242629D01*
X31216146Y44436548D01*
X31216411Y44652867D01*
X31216536Y44892832D01*
X31216564Y45157686D01*
X31216533Y45448674D01*
X31216481Y45767040D01*
X31216449Y46114030D01*
X31216449Y46170148D01*
X31216467Y46520159D01*
X31216501Y46841364D01*
X31216515Y47135017D01*
X31216476Y47402372D01*
X31216351Y47644683D01*
X31216103Y47863203D01*
X31215700Y48059187D01*
X31215107Y48233887D01*
X31214335Y48380237D01*
X30811149Y48380237D01*
X30758174Y48303225D01*
X30743302Y48282232D01*
X30729895Y48263644D01*
X30717876Y48245880D01*
X30707170Y48227362D01*
X30697703Y48206509D01*
X30689397Y48181743D01*
X30682178Y48151483D01*
X30675969Y48114150D01*
X30670696Y48068165D01*
X30666282Y48011948D01*
X30662652Y47943920D01*
X30659730Y47862500D01*
X30657441Y47766110D01*
X30655709Y47653170D01*
X30654458Y47522101D01*
X30653614Y47371322D01*
X30653099Y47199254D01*
X30652839Y47004319D01*
X30652757Y46784935D01*
X30652779Y46539524D01*
X30652828Y46266506D01*
X30652840Y46103255D01*
X30652808Y45814417D01*
X30652763Y45554057D01*
X30652779Y45320594D01*
X30652931Y45112446D01*
X30653294Y44928031D01*
X30653943Y44765769D01*
X30654953Y44624078D01*
X30656399Y44501376D01*
X30658355Y44396083D01*
X30660896Y44306617D01*
X30664097Y44231397D01*
X30668033Y44168841D01*
X30672780Y44117368D01*
X30678410Y44075397D01*
X30685001Y44041347D01*
X30692626Y44013635D01*
X30701360Y43990682D01*
X30711279Y43970904D01*
X30722456Y43952722D01*
X30734967Y43934554D01*
X30748888Y43914818D01*
X30756997Y43902981D01*
X30808618Y43826272D01*
X30100914Y43826272D01*
X29936826Y43826319D01*
X29800367Y43826519D01*
X29689109Y43826967D01*
X29600621Y43827756D01*
X29532476Y43828980D01*
X29482243Y43830731D01*
X29447493Y43833103D01*
X29425798Y43836190D01*
X29414727Y43840084D01*
X29411851Y43844880D01*
X29414741Y43850670D01*
X29416333Y43852574D01*
X29449817Y43901930D01*
X29484296Y43972227D01*
X29515729Y44054773D01*
X29526738Y44089939D01*
X29532884Y44113825D01*
X29538078Y44141865D01*
X29542430Y44176835D01*
X29546048Y44221511D01*
X29549043Y44278671D01*
X29551523Y44351090D01*
X29553598Y44441545D01*
X29555377Y44552812D01*
X29556970Y44687669D01*
X29558486Y44848891D01*
X29558988Y44908403D01*
X29560342Y45075024D01*
X29561352Y45213974D01*
X29561941Y45327639D01*
X29562031Y45418404D01*
X29561544Y45488656D01*
X29560403Y45540781D01*
X29558530Y45577166D01*
X29555847Y45600196D01*
X29552276Y45612258D01*
X29547739Y45615739D01*
X29542159Y45613024D01*
X29536203Y45607278D01*
X29522417Y45590057D01*
X29493050Y45551349D01*
X29450179Y45493990D01*
X29395882Y45420819D01*
X29332237Y45334674D01*
X29261323Y45238391D01*
X29185216Y45134808D01*
X29105995Y45026763D01*
X29025738Y44917093D01*
X28946522Y44808636D01*
X28870426Y44704230D01*
X28799527Y44606711D01*
X28735903Y44518917D01*
X28681633Y44443686D01*
X28638793Y44383856D01*
X28609462Y44342263D01*
X28603380Y44333433D01*
X28572864Y44284302D01*
X28537172Y44220410D01*
X28503357Y44154458D01*
X28499069Y44145563D01*
X28470208Y44081398D01*
X28453452Y44031390D01*
X28445823Y43983693D01*
X28444334Y43927722D01*
X28445178Y43826272D01*
X26908204Y43826272D01*
X27029575Y43951062D01*
X27091879Y44017490D01*
X27158830Y44092684D01*
X27220132Y44164937D01*
X27247325Y44198690D01*
X27287849Y44251339D01*
X27341176Y44322183D01*
X27405747Y44409053D01*
X27480001Y44509778D01*
X27562381Y44622191D01*
X27651326Y44744121D01*
X27745278Y44873398D01*
X27842678Y45007854D01*
X27941965Y45145319D01*
X28041581Y45283623D01*
X28139967Y45420597D01*
X28235564Y45554071D01*
X28326812Y45681876D01*
X28412152Y45801843D01*
X28490025Y45911801D01*
X28558871Y46009582D01*
X28617132Y46093016D01*
X28663249Y46159934D01*
X28695661Y46208166D01*
X28712810Y46235542D01*
X28715150Y46241004D01*
X28704554Y46256083D01*
X28676868Y46292270D01*
X28633909Y46347299D01*
X28577490Y46418907D01*
X28509426Y46504829D01*
X28431533Y46602802D01*
X28345625Y46710562D01*
X28253517Y46825845D01*
X28157023Y46946386D01*
X28057959Y47069921D01*
X27978438Y47168918D01*
X26632426Y47168918D01*
X26624558Y47151667D01*
X26605480Y47122045D01*
X26604086Y47120072D01*
X26579073Y47079927D01*
X26552916Y47030891D01*
X26547725Y47020059D01*
X26543017Y47008837D01*
X26538857Y46995366D01*
X26535203Y46977790D01*
X26532015Y46954255D01*
X26529255Y46922906D01*
X26526881Y46881888D01*
X26524853Y46829348D01*
X26523132Y46763429D01*
X26521676Y46682277D01*
X26520447Y46584038D01*
X26519404Y46466857D01*
X26518506Y46328879D01*
X26517714Y46168249D01*
X26516988Y45983112D01*
X26516287Y45771614D01*
X26515577Y45533491D01*
X26514860Y45287033D01*
X26514282Y45068771D01*
X26513931Y44876845D01*
X26513898Y44709393D01*
X26514272Y44564551D01*
X26515143Y44440460D01*
X26516601Y44335256D01*
X26518736Y44247078D01*
X26521637Y44174064D01*
X26525394Y44114352D01*
X26530097Y44066080D01*
X26535835Y44027386D01*
X26542699Y43996409D01*
X26550778Y43971286D01*
X26560162Y43950155D01*
X26570940Y43931155D01*
X26583203Y43912424D01*
X26594520Y43895825D01*
X26617334Y43860818D01*
X26630843Y43837407D01*
X26632426Y43833120D01*
X26617905Y43831686D01*
X26576375Y43830354D01*
X26510889Y43829155D01*
X26424495Y43828123D01*
X26320246Y43827288D01*
X26201192Y43826683D01*
X26070384Y43826340D01*
X25978639Y43826272D01*
X25838855Y43826566D01*
X25709924Y43827407D01*
X25594758Y43828737D01*
X25496270Y43830497D01*
X25417376Y43832628D01*
X25360988Y43835072D01*
X25330020Y43837769D01*
X25324852Y43839462D01*
X25335100Y43859303D01*
X25345749Y43869994D01*
X25363286Y43892796D01*
X25386237Y43933071D01*
X25402110Y43965769D01*
X25437574Y44044201D01*
X25441668Y45611036D01*
X25445762Y47177870D01*
X26039094Y47177870D01*
X26169323Y47177651D01*
X26289670Y47177027D01*
X26396932Y47176047D01*
X26487907Y47174757D01*
X26559393Y47173208D01*
X26608186Y47171446D01*
X26631085Y47169521D01*
X26632426Y47168918D01*
X27978438Y47168918D01*
X27958140Y47194187D01*
X27859380Y47316919D01*
X27763493Y47435853D01*
X27672296Y47548726D01*
X27587602Y47653272D01*
X27511227Y47747229D01*
X27444984Y47828332D01*
X27390690Y47894316D01*
X27367838Y47921835D01*
X27252952Y48055851D01*
X27150971Y48166697D01*
X27059355Y48256991D01*
X26975566Y48329349D01*
X26963077Y48339158D01*
X26910473Y48379904D01*
X27663864Y48380070D01*
X28417254Y48380237D01*
X28410213Y48316361D01*
X28414610Y48240016D01*
X28443276Y48149118D01*
X28496496Y48042943D01*
X28556817Y47946708D01*
X28578409Y47916559D01*
X28615758Y47866559D01*
X28666637Y47799558D01*
X28728820Y47718409D01*
X28800081Y47625962D01*
X28878192Y47525067D01*
X28960928Y47418577D01*
X29046063Y47309342D01*
X29131369Y47200213D01*
X29214621Y47094041D01*
X29293592Y46993677D01*
X29366055Y46901973D01*
X29429785Y46821779D01*
X29482555Y46755946D01*
X29522138Y46707326D01*
X29546309Y46678770D01*
X29550381Y46674379D01*
X29554188Y46685038D01*
X29557135Y46725370D01*
X29559217Y46795000D01*
X29560429Y46893553D01*
X29560766Y47020656D01*
X29560223Y47175932D01*
X29559013Y47335681D01*
X29557253Y47511569D01*
X29555223Y47660333D01*
X29552593Y47784908D01*
X29549031Y47888229D01*
X29544206Y47973231D01*
X29537787Y48042848D01*
X29529444Y48100016D01*
X29518844Y48147669D01*
X29505657Y48188743D01*
X29489552Y48226173D01*
X29470197Y48262893D01*
X29450650Y48296229D01*
X29400063Y48380237D01*
X30811149Y48380237D01*
X31214335Y48380237D01*
X31214291Y48388558D01*
X31213218Y48524453D01*
X31211853Y48642826D01*
X31210162Y48744931D01*
X31208112Y48832021D01*
X31205668Y48905350D01*
X31202796Y48966171D01*
X31199462Y49015740D01*
X31195633Y49055308D01*
X31191274Y49086130D01*
X31186351Y49109460D01*
X31180830Y49126552D01*
X31174678Y49138658D01*
X31167859Y49147033D01*
X31160340Y49152930D01*
X31152087Y49157604D01*
X31143067Y49162307D01*
X31135084Y49167058D01*
X31128117Y49170488D01*
X31117232Y49173588D01*
X31100972Y49176375D01*
X31077879Y49178866D01*
X31046497Y49181077D01*
X31005368Y49183024D01*
X30953034Y49184724D01*
X30888039Y49186193D01*
X30808925Y49187448D01*
X30714236Y49188506D01*
X30602512Y49189382D01*
X30472299Y49190093D01*
X30322137Y49190655D01*
X30150570Y49191086D01*
X29956141Y49191401D01*
X29737392Y49191617D01*
X29492866Y49191750D01*
X29221105Y49191817D01*
X28939996Y49191835D01*
X26782722Y49191835D01*
X26782722Y49062976D01*
X26782722Y49062976D01*
G37*
X26782722Y49062976D02*
X26768256Y48911281D01*
X26726163Y48767997D01*
X26658393Y48636193D01*
X26566899Y48518942D01*
X26453635Y48419313D01*
X26324510Y48342271D01*
X26183028Y48289521D01*
X26040554Y48264799D01*
X25899896Y48266316D01*
X25763864Y48292283D01*
X25635267Y48340910D01*
X25516914Y48410407D01*
X25411614Y48498986D01*
X25322177Y48604857D01*
X25251412Y48726230D01*
X25202129Y48861317D01*
X25177135Y49008326D01*
X25174556Y49074756D01*
X25174556Y49191835D01*
X25105420Y49191835D01*
X25057081Y49188047D01*
X25021271Y49172338D01*
X24985183Y49140734D01*
X24934083Y49089633D01*
X24934083Y46171862D01*
X24934095Y45822862D01*
X24934138Y45502668D01*
X24934223Y45210026D01*
X24934361Y44943682D01*
X24934562Y44702383D01*
X24934838Y44484875D01*
X24935200Y44289905D01*
X24935658Y44116220D01*
X24936223Y43962565D01*
X24936906Y43827687D01*
X24937717Y43710332D01*
X24938669Y43609247D01*
X24939771Y43523179D01*
X24941035Y43450873D01*
X24942470Y43391077D01*
X24944089Y43342536D01*
X24945902Y43303997D01*
X24947920Y43274207D01*
X24950154Y43251911D01*
X24952614Y43235857D01*
X24955312Y43224790D01*
X24958258Y43217458D01*
X24959699Y43214995D01*
X24965241Y43205660D01*
X24969947Y43197077D01*
X24975045Y43189216D01*
X24981765Y43182045D01*
X24991336Y43175533D01*
X25004986Y43169647D01*
X25023945Y43164358D01*
X25049442Y43159632D01*
X25082705Y43155440D01*
X25124964Y43151749D01*
X25177448Y43148528D01*
X25241386Y43145746D01*
X25318007Y43143370D01*
X25408540Y43141371D01*
X25514214Y43139716D01*
X25636258Y43138373D01*
X25775901Y43137313D01*
X25934372Y43136502D01*
X26112900Y43135910D01*
X26312715Y43135505D01*
X26535045Y43135256D01*
X26781119Y43135131D01*
X27052166Y43135099D01*
X27349416Y43135129D01*
X27674097Y43135189D01*
X28027438Y43135248D01*
X28078541Y43135254D01*
X28433985Y43135311D01*
X28760594Y43135405D01*
X29059592Y43135545D01*
X29332204Y43135741D01*
X29579653Y43136003D01*
X29803164Y43136340D01*
X30003960Y43136761D01*
X30183266Y43137277D01*
X30342307Y43137896D01*
X30482306Y43138629D01*
X30604487Y43139485D01*
X30710075Y43140474D01*
X30800293Y43141606D01*
X30876366Y43142889D01*
X30939519Y43144334D01*
X30990975Y43145951D01*
X31031958Y43147748D01*
X31063692Y43149735D01*
X31087402Y43151923D01*
X31104312Y43154321D01*
X31115646Y43156937D01*
X31121448Y43159159D01*
X31132714Y43163912D01*
X31143058Y43167422D01*
X31152517Y43170932D01*
X31161132Y43175687D01*
X31168942Y43182931D01*
X31175985Y43193909D01*
X31182302Y43209865D01*
X31187931Y43232045D01*
X31192912Y43261691D01*
X31197284Y43300049D01*
X31201086Y43348363D01*
X31204358Y43407878D01*
X31207139Y43479837D01*
X31209467Y43565487D01*
X31211383Y43666069D01*
X31212925Y43782831D01*
X31214134Y43917015D01*
X31215047Y44069866D01*
X31215705Y44242629D01*
X31216146Y44436548D01*
X31216411Y44652867D01*
X31216536Y44892832D01*
X31216564Y45157686D01*
X31216533Y45448674D01*
X31216481Y45767040D01*
X31216449Y46114030D01*
X31216449Y46170148D01*
X31216467Y46520159D01*
X31216501Y46841364D01*
X31216515Y47135017D01*
X31216476Y47402372D01*
X31216351Y47644683D01*
X31216103Y47863203D01*
X31215700Y48059187D01*
X31215107Y48233887D01*
X31214335Y48380237D01*
X30811149Y48380237D01*
X30758174Y48303225D01*
X30743302Y48282232D01*
X30729895Y48263644D01*
X30717876Y48245880D01*
X30707170Y48227362D01*
X30697703Y48206509D01*
X30689397Y48181743D01*
X30682178Y48151483D01*
X30675969Y48114150D01*
X30670696Y48068165D01*
X30666282Y48011948D01*
X30662652Y47943920D01*
X30659730Y47862500D01*
X30657441Y47766110D01*
X30655709Y47653170D01*
X30654458Y47522101D01*
X30653614Y47371322D01*
X30653099Y47199254D01*
X30652839Y47004319D01*
X30652757Y46784935D01*
X30652779Y46539524D01*
X30652828Y46266506D01*
X30652840Y46103255D01*
X30652808Y45814417D01*
X30652763Y45554057D01*
X30652779Y45320594D01*
X30652931Y45112446D01*
X30653294Y44928031D01*
X30653943Y44765769D01*
X30654953Y44624078D01*
X30656399Y44501376D01*
X30658355Y44396083D01*
X30660896Y44306617D01*
X30664097Y44231397D01*
X30668033Y44168841D01*
X30672780Y44117368D01*
X30678410Y44075397D01*
X30685001Y44041347D01*
X30692626Y44013635D01*
X30701360Y43990682D01*
X30711279Y43970904D01*
X30722456Y43952722D01*
X30734967Y43934554D01*
X30748888Y43914818D01*
X30756997Y43902981D01*
X30808618Y43826272D01*
X30100914Y43826272D01*
X29936826Y43826319D01*
X29800367Y43826519D01*
X29689109Y43826967D01*
X29600621Y43827756D01*
X29532476Y43828980D01*
X29482243Y43830731D01*
X29447493Y43833103D01*
X29425798Y43836190D01*
X29414727Y43840084D01*
X29411851Y43844880D01*
X29414741Y43850670D01*
X29416333Y43852574D01*
X29449817Y43901930D01*
X29484296Y43972227D01*
X29515729Y44054773D01*
X29526738Y44089939D01*
X29532884Y44113825D01*
X29538078Y44141865D01*
X29542430Y44176835D01*
X29546048Y44221511D01*
X29549043Y44278671D01*
X29551523Y44351090D01*
X29553598Y44441545D01*
X29555377Y44552812D01*
X29556970Y44687669D01*
X29558486Y44848891D01*
X29558988Y44908403D01*
X29560342Y45075024D01*
X29561352Y45213974D01*
X29561941Y45327639D01*
X29562031Y45418404D01*
X29561544Y45488656D01*
X29560403Y45540781D01*
X29558530Y45577166D01*
X29555847Y45600196D01*
X29552276Y45612258D01*
X29547739Y45615739D01*
X29542159Y45613024D01*
X29536203Y45607278D01*
X29522417Y45590057D01*
X29493050Y45551349D01*
X29450179Y45493990D01*
X29395882Y45420819D01*
X29332237Y45334674D01*
X29261323Y45238391D01*
X29185216Y45134808D01*
X29105995Y45026763D01*
X29025738Y44917093D01*
X28946522Y44808636D01*
X28870426Y44704230D01*
X28799527Y44606711D01*
X28735903Y44518917D01*
X28681633Y44443686D01*
X28638793Y44383856D01*
X28609462Y44342263D01*
X28603380Y44333433D01*
X28572864Y44284302D01*
X28537172Y44220410D01*
X28503357Y44154458D01*
X28499069Y44145563D01*
X28470208Y44081398D01*
X28453452Y44031390D01*
X28445823Y43983693D01*
X28444334Y43927722D01*
X28445178Y43826272D01*
X26908204Y43826272D01*
X27029575Y43951062D01*
X27091879Y44017490D01*
X27158830Y44092684D01*
X27220132Y44164937D01*
X27247325Y44198690D01*
X27287849Y44251339D01*
X27341176Y44322183D01*
X27405747Y44409053D01*
X27480001Y44509778D01*
X27562381Y44622191D01*
X27651326Y44744121D01*
X27745278Y44873398D01*
X27842678Y45007854D01*
X27941965Y45145319D01*
X28041581Y45283623D01*
X28139967Y45420597D01*
X28235564Y45554071D01*
X28326812Y45681876D01*
X28412152Y45801843D01*
X28490025Y45911801D01*
X28558871Y46009582D01*
X28617132Y46093016D01*
X28663249Y46159934D01*
X28695661Y46208166D01*
X28712810Y46235542D01*
X28715150Y46241004D01*
X28704554Y46256083D01*
X28676868Y46292270D01*
X28633909Y46347299D01*
X28577490Y46418907D01*
X28509426Y46504829D01*
X28431533Y46602802D01*
X28345625Y46710562D01*
X28253517Y46825845D01*
X28157023Y46946386D01*
X28057959Y47069921D01*
X27978438Y47168918D01*
X26632426Y47168918D01*
X26624558Y47151667D01*
X26605480Y47122045D01*
X26604086Y47120072D01*
X26579073Y47079927D01*
X26552916Y47030891D01*
X26547725Y47020059D01*
X26543017Y47008837D01*
X26538857Y46995366D01*
X26535203Y46977790D01*
X26532015Y46954255D01*
X26529255Y46922906D01*
X26526881Y46881888D01*
X26524853Y46829348D01*
X26523132Y46763429D01*
X26521676Y46682277D01*
X26520447Y46584038D01*
X26519404Y46466857D01*
X26518506Y46328879D01*
X26517714Y46168249D01*
X26516988Y45983112D01*
X26516287Y45771614D01*
X26515577Y45533491D01*
X26514860Y45287033D01*
X26514282Y45068771D01*
X26513931Y44876845D01*
X26513898Y44709393D01*
X26514272Y44564551D01*
X26515143Y44440460D01*
X26516601Y44335256D01*
X26518736Y44247078D01*
X26521637Y44174064D01*
X26525394Y44114352D01*
X26530097Y44066080D01*
X26535835Y44027386D01*
X26542699Y43996409D01*
X26550778Y43971286D01*
X26560162Y43950155D01*
X26570940Y43931155D01*
X26583203Y43912424D01*
X26594520Y43895825D01*
X26617334Y43860818D01*
X26630843Y43837407D01*
X26632426Y43833120D01*
X26617905Y43831686D01*
X26576375Y43830354D01*
X26510889Y43829155D01*
X26424495Y43828123D01*
X26320246Y43827288D01*
X26201192Y43826683D01*
X26070384Y43826340D01*
X25978639Y43826272D01*
X25838855Y43826566D01*
X25709924Y43827407D01*
X25594758Y43828737D01*
X25496270Y43830497D01*
X25417376Y43832628D01*
X25360988Y43835072D01*
X25330020Y43837769D01*
X25324852Y43839462D01*
X25335100Y43859303D01*
X25345749Y43869994D01*
X25363286Y43892796D01*
X25386237Y43933071D01*
X25402110Y43965769D01*
X25437574Y44044201D01*
X25441668Y45611036D01*
X25445762Y47177870D01*
X26039094Y47177870D01*
X26169323Y47177651D01*
X26289670Y47177027D01*
X26396932Y47176047D01*
X26487907Y47174757D01*
X26559393Y47173208D01*
X26608186Y47171446D01*
X26631085Y47169521D01*
X26632426Y47168918D01*
X27978438Y47168918D01*
X27958140Y47194187D01*
X27859380Y47316919D01*
X27763493Y47435853D01*
X27672296Y47548726D01*
X27587602Y47653272D01*
X27511227Y47747229D01*
X27444984Y47828332D01*
X27390690Y47894316D01*
X27367838Y47921835D01*
X27252952Y48055851D01*
X27150971Y48166697D01*
X27059355Y48256991D01*
X26975566Y48329349D01*
X26963077Y48339158D01*
X26910473Y48379904D01*
X27663864Y48380070D01*
X28417254Y48380237D01*
X28410213Y48316361D01*
X28414610Y48240016D01*
X28443276Y48149118D01*
X28496496Y48042943D01*
X28556817Y47946708D01*
X28578409Y47916559D01*
X28615758Y47866559D01*
X28666637Y47799558D01*
X28728820Y47718409D01*
X28800081Y47625962D01*
X28878192Y47525067D01*
X28960928Y47418577D01*
X29046063Y47309342D01*
X29131369Y47200213D01*
X29214621Y47094041D01*
X29293592Y46993677D01*
X29366055Y46901973D01*
X29429785Y46821779D01*
X29482555Y46755946D01*
X29522138Y46707326D01*
X29546309Y46678770D01*
X29550381Y46674379D01*
X29554188Y46685038D01*
X29557135Y46725370D01*
X29559217Y46795000D01*
X29560429Y46893553D01*
X29560766Y47020656D01*
X29560223Y47175932D01*
X29559013Y47335681D01*
X29557253Y47511569D01*
X29555223Y47660333D01*
X29552593Y47784908D01*
X29549031Y47888229D01*
X29544206Y47973231D01*
X29537787Y48042848D01*
X29529444Y48100016D01*
X29518844Y48147669D01*
X29505657Y48188743D01*
X29489552Y48226173D01*
X29470197Y48262893D01*
X29450650Y48296229D01*
X29400063Y48380237D01*
X30811149Y48380237D01*
X31214335Y48380237D01*
X31214291Y48388558D01*
X31213218Y48524453D01*
X31211853Y48642826D01*
X31210162Y48744931D01*
X31208112Y48832021D01*
X31205668Y48905350D01*
X31202796Y48966171D01*
X31199462Y49015740D01*
X31195633Y49055308D01*
X31191274Y49086130D01*
X31186351Y49109460D01*
X31180830Y49126552D01*
X31174678Y49138658D01*
X31167859Y49147033D01*
X31160340Y49152930D01*
X31152087Y49157604D01*
X31143067Y49162307D01*
X31135084Y49167058D01*
X31128117Y49170488D01*
X31117232Y49173588D01*
X31100972Y49176375D01*
X31077879Y49178866D01*
X31046497Y49181077D01*
X31005368Y49183024D01*
X30953034Y49184724D01*
X30888039Y49186193D01*
X30808925Y49187448D01*
X30714236Y49188506D01*
X30602512Y49189382D01*
X30472299Y49190093D01*
X30322137Y49190655D01*
X30150570Y49191086D01*
X29956141Y49191401D01*
X29737392Y49191617D01*
X29492866Y49191750D01*
X29221105Y49191817D01*
X28939996Y49191835D01*
X26782722Y49191835D01*
X26782722Y49062976D01*
G36*
X22422742Y48450527D02*
X22209536Y48422337D01*
X21991273Y48368897D01*
X21765204Y48289675D01*
X21528582Y48184144D01*
X21513580Y48176762D01*
X21436768Y48139450D01*
X21368140Y48107395D01*
X21312703Y48082834D01*
X21275464Y48068008D01*
X21262722Y48064616D01*
X21237137Y48057949D01*
X21230997Y48052349D01*
X21237792Y48038459D01*
X21259147Y48003460D01*
X21292604Y47951020D01*
X21335706Y47884806D01*
X21385992Y47808486D01*
X21441005Y47725727D01*
X21498286Y47640199D01*
X21555377Y47555567D01*
X21609817Y47475500D01*
X21659150Y47403666D01*
X21700917Y47343732D01*
X21732658Y47299365D01*
X21751915Y47274235D01*
X21754558Y47271320D01*
X21768029Y47277509D01*
X21797773Y47300377D01*
X21838473Y47335686D01*
X21859434Y47354960D01*
X21987896Y47455186D01*
X22129966Y47528998D01*
X22283744Y47575730D01*
X22447328Y47594716D01*
X22539725Y47593157D01*
X22701005Y47570310D01*
X22846413Y47522538D01*
X22976384Y47449492D01*
X23091353Y47350824D01*
X23191754Y47226185D01*
X23278022Y47075224D01*
X23327839Y46959941D01*
X23386222Y46779276D01*
X23429252Y46582922D01*
X23457040Y46375943D01*
X23469695Y46163402D01*
X23467330Y45950362D01*
X23450055Y45741887D01*
X23417981Y45543039D01*
X23371218Y45358882D01*
X23309877Y45194480D01*
X23288200Y45148876D01*
X23197340Y44996986D01*
X23090219Y44868519D01*
X22968412Y44764522D01*
X22833490Y44686042D01*
X22687029Y44634126D01*
X22530600Y44609821D01*
X22475392Y44608033D01*
X22313554Y44622572D01*
X22153209Y44666263D01*
X21996390Y44738202D01*
X21845133Y44837488D01*
X21723436Y44941768D01*
X21661488Y45001055D01*
X21420155Y44605291D01*
X21360114Y44506554D01*
X21305211Y44415738D01*
X21257394Y44336105D01*
X21218609Y44270920D01*
X21190806Y44223446D01*
X21175930Y44196945D01*
X21173997Y44192825D01*
X21184953Y44179991D01*
X21219007Y44156984D01*
X21271855Y44125985D01*
X21339189Y44089171D01*
X21416706Y44048722D01*
X21500098Y44006818D01*
X21585060Y43965637D01*
X21667286Y43927358D01*
X21742471Y43894162D01*
X21806309Y43868225D01*
X21837533Y43857003D01*
X22015623Y43806658D01*
X22199209Y43773370D01*
X22395858Y43756057D01*
X22564659Y43752957D01*
X22655133Y43754415D01*
X22742471Y43757208D01*
X22818932Y43760991D01*
X22876770Y43765422D01*
X22895549Y43767663D01*
X23080628Y43806053D01*
X23269051Y43866123D01*
X23452090Y43944298D01*
X23621013Y44037000D01*
X23724201Y44107136D01*
X23893826Y44251191D01*
X24051330Y44419698D01*
X24193795Y44608492D01*
X24318303Y44813409D01*
X24421938Y45030285D01*
X24480324Y45186450D01*
X24547222Y45430924D01*
X24591821Y45689936D01*
X24614135Y45957881D01*
X24614179Y46229155D01*
X24591966Y46498153D01*
X24547509Y46759271D01*
X24480824Y47006905D01*
X24475743Y47022334D01*
X24392022Y47238085D01*
X24289844Y47435017D01*
X24165742Y47618701D01*
X24016250Y47794712D01*
X23957850Y47854973D01*
X23776596Y48019984D01*
X23590263Y48156505D01*
X23395991Y48266021D01*
X23190921Y48350019D01*
X22972190Y48409985D01*
X22844970Y48433270D01*
X22633637Y48453995D01*
X22422742Y48450527D01*
X22422742Y48450527D01*
G37*
X22422742Y48450527D02*
X22209536Y48422337D01*
X21991273Y48368897D01*
X21765204Y48289675D01*
X21528582Y48184144D01*
X21513580Y48176762D01*
X21436768Y48139450D01*
X21368140Y48107395D01*
X21312703Y48082834D01*
X21275464Y48068008D01*
X21262722Y48064616D01*
X21237137Y48057949D01*
X21230997Y48052349D01*
X21237792Y48038459D01*
X21259147Y48003460D01*
X21292604Y47951020D01*
X21335706Y47884806D01*
X21385992Y47808486D01*
X21441005Y47725727D01*
X21498286Y47640199D01*
X21555377Y47555567D01*
X21609817Y47475500D01*
X21659150Y47403666D01*
X21700917Y47343732D01*
X21732658Y47299365D01*
X21751915Y47274235D01*
X21754558Y47271320D01*
X21768029Y47277509D01*
X21797773Y47300377D01*
X21838473Y47335686D01*
X21859434Y47354960D01*
X21987896Y47455186D01*
X22129966Y47528998D01*
X22283744Y47575730D01*
X22447328Y47594716D01*
X22539725Y47593157D01*
X22701005Y47570310D01*
X22846413Y47522538D01*
X22976384Y47449492D01*
X23091353Y47350824D01*
X23191754Y47226185D01*
X23278022Y47075224D01*
X23327839Y46959941D01*
X23386222Y46779276D01*
X23429252Y46582922D01*
X23457040Y46375943D01*
X23469695Y46163402D01*
X23467330Y45950362D01*
X23450055Y45741887D01*
X23417981Y45543039D01*
X23371218Y45358882D01*
X23309877Y45194480D01*
X23288200Y45148876D01*
X23197340Y44996986D01*
X23090219Y44868519D01*
X22968412Y44764522D01*
X22833490Y44686042D01*
X22687029Y44634126D01*
X22530600Y44609821D01*
X22475392Y44608033D01*
X22313554Y44622572D01*
X22153209Y44666263D01*
X21996390Y44738202D01*
X21845133Y44837488D01*
X21723436Y44941768D01*
X21661488Y45001055D01*
X21420155Y44605291D01*
X21360114Y44506554D01*
X21305211Y44415738D01*
X21257394Y44336105D01*
X21218609Y44270920D01*
X21190806Y44223446D01*
X21175930Y44196945D01*
X21173997Y44192825D01*
X21184953Y44179991D01*
X21219007Y44156984D01*
X21271855Y44125985D01*
X21339189Y44089171D01*
X21416706Y44048722D01*
X21500098Y44006818D01*
X21585060Y43965637D01*
X21667286Y43927358D01*
X21742471Y43894162D01*
X21806309Y43868225D01*
X21837533Y43857003D01*
X22015623Y43806658D01*
X22199209Y43773370D01*
X22395858Y43756057D01*
X22564659Y43752957D01*
X22655133Y43754415D01*
X22742471Y43757208D01*
X22818932Y43760991D01*
X22876770Y43765422D01*
X22895549Y43767663D01*
X23080628Y43806053D01*
X23269051Y43866123D01*
X23452090Y43944298D01*
X23621013Y44037000D01*
X23724201Y44107136D01*
X23893826Y44251191D01*
X24051330Y44419698D01*
X24193795Y44608492D01*
X24318303Y44813409D01*
X24421938Y45030285D01*
X24480324Y45186450D01*
X24547222Y45430924D01*
X24591821Y45689936D01*
X24614135Y45957881D01*
X24614179Y46229155D01*
X24591966Y46498153D01*
X24547509Y46759271D01*
X24480824Y47006905D01*
X24475743Y47022334D01*
X24392022Y47238085D01*
X24289844Y47435017D01*
X24165742Y47618701D01*
X24016250Y47794712D01*
X23957850Y47854973D01*
X23776596Y48019984D01*
X23590263Y48156505D01*
X23395991Y48266021D01*
X23190921Y48350019D01*
X22972190Y48409985D01*
X22844970Y48433270D01*
X22633637Y48453995D01*
X22422742Y48450527D01*
G36*
X19300508Y47229029D02*
X19098250Y47202382D01*
X18918164Y47157602D01*
X18759089Y47094331D01*
X18619862Y47012213D01*
X18516535Y46927591D01*
X18424884Y46828892D01*
X18353334Y46722687D01*
X18296214Y46599908D01*
X18275612Y46542567D01*
X18258492Y46490669D01*
X18243578Y46442545D01*
X18230698Y46395754D01*
X18219680Y46347856D01*
X18210350Y46296413D01*
X18202537Y46238984D01*
X18196068Y46173130D01*
X18190770Y46096411D01*
X18186470Y46006388D01*
X18182997Y45900620D01*
X18180177Y45776669D01*
X18177838Y45632094D01*
X18175807Y45464456D01*
X18173912Y45271315D01*
X18172245Y45081243D01*
X18170479Y44873297D01*
X18168874Y44693203D01*
X18167263Y44538756D01*
X18165480Y44407751D01*
X18163357Y44297983D01*
X18160728Y44207247D01*
X18157424Y44133338D01*
X18153281Y44074050D01*
X18148130Y44027178D01*
X18141804Y43990517D01*
X18134137Y43961863D01*
X18124962Y43939010D01*
X18114112Y43919752D01*
X18101419Y43901885D01*
X18086717Y43883204D01*
X18080991Y43875971D01*
X18059930Y43845564D01*
X18050562Y43824858D01*
X18050532Y43824246D01*
X18065014Y43821318D01*
X18106267Y43818622D01*
X18171003Y43816231D01*
X18255936Y43814222D01*
X18357777Y43812671D01*
X18473240Y43811654D01*
X18599036Y43811247D01*
X18613557Y43811243D01*
X19176581Y43811243D01*
X19180924Y43939142D01*
X19185266Y44067042D01*
X19267929Y43999159D01*
X19397510Y43909274D01*
X19543828Y43836459D01*
X19658944Y43796213D01*
X19750902Y43776658D01*
X19861874Y43763353D01*
X19981385Y43756715D01*
X20098963Y43757157D01*
X20204133Y43765095D01*
X20252367Y43772702D01*
X20438782Y43823110D01*
X20607100Y43896126D01*
X20756104Y43990663D01*
X20884576Y44105635D01*
X20991301Y44239954D01*
X21075060Y44392533D01*
X21134140Y44560406D01*
X21150562Y44635739D01*
X21160693Y44718549D01*
X21165524Y44818185D01*
X21166183Y44863314D01*
X21166096Y44867554D01*
X20154344Y44867554D01*
X20141971Y44767633D01*
X20104444Y44682657D01*
X20039915Y44608583D01*
X20033182Y44602708D01*
X19968885Y44556341D01*
X19900042Y44526276D01*
X19819186Y44510405D01*
X19718851Y44506620D01*
X19694743Y44507160D01*
X19623091Y44510691D01*
X19569797Y44517902D01*
X19523177Y44531434D01*
X19471548Y44553928D01*
X19457380Y44560822D01*
X19376632Y44608522D01*
X19314299Y44665281D01*
X19297341Y44685569D01*
X19237870Y44760806D01*
X19237870Y45021587D01*
X19238583Y45126294D01*
X19240833Y45203448D01*
X19244785Y45255522D01*
X19250604Y45284991D01*
X19256042Y45293600D01*
X19277245Y45297812D01*
X19322222Y45301303D01*
X19384695Y45303744D01*
X19458381Y45304806D01*
X19470214Y45304826D01*
X19631010Y45297831D01*
X19767701Y45276307D01*
X19882935Y45239431D01*
X19979359Y45186380D01*
X20052491Y45123873D01*
X20111799Y45046805D01*
X20144715Y44962865D01*
X20154344Y44867554D01*
X21166096Y44867554D01*
X21163609Y44988136D01*
X21152499Y45093179D01*
X21130871Y45188002D01*
X21096739Y45282163D01*
X21064791Y45351889D01*
X20986748Y45478764D01*
X20882773Y45595958D01*
X20756030Y45701338D01*
X20609682Y45792772D01*
X20446894Y45868126D01*
X20270829Y45925268D01*
X20184734Y45945158D01*
X20003426Y45974587D01*
X19805792Y45994003D01*
X19604150Y46002498D01*
X19435654Y46000325D01*
X19220125Y45991300D01*
X19230003Y46069822D01*
X19255689Y46201830D01*
X19297139Y46309298D01*
X19355499Y46393048D01*
X19431917Y46453905D01*
X19527539Y46492692D01*
X19643510Y46510234D01*
X19780979Y46507353D01*
X19831538Y46502026D01*
X20019514Y46468518D01*
X20201662Y46413887D01*
X20327515Y46363294D01*
X20387639Y46337499D01*
X20438806Y46316769D01*
X20473889Y46303929D01*
X20484125Y46301203D01*
X20497098Y46313290D01*
X20519357Y46351858D01*
X20551110Y46417345D01*
X20592568Y46510184D01*
X20643939Y46630813D01*
X20652723Y46651835D01*
X20692739Y46748115D01*
X20728659Y46835115D01*
X20758931Y46909031D01*
X20782004Y46966059D01*
X20796326Y47002393D01*
X20800462Y47014161D01*
X20787150Y47020491D01*
X20752167Y47027517D01*
X20714526Y47032415D01*
X20674377Y47038748D01*
X20610754Y47051323D01*
X20529303Y47068908D01*
X20435664Y47090270D01*
X20335480Y47114175D01*
X20297455Y47123525D01*
X20157581Y47157592D01*
X20040869Y47184302D01*
X19941565Y47204509D01*
X19853915Y47219066D01*
X19772164Y47228827D01*
X19690559Y47234644D01*
X19603344Y47237370D01*
X19526102Y47237900D01*
X19300508Y47229029D01*
X19300508Y47229029D01*
G37*
X19300508Y47229029D02*
X19098250Y47202382D01*
X18918164Y47157602D01*
X18759089Y47094331D01*
X18619862Y47012213D01*
X18516535Y46927591D01*
X18424884Y46828892D01*
X18353334Y46722687D01*
X18296214Y46599908D01*
X18275612Y46542567D01*
X18258492Y46490669D01*
X18243578Y46442545D01*
X18230698Y46395754D01*
X18219680Y46347856D01*
X18210350Y46296413D01*
X18202537Y46238984D01*
X18196068Y46173130D01*
X18190770Y46096411D01*
X18186470Y46006388D01*
X18182997Y45900620D01*
X18180177Y45776669D01*
X18177838Y45632094D01*
X18175807Y45464456D01*
X18173912Y45271315D01*
X18172245Y45081243D01*
X18170479Y44873297D01*
X18168874Y44693203D01*
X18167263Y44538756D01*
X18165480Y44407751D01*
X18163357Y44297983D01*
X18160728Y44207247D01*
X18157424Y44133338D01*
X18153281Y44074050D01*
X18148130Y44027178D01*
X18141804Y43990517D01*
X18134137Y43961863D01*
X18124962Y43939010D01*
X18114112Y43919752D01*
X18101419Y43901885D01*
X18086717Y43883204D01*
X18080991Y43875971D01*
X18059930Y43845564D01*
X18050562Y43824858D01*
X18050532Y43824246D01*
X18065014Y43821318D01*
X18106267Y43818622D01*
X18171003Y43816231D01*
X18255936Y43814222D01*
X18357777Y43812671D01*
X18473240Y43811654D01*
X18599036Y43811247D01*
X18613557Y43811243D01*
X19176581Y43811243D01*
X19180924Y43939142D01*
X19185266Y44067042D01*
X19267929Y43999159D01*
X19397510Y43909274D01*
X19543828Y43836459D01*
X19658944Y43796213D01*
X19750902Y43776658D01*
X19861874Y43763353D01*
X19981385Y43756715D01*
X20098963Y43757157D01*
X20204133Y43765095D01*
X20252367Y43772702D01*
X20438782Y43823110D01*
X20607100Y43896126D01*
X20756104Y43990663D01*
X20884576Y44105635D01*
X20991301Y44239954D01*
X21075060Y44392533D01*
X21134140Y44560406D01*
X21150562Y44635739D01*
X21160693Y44718549D01*
X21165524Y44818185D01*
X21166183Y44863314D01*
X21166096Y44867554D01*
X20154344Y44867554D01*
X20141971Y44767633D01*
X20104444Y44682657D01*
X20039915Y44608583D01*
X20033182Y44602708D01*
X19968885Y44556341D01*
X19900042Y44526276D01*
X19819186Y44510405D01*
X19718851Y44506620D01*
X19694743Y44507160D01*
X19623091Y44510691D01*
X19569797Y44517902D01*
X19523177Y44531434D01*
X19471548Y44553928D01*
X19457380Y44560822D01*
X19376632Y44608522D01*
X19314299Y44665281D01*
X19297341Y44685569D01*
X19237870Y44760806D01*
X19237870Y45021587D01*
X19238583Y45126294D01*
X19240833Y45203448D01*
X19244785Y45255522D01*
X19250604Y45284991D01*
X19256042Y45293600D01*
X19277245Y45297812D01*
X19322222Y45301303D01*
X19384695Y45303744D01*
X19458381Y45304806D01*
X19470214Y45304826D01*
X19631010Y45297831D01*
X19767701Y45276307D01*
X19882935Y45239431D01*
X19979359Y45186380D01*
X20052491Y45123873D01*
X20111799Y45046805D01*
X20144715Y44962865D01*
X20154344Y44867554D01*
X21166096Y44867554D01*
X21163609Y44988136D01*
X21152499Y45093179D01*
X21130871Y45188002D01*
X21096739Y45282163D01*
X21064791Y45351889D01*
X20986748Y45478764D01*
X20882773Y45595958D01*
X20756030Y45701338D01*
X20609682Y45792772D01*
X20446894Y45868126D01*
X20270829Y45925268D01*
X20184734Y45945158D01*
X20003426Y45974587D01*
X19805792Y45994003D01*
X19604150Y46002498D01*
X19435654Y46000325D01*
X19220125Y45991300D01*
X19230003Y46069822D01*
X19255689Y46201830D01*
X19297139Y46309298D01*
X19355499Y46393048D01*
X19431917Y46453905D01*
X19527539Y46492692D01*
X19643510Y46510234D01*
X19780979Y46507353D01*
X19831538Y46502026D01*
X20019514Y46468518D01*
X20201662Y46413887D01*
X20327515Y46363294D01*
X20387639Y46337499D01*
X20438806Y46316769D01*
X20473889Y46303929D01*
X20484125Y46301203D01*
X20497098Y46313290D01*
X20519357Y46351858D01*
X20551110Y46417345D01*
X20592568Y46510184D01*
X20643939Y46630813D01*
X20652723Y46651835D01*
X20692739Y46748115D01*
X20728659Y46835115D01*
X20758931Y46909031D01*
X20782004Y46966059D01*
X20796326Y47002393D01*
X20800462Y47014161D01*
X20787150Y47020491D01*
X20752167Y47027517D01*
X20714526Y47032415D01*
X20674377Y47038748D01*
X20610754Y47051323D01*
X20529303Y47068908D01*
X20435664Y47090270D01*
X20335480Y47114175D01*
X20297455Y47123525D01*
X20157581Y47157592D01*
X20040869Y47184302D01*
X19941565Y47204509D01*
X19853915Y47219066D01*
X19772164Y47228827D01*
X19690559Y47234644D01*
X19603344Y47237370D01*
X19526102Y47237900D01*
X19300508Y47229029D01*
G36*
X14623526Y46422633D02*
X14623500Y46110539D01*
X14623465Y45827038D01*
X14623369Y45570664D01*
X14623159Y45339952D01*
X14622784Y45133435D01*
X14622191Y44949649D01*
X14621330Y44787126D01*
X14620147Y44644402D01*
X14618592Y44520010D01*
X14616611Y44412485D01*
X14614154Y44320360D01*
X14611167Y44242170D01*
X14607600Y44176449D01*
X14603401Y44121731D01*
X14598516Y44076551D01*
X14592896Y44039442D01*
X14586487Y44008938D01*
X14579237Y43983574D01*
X14571095Y43961885D01*
X14562010Y43942403D01*
X14551927Y43923663D01*
X14540797Y43904200D01*
X14533883Y43892076D01*
X14488264Y43811243D01*
X15630769Y43811243D01*
X15630769Y43938994D01*
X15631743Y43996727D01*
X15634342Y44040881D01*
X15638082Y44064554D01*
X15639735Y44066746D01*
X15654942Y44057581D01*
X15685183Y44033825D01*
X15715405Y44008031D01*
X15788076Y43953799D01*
X15880577Y43899208D01*
X15983161Y43849275D01*
X16086081Y43809013D01*
X16127157Y43796167D01*
X16218351Y43776775D01*
X16328657Y43763513D01*
X16447671Y43756798D01*
X16564995Y43757047D01*
X16670227Y43764676D01*
X16720414Y43772408D01*
X16904270Y43823082D01*
X17073755Y43899933D01*
X17227954Y44002263D01*
X17365956Y44129372D01*
X17486849Y44280560D01*
X17575786Y44428073D01*
X17648835Y44583517D01*
X17704752Y44742414D01*
X17744689Y44910157D01*
X17769793Y45092139D01*
X17781214Y45293755D01*
X17782181Y45396864D01*
X17779393Y45472455D01*
X16675540Y45472455D01*
X16675263Y45348548D01*
X16671385Y45231801D01*
X16663846Y45129180D01*
X16652589Y45047651D01*
X16649149Y45031221D01*
X16606811Y44888388D01*
X16551348Y44772527D01*
X16482297Y44683346D01*
X16399196Y44620556D01*
X16301582Y44583863D01*
X16188990Y44572979D01*
X16060959Y44587610D01*
X15976449Y44608542D01*
X15911022Y44632759D01*
X15838957Y44667172D01*
X15784822Y44698728D01*
X15690887Y44760460D01*
X15690887Y46291780D01*
X15780631Y46349784D01*
X15885177Y46404267D01*
X15997258Y46439749D01*
X16110589Y46455624D01*
X16218883Y46451288D01*
X16315855Y46426135D01*
X16358397Y46405407D01*
X16435515Y46348162D01*
X16500695Y46272578D01*
X16555487Y46175892D01*
X16601439Y46055342D01*
X16640103Y45908167D01*
X16641809Y45900355D01*
X16655350Y45817473D01*
X16665524Y45713884D01*
X16672274Y45596556D01*
X16675540Y45472455D01*
X17779393Y45472455D01*
X17771728Y45680199D01*
X17742512Y45940927D01*
X17694604Y46178877D01*
X17628072Y46393876D01*
X17542985Y46585750D01*
X17439413Y46754326D01*
X17317425Y46899432D01*
X17177089Y47020895D01*
X17116959Y47062102D01*
X16982559Y47136855D01*
X16845043Y47189591D01*
X16698476Y47221757D01*
X16536927Y47234797D01*
X16413769Y47233405D01*
X16241152Y47218805D01*
X16091249Y47189761D01*
X15959722Y47144937D01*
X15842235Y47083000D01*
X15777177Y47037451D01*
X15738080Y47008275D01*
X15709202Y46988344D01*
X15698272Y46982485D01*
X15696122Y46996903D01*
X15694404Y47037713D01*
X15693100Y47101253D01*
X15692195Y47183860D01*
X15691672Y47281870D01*
X15691513Y47391621D01*
X15691702Y47509449D01*
X15692222Y47631693D01*
X15693056Y47754687D01*
X15694188Y47874770D01*
X15695601Y47988279D01*
X15697277Y48091550D01*
X15699200Y48180920D01*
X15701354Y48252727D01*
X15703720Y48303307D01*
X15704375Y48312604D01*
X15714463Y48406353D01*
X15729855Y48479776D01*
X15753472Y48542511D01*
X15788233Y48604198D01*
X15796577Y48616953D01*
X15829105Y48665799D01*
X14623787Y48665799D01*
X14623526Y46422633D01*
X14623526Y46422633D01*
G37*
X14623526Y46422633D02*
X14623500Y46110539D01*
X14623465Y45827038D01*
X14623369Y45570664D01*
X14623159Y45339952D01*
X14622784Y45133435D01*
X14622191Y44949649D01*
X14621330Y44787126D01*
X14620147Y44644402D01*
X14618592Y44520010D01*
X14616611Y44412485D01*
X14614154Y44320360D01*
X14611167Y44242170D01*
X14607600Y44176449D01*
X14603401Y44121731D01*
X14598516Y44076551D01*
X14592896Y44039442D01*
X14586487Y44008938D01*
X14579237Y43983574D01*
X14571095Y43961885D01*
X14562010Y43942403D01*
X14551927Y43923663D01*
X14540797Y43904200D01*
X14533883Y43892076D01*
X14488264Y43811243D01*
X15630769Y43811243D01*
X15630769Y43938994D01*
X15631743Y43996727D01*
X15634342Y44040881D01*
X15638082Y44064554D01*
X15639735Y44066746D01*
X15654942Y44057581D01*
X15685183Y44033825D01*
X15715405Y44008031D01*
X15788076Y43953799D01*
X15880577Y43899208D01*
X15983161Y43849275D01*
X16086081Y43809013D01*
X16127157Y43796167D01*
X16218351Y43776775D01*
X16328657Y43763513D01*
X16447671Y43756798D01*
X16564995Y43757047D01*
X16670227Y43764676D01*
X16720414Y43772408D01*
X16904270Y43823082D01*
X17073755Y43899933D01*
X17227954Y44002263D01*
X17365956Y44129372D01*
X17486849Y44280560D01*
X17575786Y44428073D01*
X17648835Y44583517D01*
X17704752Y44742414D01*
X17744689Y44910157D01*
X17769793Y45092139D01*
X17781214Y45293755D01*
X17782181Y45396864D01*
X17779393Y45472455D01*
X16675540Y45472455D01*
X16675263Y45348548D01*
X16671385Y45231801D01*
X16663846Y45129180D01*
X16652589Y45047651D01*
X16649149Y45031221D01*
X16606811Y44888388D01*
X16551348Y44772527D01*
X16482297Y44683346D01*
X16399196Y44620556D01*
X16301582Y44583863D01*
X16188990Y44572979D01*
X16060959Y44587610D01*
X15976449Y44608542D01*
X15911022Y44632759D01*
X15838957Y44667172D01*
X15784822Y44698728D01*
X15690887Y44760460D01*
X15690887Y46291780D01*
X15780631Y46349784D01*
X15885177Y46404267D01*
X15997258Y46439749D01*
X16110589Y46455624D01*
X16218883Y46451288D01*
X16315855Y46426135D01*
X16358397Y46405407D01*
X16435515Y46348162D01*
X16500695Y46272578D01*
X16555487Y46175892D01*
X16601439Y46055342D01*
X16640103Y45908167D01*
X16641809Y45900355D01*
X16655350Y45817473D01*
X16665524Y45713884D01*
X16672274Y45596556D01*
X16675540Y45472455D01*
X17779393Y45472455D01*
X17771728Y45680199D01*
X17742512Y45940927D01*
X17694604Y46178877D01*
X17628072Y46393876D01*
X17542985Y46585750D01*
X17439413Y46754326D01*
X17317425Y46899432D01*
X17177089Y47020895D01*
X17116959Y47062102D01*
X16982559Y47136855D01*
X16845043Y47189591D01*
X16698476Y47221757D01*
X16536927Y47234797D01*
X16413769Y47233405D01*
X16241152Y47218805D01*
X16091249Y47189761D01*
X15959722Y47144937D01*
X15842235Y47083000D01*
X15777177Y47037451D01*
X15738080Y47008275D01*
X15709202Y46988344D01*
X15698272Y46982485D01*
X15696122Y46996903D01*
X15694404Y47037713D01*
X15693100Y47101253D01*
X15692195Y47183860D01*
X15691672Y47281870D01*
X15691513Y47391621D01*
X15691702Y47509449D01*
X15692222Y47631693D01*
X15693056Y47754687D01*
X15694188Y47874770D01*
X15695601Y47988279D01*
X15697277Y48091550D01*
X15699200Y48180920D01*
X15701354Y48252727D01*
X15703720Y48303307D01*
X15704375Y48312604D01*
X15714463Y48406353D01*
X15729855Y48479776D01*
X15753472Y48542511D01*
X15788233Y48604198D01*
X15796577Y48616953D01*
X15829105Y48665799D01*
X14623787Y48665799D01*
X14623526Y46422633D01*
G36*
X25886240Y49678707D02*
X25758063Y49646438D01*
X25642789Y49589413D01*
X25543189Y49509828D01*
X25462035Y49409875D01*
X25402098Y49291749D01*
X25367134Y49163525D01*
X25359344Y49034031D01*
X25379120Y48909071D01*
X25423988Y48792101D01*
X25491472Y48686578D01*
X25579098Y48595958D01*
X25684393Y48523697D01*
X25804882Y48473252D01*
X25873135Y48456712D01*
X25932378Y48446698D01*
X25978046Y48442741D01*
X26021928Y48445170D01*
X26075814Y48454316D01*
X26119877Y48463602D01*
X26244248Y48505553D01*
X26355647Y48573617D01*
X26451565Y48665731D01*
X26529496Y48779830D01*
X26548067Y48816095D01*
X26569951Y48864513D01*
X26583675Y48905172D01*
X26591085Y48947951D01*
X26594027Y49002728D01*
X26594397Y49064083D01*
X26588957Y49176394D01*
X26571096Y49268629D01*
X26537559Y49349342D01*
X26485090Y49427086D01*
X26433769Y49486018D01*
X26338054Y49573645D01*
X26238078Y49634132D01*
X26127907Y49670347D01*
X26024549Y49684027D01*
X25886240Y49678707D01*
X25886240Y49678707D01*
G37*
X25886240Y49678707D02*
X25758063Y49646438D01*
X25642789Y49589413D01*
X25543189Y49509828D01*
X25462035Y49409875D01*
X25402098Y49291749D01*
X25367134Y49163525D01*
X25359344Y49034031D01*
X25379120Y48909071D01*
X25423988Y48792101D01*
X25491472Y48686578D01*
X25579098Y48595958D01*
X25684393Y48523697D01*
X25804882Y48473252D01*
X25873135Y48456712D01*
X25932378Y48446698D01*
X25978046Y48442741D01*
X26021928Y48445170D01*
X26075814Y48454316D01*
X26119877Y48463602D01*
X26244248Y48505553D01*
X26355647Y48573617D01*
X26451565Y48665731D01*
X26529496Y48779830D01*
X26548067Y48816095D01*
X26569951Y48864513D01*
X26583675Y48905172D01*
X26591085Y48947951D01*
X26594027Y49002728D01*
X26594397Y49064083D01*
X26588957Y49176394D01*
X26571096Y49268629D01*
X26537559Y49349342D01*
X26485090Y49427086D01*
X26433769Y49486018D01*
X26338054Y49573645D01*
X26238078Y49634132D01*
X26127907Y49670347D01*
X26024549Y49684027D01*
X25886240Y49678707D01*
D13*
X38100000Y13970000D02*
X33020000Y13970000D01*
X38100000Y18415000D02*
X33020000Y18415000D01*
X33020000Y12065000D02*
X38100000Y12065000D01*
X33020000Y12065000D02*
X33020000Y18415000D01*
X38100000Y12065000D02*
X38100000Y18415000D01*
X41425714Y15311429D02*
X41282857Y15263810D01*
X41235238Y15216190D01*
X41187619Y15120952D01*
X41187619Y14978095D01*
X41235238Y14882857D01*
X41282857Y14835238D01*
X41378095Y14787619D01*
X41759048Y14787619D01*
X41759048Y15787619D01*
X41425714Y15787619D01*
X41330476Y15740000D01*
X41282857Y15692381D01*
X41235238Y15597143D01*
X41235238Y15501905D01*
X41282857Y15406667D01*
X41330476Y15359048D01*
X41425714Y15311429D01*
X41759048Y15311429D01*
X40901905Y15787619D02*
X40330476Y15787619D01*
X40616191Y14787619D02*
X40616191Y15787619D01*
X39473333Y14787619D02*
X40044762Y14787619D01*
X39759048Y14787619D02*
X39759048Y15787619D01*
X39854286Y15644762D01*
X39949524Y15549524D01*
X40044762Y15501905D01*
M02*
